<?xml version="1.0"?>

<svg width="100%" height="100%" viewBox="0 0 12 12" version="1.1" xmlns="http://www.w3.org/2000/svg" xmlns:xlink="http://www.w3.org/1999/xlink" xml:space="preserve" xmlns:serif="http://www.serif.com/" style="fill-rule:evenodd;clip-rule:evenodd;stroke-linejoin:round;stroke-miterlimit:2;">
    <path id="Search" d="M7.584,8.542C7.262,8.784 6.909,8.984 6.537,9.137C5.969,9.369 5.357,9.488 4.744,9.488C4.131,9.488 3.519,9.369 2.951,9.137C2.404,8.913 1.9,8.585 1.472,8.177C1.058,7.783 0.716,7.314 0.468,6.8C0.257,6.361 0.114,5.889 0.046,5.406C-0.026,4.889 -0.013,4.36 0.085,3.846C0.165,3.427 0.303,3.018 0.494,2.636C0.731,2.159 1.049,1.722 1.431,1.35C1.812,0.977 2.256,0.669 2.74,0.443C3.146,0.254 3.579,0.122 4.022,0.055C4.241,0.021 4.461,0.004 4.683,-0L4.805,-0C5.026,0.004 5.247,0.021 5.466,0.055C5.909,0.122 6.342,0.254 6.748,0.443C7.249,0.677 7.707,0.999 8.098,1.39C8.475,1.767 8.788,2.207 9.019,2.688C9.214,3.091 9.35,3.522 9.424,3.963C9.503,4.44 9.509,4.928 9.442,5.406C9.374,5.889 9.231,6.361 9.019,6.8C8.886,7.076 8.726,7.339 8.543,7.584L12,11.041L11.042,12L7.584,8.542ZM4.691,0.678C4.501,0.682 4.312,0.696 4.125,0.725C3.745,0.783 3.374,0.895 3.027,1.057C2.612,1.251 2.231,1.515 1.904,1.835C1.577,2.154 1.304,2.528 1.1,2.938C0.938,3.265 0.819,3.615 0.751,3.974C0.666,4.414 0.655,4.869 0.717,5.312C0.775,5.726 0.898,6.13 1.079,6.506C1.292,6.947 1.585,7.349 1.939,7.687C2.306,8.036 2.738,8.317 3.208,8.509C3.694,8.708 4.218,8.81 4.744,8.81C5.269,8.81 5.794,8.708 6.28,8.509C6.75,8.317 7.182,8.037 7.549,7.687C7.903,7.349 8.196,6.947 8.409,6.506C8.59,6.13 8.713,5.726 8.771,5.312C8.833,4.869 8.822,4.414 8.737,3.974C8.671,3.631 8.561,3.297 8.409,2.982C8.21,2.57 7.942,2.192 7.619,1.869C7.284,1.534 6.89,1.258 6.461,1.057C6.113,0.895 5.743,0.783 5.363,0.725C5.175,0.696 4.986,0.682 4.797,0.678L4.691,0.678Z" style="fill:rgb(27,137,202);"></path>
</svg>