<?xml version="1.0"?>

<svg width="15px" height="20px" version="1.1" xmlns="http://www.w3.org/2000/svg" xmlns:xlink="http://www.w3.org/1999/xlink" xml:space="preserve" style="fill-rule:evenodd;clip-rule:evenodd;stroke-linejoin:round;stroke-miterlimit:1.41421;">
    <path id="bubble_play" d="M13.658,9.249c0.248,0.158 0.398,0.432 0.398,0.726c0,0.294 -0.15,0.568 -0.398,0.726c-2.657,1.695 -9.257,5.907 -12.089,7.714c-0.265,0.169 -0.601,0.18 -0.877,0.029c-0.276,-0.151 -0.447,-0.441 -0.447,-0.756c0,-3.504 0,-11.923 0,-15.426c0,-0.315 0.171,-0.605 0.447,-0.756c0.276,-0.151 0.612,-0.14 0.877,0.029c2.832,1.807 9.432,6.019 12.089,7.714l0,0Z" style="fill:#08c;"></path>
</svg>