<?xml version="1.0"?>

<svg width="28px" height="56px" version="1.1" xmlns="http://www.w3.org/2000/svg" xmlns:xlink="http://www.w3.org/1999/xlink" xml:space="preserve" style="fill-rule:evenodd;clip-rule:evenodd;stroke-linejoin:round;stroke-miterlimit:1.41421;">
    <g id="button_teacher_results">
        <g>
            <path id="icon_results" d="M19.462,3.235l-2.295,-0.1c-2.43,-0.126 -4.86,-0.248 -7.289,-0.378c-3.043,-0.162 -9.268,-0.504 -9.268,-0.504c0,0 -0.614,-0.045 -0.61,-0.62c0.004,-0.602 0.61,-0.62 0.61,-0.62l9.687,-0.504c2.626,-0.125 5.251,-0.258 7.877,-0.377c1.11,-0.05 2.219,-0.088 3.329,-0.132c0.732,0.694 1.465,1.387 2.198,2.081c0.391,0.408 0.785,0.813 1.172,1.224c1.049,1.116 2.085,2.244 3.127,3.367l-0.214,1.115c-0.042,0.194 -0.085,0.387 -0.123,0.581c-0.095,0.485 -0.185,0.97 -0.271,1.456c-0.033,0.194 -0.056,0.39 -0.081,0.585c-0.027,0.205 -0.049,0.381 -0.075,0.586c-0.119,0.971 -0.203,1.948 -0.269,2.925c-0.157,2.326 -0.196,4.663 -0.116,6.992c0.04,1.163 0.101,2.324 0.182,3.484c0.033,0.484 0.08,0.968 0.112,1.452l0.021,0.295c-0.113,1.151 -0.627,1.832 -1.701,1.857l-0.642,-0.027c-1.021,-0.051 -2.042,-0.097 -3.063,-0.153c-2.228,-0.123 -4.455,-0.247 -6.682,-0.383c-3.452,-0.211 -10.517,-0.669 -10.517,-0.669c0,0 -0.799,-0.125 -0.815,-0.87c-0.016,-0.763 0.845,-0.838 0.845,-0.838l10.534,-0.273l6.691,-0.131l1.846,-0.023c-0.02,-0.303 -0.037,-0.605 -0.053,-0.908c-0.025,-0.505 -0.045,-1.01 -0.061,-1.516c-0.043,-2.248 0.03,-4.501 0.215,-6.741c0.166,-2.018 0.423,-4.028 0.736,-6.027l-0.855,-0.204c-1.033,-0.235 -2.065,-0.466 -3.106,-0.658c-0.353,-0.066 -0.544,-0.089 -0.895,-0.139l-0.009,-0.001l0.017,-0.866l-0.01,-0.905c-0.026,-0.767 -0.032,-1.081 -0.078,-1.848c-0.041,-0.693 -0.071,-1.147 -0.101,-1.585Zm-1.055,17.687c0,0 0.951,0.043 0.938,0.464c-0.013,0.436 -0.874,0.487 -0.874,0.487l-4.991,0.416c0,0 -0.877,-0.016 -0.878,-0.903c-0.001,-0.896 0.878,-0.904 0.878,-0.904c1.662,0.16 3.265,0.28 4.927,0.44Zm3.625,-2.004c-0.071,0.919 -0.879,0.903 -0.879,0.903l-7.673,-0.484c0,0 -0.901,0.029 -0.878,-0.423c0.021,-0.42 0.878,-0.422 0.878,-0.422l7.674,-0.478c0.515,-0.062 0.901,0.603 0.878,0.904Zm-0.879,-3.207c0,0 0.902,0.003 0.879,0.423c-0.026,0.465 -0.879,0.423 -0.879,0.423l-7.673,0.481c0,0 -0.826,0.046 -0.878,-0.904c-0.051,-0.928 0.878,-0.904 0.878,-0.904c2.558,0.16 5.116,0.321 7.673,0.481Zm2.068,-4.019c-0.054,0.943 -0.879,0.903 -0.879,0.903l-8.862,-0.48c0,0 -0.884,-0.079 -0.878,-0.423c0.007,-0.411 0.878,-0.423 0.878,-0.423l8.862,-0.481c0.61,-0.063 0.902,0.495 0.879,0.904Zm-4.754,-3.204c0,0 0.883,0.029 0.878,0.423c-0.005,0.393 -0.559,0.374 -0.878,0.423c-0.978,0.15 -4.987,0.481 -4.987,0.481c0,0 -0.865,-0.031 -0.878,-0.904c-0.014,-0.924 0.878,-0.904 0.878,-0.904c1.662,0.161 3.325,0.321 4.987,0.481Zm3.064,-3.743l-0.002,0.016c-0.067,0.491 -0.128,1.016 -0.167,1.511c-0.019,0.231 -0.029,0.463 -0.043,0.694l0.007,0.001c0.824,0.089 1.651,0.123 2.479,0.135c0.057,0.001 0.114,0.001 0.171,0.002c-0.565,-0.526 -1.84,-1.715 -2.188,-2.083c-0.087,-0.092 -0.172,-0.183 -0.257,-0.276Z" style="fill:#0089cd;"></path>
            <path d="M6.541,19.19c1.159,0 2.099,-0.967 2.099,-2.159c0,-1.192 -0.94,-2.159 -2.099,-2.159c-1.159,0 -2.098,0.967 -2.098,2.159c0,1.192 0.939,2.159 2.098,2.159Zm0.891,0.147l-1.781,0c-1.481,0 -2.687,1.241 -2.687,2.765l0,0.79l0.006,0.035l0.149,0.048c1.414,0.454 2.643,0.606 3.654,0.606c1.975,0 3.12,-0.579 3.19,-0.616l0.14,-0.073l0.015,0l0,-0.79c0,-1.524 -1.205,-2.765 -2.686,-2.765Z" style="fill:#0089cd;fill-rule:nonzero;"></path>
            <path d="M6.541,8.737c1.159,0 2.099,-0.967 2.099,-2.159c0,-1.192 -0.94,-2.159 -2.099,-2.159c-1.159,0 -2.098,0.967 -2.098,2.159c0,1.192 0.939,2.159 2.098,2.159Zm0.891,0.147l-1.781,0c-1.481,0 -2.687,1.241 -2.687,2.765l0,0.79l0.006,0.035l0.149,0.048c1.414,0.454 2.643,0.606 3.654,0.606c1.975,0 3.12,-0.579 3.19,-0.616l0.14,-0.073l0.015,0l0,-0.79c0,-1.524 -1.205,-2.765 -2.686,-2.765Z" style="fill:#0089cd;fill-rule:nonzero;"></path>
        </g>
        <g>
            <path id="icon_results1" d="M19.462,31.235l-2.295,-0.1c-2.43,-0.126 -4.86,-0.248 -7.289,-0.378c-3.043,-0.162 -9.268,-0.504 -9.268,-0.504c0,0 -0.614,-0.045 -0.61,-0.62c0.004,-0.602 0.61,-0.62 0.61,-0.62l9.687,-0.504c2.626,-0.125 5.251,-0.258 7.877,-0.377c1.11,-0.05 2.219,-0.088 3.329,-0.132c0.732,0.694 1.465,1.387 2.198,2.081c0.391,0.408 0.785,0.813 1.172,1.224c1.049,1.116 2.085,2.244 3.127,3.367l-0.214,1.115c-0.042,0.194 -0.085,0.387 -0.123,0.581c-0.095,0.485 -0.185,0.97 -0.271,1.456c-0.033,0.194 -0.056,0.39 -0.081,0.585c-0.027,0.205 -0.049,0.381 -0.075,0.586c-0.119,0.971 -0.203,1.948 -0.269,2.925c-0.157,2.326 -0.196,4.663 -0.116,6.992c0.04,1.163 0.101,2.324 0.182,3.484c0.033,0.484 0.08,0.968 0.112,1.452l0.021,0.295c-0.113,1.151 -0.627,1.832 -1.701,1.857l-0.642,-0.027c-1.021,-0.051 -2.042,-0.097 -3.063,-0.153c-2.228,-0.123 -4.455,-0.247 -6.682,-0.383c-3.452,-0.211 -10.517,-0.669 -10.517,-0.669c0,0 -0.799,-0.125 -0.815,-0.87c-0.016,-0.763 0.845,-0.838 0.845,-0.838l10.534,-0.273l6.691,-0.131l1.846,-0.023c-0.02,-0.303 -0.037,-0.605 -0.053,-0.908c-0.025,-0.505 -0.045,-1.01 -0.061,-1.516c-0.043,-2.248 0.03,-4.501 0.215,-6.741c0.166,-2.018 0.423,-4.028 0.736,-6.027l-0.855,-0.204c-1.033,-0.235 -2.065,-0.466 -3.106,-0.658c-0.353,-0.066 -0.544,-0.089 -0.895,-0.139l-0.009,-0.001l0.017,-0.866l-0.01,-0.905c-0.026,-0.767 -0.032,-1.081 -0.078,-1.848c-0.041,-0.693 -0.071,-1.147 -0.101,-1.585Zm-1.055,17.687c0,0 0.951,0.043 0.938,0.464c-0.013,0.436 -0.874,0.487 -0.874,0.487l-4.991,0.416c0,0 -0.877,-0.016 -0.878,-0.903c-0.001,-0.896 0.878,-0.904 0.878,-0.904c1.662,0.16 3.265,0.28 4.927,0.44Zm3.625,-2.004c-0.071,0.919 -0.879,0.903 -0.879,0.903l-7.673,-0.484c0,0 -0.901,0.029 -0.878,-0.423c0.021,-0.42 0.878,-0.422 0.878,-0.422l7.674,-0.478c0.515,-0.062 0.901,0.603 0.878,0.904Zm-0.879,-3.207c0,0 0.902,0.003 0.879,0.423c-0.026,0.465 -0.879,0.423 -0.879,0.423l-7.673,0.481c0,0 -0.826,0.046 -0.878,-0.904c-0.051,-0.928 0.878,-0.904 0.878,-0.904c2.558,0.16 5.116,0.321 7.673,0.481Zm2.068,-4.019c-0.054,0.943 -0.879,0.903 -0.879,0.903l-8.862,-0.48c0,0 -0.884,-0.079 -0.878,-0.423c0.007,-0.411 0.878,-0.423 0.878,-0.423l8.862,-0.481c0.61,-0.063 0.902,0.495 0.879,0.904Zm-4.754,-3.204c0,0 0.883,0.029 0.878,0.423c-0.005,0.393 -0.559,0.374 -0.878,0.423c-0.978,0.15 -4.987,0.481 -4.987,0.481c0,0 -0.865,-0.031 -0.878,-0.904c-0.014,-0.924 0.878,-0.904 0.878,-0.904c1.662,0.161 3.325,0.321 4.987,0.481Zm3.064,-3.743l-0.002,0.016c-0.067,0.491 -0.128,1.016 -0.167,1.511c-0.019,0.231 -0.029,0.463 -0.043,0.694l0.007,0.001c0.824,0.089 1.651,0.123 2.479,0.135c0.057,0.001 0.114,0.001 0.171,0.002c-0.565,-0.526 -1.84,-1.715 -2.188,-2.083c-0.087,-0.092 -0.172,-0.183 -0.257,-0.276Z" style="fill:#cd0000;"></path>
            <path d="M6.541,47.19c1.159,0 2.099,-0.967 2.099,-2.159c0,-1.192 -0.94,-2.159 -2.099,-2.159c-1.159,0 -2.098,0.967 -2.098,2.159c0,1.192 0.939,2.159 2.098,2.159Zm0.891,0.147l-1.781,0c-1.481,0 -2.687,1.241 -2.687,2.765l0,0.79l0.006,0.035l0.149,0.048c1.414,0.454 2.643,0.606 3.654,0.606c1.975,0 3.12,-0.579 3.19,-0.616l0.14,-0.073l0.015,0l0,-0.79c0,-1.524 -1.205,-2.765 -2.686,-2.765Z" style="fill:#cd0000;fill-rule:nonzero;"></path>
            <path d="M6.541,36.737c1.159,0 2.099,-0.967 2.099,-2.159c0,-1.192 -0.94,-2.159 -2.099,-2.159c-1.159,0 -2.098,0.967 -2.098,2.159c0,1.192 0.939,2.159 2.098,2.159Zm0.891,0.147l-1.781,0c-1.481,0 -2.687,1.241 -2.687,2.765l0,0.79l0.006,0.035l0.149,0.048c1.414,0.454 2.643,0.606 3.654,0.606c1.975,0 3.12,-0.579 3.19,-0.616l0.14,-0.073l0.015,0l0,-0.79c0,-1.524 -1.205,-2.765 -2.686,-2.765Z" style="fill:#cd0000;fill-rule:nonzero;"></path>
        </g>
    </g>
</svg>