<?xml version="1.0"?>

<svg width="28px" height="56px" version="1.1" xmlns="http://www.w3.org/2000/svg" xmlns:xlink="http://www.w3.org/1999/xlink" xml:space="preserve" style="fill-rule:evenodd;clip-rule:evenodd;stroke-linejoin:round;stroke-miterlimit:1.41421;">
    <g id="button_results">
        <path id="icon_results" d="M19.462,3.235l-2.295,-0.1c-2.43,-0.126 -4.86,-0.248 -7.289,-0.378c-3.043,-0.162 -9.268,-0.504 -9.268,-0.504c0,0 -0.614,-0.045 -0.61,-0.62c0.004,-0.602 0.61,-0.62 0.61,-0.62l9.687,-0.504c2.626,-0.125 5.251,-0.258 7.877,-0.377c1.11,-0.05 2.219,-0.088 3.329,-0.132c0.732,0.694 1.465,1.387 2.198,2.081c0.391,0.408 0.785,0.813 1.172,1.224c1.049,1.116 2.085,2.244 3.127,3.367l-0.214,1.115c-0.042,0.194 -0.085,0.387 -0.123,0.581c-0.095,0.485 -0.185,0.97 -0.271,1.456c-0.033,0.194 -0.056,0.39 -0.081,0.585c-0.027,0.205 -0.049,0.381 -0.075,0.586c-0.119,0.971 -0.203,1.948 -0.269,2.925c-0.157,2.326 -0.196,4.663 -0.116,6.992c0.04,1.163 0.101,2.324 0.182,3.484c0.033,0.484 0.08,0.968 0.112,1.452l0.021,0.295c-0.113,1.151 -0.627,1.832 -1.701,1.857l-0.642,-0.027c-1.021,-0.051 -2.042,-0.097 -3.063,-0.153c-2.228,-0.123 -4.455,-0.247 -6.682,-0.383c-3.452,-0.211 -10.517,-0.669 -10.517,-0.669c0,0 -0.799,-0.125 -0.815,-0.87c-0.016,-0.763 0.845,-0.838 0.845,-0.838l10.534,-0.273l6.691,-0.131l1.846,-0.023c-0.02,-0.303 -0.037,-0.605 -0.053,-0.908c-0.025,-0.505 -0.045,-1.01 -0.061,-1.516c-0.043,-2.248 0.03,-4.501 0.215,-6.741c0.166,-2.018 0.423,-4.028 0.736,-6.027l-0.855,-0.204c-1.033,-0.235 -2.065,-0.466 -3.106,-0.658c-0.353,-0.066 -0.544,-0.089 -0.895,-0.139l-0.009,-0.001l0.017,-0.866l-0.01,-0.905c-0.026,-0.767 -0.032,-1.081 -0.078,-1.848c-0.041,-0.693 -0.071,-1.147 -0.101,-1.585Zm-8.03,12.878c-0.03,0.195 -0.122,0.325 -0.317,0.341c0.16,0.023 0.255,0.132 0.284,0.325c-0.048,0.446 -0.094,0.893 -0.141,1.339l-0.321,3.169l-0.136,1.419l-0.537,-0.02c-2.002,-0.067 -2.182,-0.079 -4.143,-0.122c-0.703,-0.015 -1.073,-0.015 -1.768,-0.019l-0.198,0.002l-0.055,-1.557l-0.088,-1.899c-0.061,-1.133 -0.124,-2.266 -0.19,-3.399l0.584,-0.036c2.017,-0.137 4.034,-0.276 6.051,-0.42l0.076,-0.006c0.576,0.037 0.891,0.316 0.899,0.883Zm6.975,4.809c0,0 0.951,0.043 0.938,0.464c-0.013,0.436 -0.874,0.487 -0.874,0.487l-4.991,0.416c0,0 -0.877,-0.016 -0.878,-0.903c-0.001,-0.896 0.878,-0.904 0.878,-0.904c1.662,0.16 3.265,0.28 4.927,0.44Zm-13.394,-3.181c-0.012,1.166 -0.021,1.571 -0.009,2.739c0.003,0.382 0.014,0.763 0.021,1.145l0.143,0.002c0.919,-0.008 1.835,-0.031 2.753,-0.07c0.471,-0.02 0.941,-0.047 1.412,-0.071l0.328,-0.021c0.002,-0.407 0.007,-0.815 0.007,-1.223c-0.001,-0.854 -0.007,-1.708 -0.01,-2.562l-0.009,-0.676c-1.367,-0.05 -2.734,-0.086 -4.102,-0.123l-0.517,-0.01c-0.006,0.29 -0.012,0.58 -0.017,0.87Zm17.019,1.177c-0.071,0.919 -0.879,0.903 -0.879,0.903l-7.673,-0.484c0,0 -0.901,0.029 -0.878,-0.423c0.021,-0.42 0.878,-0.422 0.878,-0.422l7.674,-0.478c0.515,-0.062 0.901,0.603 0.878,0.904Zm-0.879,-3.207c0,0 0.902,0.003 0.879,0.423c-0.026,0.465 -0.879,0.423 -0.879,0.423l-7.673,0.481c0,0 -0.826,0.046 -0.878,-0.904c-0.051,-0.928 0.878,-0.904 0.878,-0.904c2.558,0.16 5.116,0.321 7.673,0.481Zm-12.428,-9.592c-0.027,0.503 -0.46,1.037 -0.988,1.029c0,0 -1.483,-0.133 -2.928,-0.236l-0.06,0.709c-0.063,0.953 -0.088,1.256 -0.13,2.222c-0.045,1.072 -0.039,1.164 -0.053,2.216l0.001,0.134c1.712,-0.019 3.422,-0.141 5.124,-0.321l-0.018,-0.998l-0.025,-0.622c0.087,-0.651 0.7,-0.948 1.074,-0.929c0.373,0.019 0.975,0.355 0.906,1.101c-0.062,0.438 -0.123,0.876 -0.185,1.313l-0.249,1.818l-1.212,-0.071l-1.764,-0.092c-1.554,-0.072 -3.108,-0.145 -4.663,-0.158l0.001,-0.186c-0.005,-0.486 -0.006,-0.971 -0.014,-1.457c-0.037,-2.071 -0.13,-4.14 -0.229,-6.208c1.448,-0.089 4.412,-0.28 4.412,-0.28c0.625,-0.003 0.983,0.369 1,1.016Zm14.496,5.573c-0.054,0.943 -0.879,0.903 -0.879,0.903l-8.862,-0.48c0,0 -0.884,-0.079 -0.878,-0.423c0.007,-0.411 0.878,-0.423 0.878,-0.423l8.862,-0.481c0.61,-0.063 0.902,0.495 0.879,0.904Zm-15.457,0.035c-0.113,0.069 -0.139,0.095 -0.266,0.133c-0.29,0.087 -0.609,0.009 -0.83,-0.201c-0.098,-0.093 -0.109,-0.128 -0.18,-0.241c-0.062,-0.126 -0.121,-0.264 -0.18,-0.391c-0.086,-0.183 -0.174,-0.365 -0.262,-0.547c-0.163,-0.328 -0.33,-0.656 -0.519,-0.97c-0.132,-0.219 -0.278,-0.431 -0.431,-0.635l-0.041,-0.051c-0.201,-0.262 -0.227,-0.644 -0.07,-0.812c0.179,-0.19 0.435,-0.282 0.771,-0.056c0.086,0.057 0.17,0.113 0.253,0.173c0.227,0.168 0.437,0.355 0.637,0.555c0.08,0.079 0.16,0.158 0.234,0.243c0.117,0.134 0.23,0.272 0.341,0.413l0.043,0.056l0.014,0.018c0.088,-0.122 0.177,-0.243 0.268,-0.363c0.198,-0.257 0.399,-0.513 0.603,-0.766c0.1,-0.122 0.099,-0.121 0.2,-0.242c0.628,-0.734 1.281,-1.453 2,-2.095c0.471,-0.42 0.969,-0.805 1.469,-1.19c0.428,-0.33 1.061,-0.753 1.359,-0.901c0.377,-0.186 0.68,0.031 0.76,0.155c0.092,0.143 0.149,0.575 -0.154,0.782c-0.139,0.107 -0.278,0.214 -0.417,0.323c-0.133,0.107 -0.265,0.216 -0.397,0.325c-0.32,0.271 -0.634,0.548 -0.936,0.84c-0.617,0.595 -1.192,1.24 -1.725,1.916c-0.42,0.532 -0.817,1.085 -1.201,1.646c-0.313,0.455 -0.615,0.919 -0.933,1.37l-0.203,0.296l-0.095,0.118c-0.037,0.033 -0.075,0.066 -0.112,0.099Zm10.703,-3.239c0,0 0.883,0.029 0.878,0.423c-0.005,0.393 -0.559,0.374 -0.878,0.423c-0.978,0.15 -4.987,0.481 -4.987,0.481c0,0 -0.865,-0.031 -0.878,-0.904c-0.014,-0.924 0.878,-0.904 0.878,-0.904c1.662,0.161 3.325,0.321 4.987,0.481Zm3.064,-3.743l-0.002,0.016c-0.067,0.491 -0.128,1.016 -0.167,1.511c-0.019,0.231 -0.029,0.463 -0.043,0.694l0.007,0.001c0.824,0.089 1.651,0.123 2.479,0.135c0.057,0.001 0.114,0.001 0.171,0.002c-0.565,-0.526 -1.84,-1.715 -2.188,-2.083c-0.087,-0.092 -0.172,-0.183 -0.257,-0.276Z" style="fill:#0089cd;"></path>
        <path id="icon_results1" d="M19.462,31.235l-2.295,-0.1c-2.43,-0.126 -4.86,-0.248 -7.289,-0.378c-3.043,-0.162 -9.268,-0.504 -9.268,-0.504c0,0 -0.614,-0.045 -0.61,-0.62c0.004,-0.602 0.61,-0.62 0.61,-0.62l9.687,-0.504c2.626,-0.125 5.251,-0.258 7.877,-0.377c1.11,-0.05 2.219,-0.088 3.329,-0.132c0.732,0.694 1.465,1.387 2.198,2.081c0.391,0.408 0.785,0.813 1.172,1.224c1.049,1.116 2.085,2.244 3.127,3.367l-0.214,1.115c-0.042,0.194 -0.085,0.387 -0.123,0.581c-0.095,0.485 -0.185,0.97 -0.271,1.456c-0.033,0.194 -0.056,0.39 -0.081,0.585c-0.027,0.205 -0.049,0.381 -0.075,0.586c-0.119,0.971 -0.203,1.948 -0.269,2.925c-0.157,2.326 -0.196,4.663 -0.116,6.992c0.04,1.163 0.101,2.324 0.182,3.484c0.033,0.484 0.08,0.968 0.112,1.452l0.021,0.295c-0.113,1.151 -0.627,1.832 -1.701,1.857l-0.642,-0.027c-1.021,-0.051 -2.042,-0.097 -3.063,-0.153c-2.228,-0.123 -4.455,-0.247 -6.682,-0.383c-3.452,-0.211 -10.517,-0.669 -10.517,-0.669c0,0 -0.799,-0.125 -0.815,-0.87c-0.016,-0.763 0.845,-0.838 0.845,-0.838l10.534,-0.273l6.691,-0.131l1.846,-0.023c-0.02,-0.303 -0.037,-0.605 -0.053,-0.908c-0.025,-0.505 -0.045,-1.01 -0.061,-1.516c-0.043,-2.248 0.03,-4.501 0.215,-6.741c0.166,-2.018 0.423,-4.028 0.736,-6.027l-0.855,-0.204c-1.033,-0.235 -2.065,-0.466 -3.106,-0.658c-0.353,-0.066 -0.544,-0.089 -0.895,-0.139l-0.009,-0.001l0.017,-0.866l-0.01,-0.905c-0.026,-0.767 -0.032,-1.081 -0.078,-1.848c-0.041,-0.693 -0.071,-1.147 -0.101,-1.585Zm-8.03,12.878c-0.03,0.195 -0.122,0.325 -0.317,0.341c0.16,0.023 0.255,0.132 0.284,0.325c-0.048,0.446 -0.094,0.893 -0.141,1.339l-0.321,3.169l-0.136,1.419l-0.537,-0.02c-2.002,-0.067 -2.182,-0.079 -4.143,-0.122c-0.703,-0.015 -1.073,-0.015 -1.768,-0.019l-0.198,0.002l-0.055,-1.557l-0.088,-1.899c-0.061,-1.133 -0.124,-2.266 -0.19,-3.399l0.584,-0.036c2.017,-0.137 4.034,-0.276 6.051,-0.42l0.076,-0.006c0.576,0.037 0.891,0.316 0.899,0.883Zm6.975,4.809c0,0 0.951,0.043 0.938,0.464c-0.013,0.436 -0.874,0.487 -0.874,0.487l-4.991,0.416c0,0 -0.877,-0.016 -0.878,-0.903c-0.001,-0.896 0.878,-0.904 0.878,-0.904c1.662,0.16 3.265,0.28 4.927,0.44Zm-13.394,-3.181c-0.012,1.166 -0.021,1.571 -0.009,2.739c0.003,0.382 0.014,0.763 0.021,1.145l0.143,0.002c0.919,-0.008 1.835,-0.031 2.753,-0.07c0.471,-0.02 0.941,-0.047 1.412,-0.071l0.328,-0.021c0.002,-0.407 0.007,-0.815 0.007,-1.223c-0.001,-0.854 -0.007,-1.708 -0.01,-2.562l-0.009,-0.676c-1.367,-0.05 -2.734,-0.086 -4.102,-0.123l-0.517,-0.01c-0.006,0.29 -0.012,0.58 -0.017,0.87Zm17.019,1.177c-0.071,0.919 -0.879,0.903 -0.879,0.903l-7.673,-0.484c0,0 -0.901,0.029 -0.878,-0.423c0.021,-0.42 0.878,-0.422 0.878,-0.422l7.674,-0.478c0.515,-0.062 0.901,0.603 0.878,0.904Zm-0.879,-3.207c0,0 0.902,0.003 0.879,0.423c-0.026,0.465 -0.879,0.423 -0.879,0.423l-7.673,0.481c0,0 -0.826,0.046 -0.878,-0.904c-0.051,-0.928 0.878,-0.904 0.878,-0.904c2.558,0.16 5.116,0.321 7.673,0.481Zm-12.428,-9.592c-0.027,0.503 -0.46,1.037 -0.988,1.029c0,0 -1.483,-0.133 -2.928,-0.236l-0.06,0.709c-0.063,0.953 -0.088,1.256 -0.13,2.222c-0.045,1.072 -0.039,1.164 -0.053,2.216l0.001,0.134c1.712,-0.019 3.422,-0.141 5.124,-0.321l-0.018,-0.998l-0.025,-0.622c0.087,-0.651 0.7,-0.948 1.074,-0.929c0.373,0.019 0.975,0.355 0.906,1.101c-0.062,0.438 -0.123,0.876 -0.185,1.313l-0.249,1.818l-1.212,-0.071l-1.764,-0.092c-1.554,-0.072 -3.108,-0.145 -4.663,-0.158l0.001,-0.186c-0.005,-0.486 -0.006,-0.971 -0.014,-1.457c-0.037,-2.071 -0.13,-4.14 -0.229,-6.208c1.448,-0.089 4.412,-0.28 4.412,-0.28c0.625,-0.003 0.983,0.369 1,1.016Zm14.496,5.573c-0.054,0.943 -0.879,0.903 -0.879,0.903l-8.862,-0.48c0,0 -0.884,-0.079 -0.878,-0.423c0.007,-0.411 0.878,-0.423 0.878,-0.423l8.862,-0.481c0.61,-0.063 0.902,0.495 0.879,0.904Zm-15.457,0.035c-0.113,0.069 -0.139,0.095 -0.266,0.133c-0.29,0.087 -0.609,0.009 -0.83,-0.201c-0.098,-0.093 -0.109,-0.128 -0.18,-0.241c-0.062,-0.126 -0.121,-0.264 -0.18,-0.391c-0.086,-0.183 -0.174,-0.365 -0.262,-0.547c-0.163,-0.328 -0.33,-0.656 -0.519,-0.97c-0.132,-0.219 -0.278,-0.431 -0.431,-0.635l-0.041,-0.051c-0.201,-0.262 -0.227,-0.644 -0.07,-0.812c0.179,-0.19 0.435,-0.282 0.771,-0.056c0.086,0.057 0.17,0.113 0.253,0.173c0.227,0.168 0.437,0.355 0.637,0.555c0.08,0.079 0.16,0.158 0.234,0.243c0.117,0.134 0.23,0.272 0.341,0.413l0.043,0.056l0.014,0.018c0.088,-0.122 0.177,-0.243 0.268,-0.363c0.198,-0.257 0.399,-0.513 0.603,-0.766c0.1,-0.122 0.099,-0.121 0.2,-0.242c0.628,-0.734 1.281,-1.453 2,-2.095c0.471,-0.42 0.969,-0.805 1.469,-1.19c0.428,-0.33 1.061,-0.753 1.359,-0.901c0.377,-0.186 0.68,0.031 0.76,0.155c0.092,0.143 0.149,0.575 -0.154,0.782c-0.139,0.107 -0.278,0.214 -0.417,0.323c-0.133,0.107 -0.265,0.216 -0.397,0.325c-0.32,0.271 -0.634,0.548 -0.936,0.84c-0.617,0.595 -1.192,1.24 -1.725,1.916c-0.42,0.532 -0.817,1.085 -1.201,1.646c-0.313,0.455 -0.615,0.919 -0.933,1.37l-0.203,0.296l-0.095,0.118c-0.037,0.033 -0.075,0.066 -0.112,0.099Zm10.703,-3.239c0,0 0.883,0.029 0.878,0.423c-0.005,0.393 -0.559,0.374 -0.878,0.423c-0.978,0.15 -4.987,0.481 -4.987,0.481c0,0 -0.865,-0.031 -0.878,-0.904c-0.014,-0.924 0.878,-0.904 0.878,-0.904c1.662,0.161 3.325,0.321 4.987,0.481Zm3.064,-3.743l-0.002,0.016c-0.067,0.491 -0.128,1.016 -0.167,1.511c-0.019,0.231 -0.029,0.463 -0.043,0.694l0.007,0.001c0.824,0.089 1.651,0.123 2.479,0.135c0.057,0.001 0.114,0.001 0.171,0.002c-0.565,-0.526 -1.84,-1.715 -2.188,-2.083c-0.087,-0.092 -0.172,-0.183 -0.257,-0.276Z" style="fill:#cd0000;"></path>
    </g>
</svg>