<?xml version="1.0"?>

<svg width="100%" height="100%" viewBox="0 0 37 36" version="1.1" xmlns="http://www.w3.org/2000/svg" xmlns:xlink="http://www.w3.org/1999/xlink" xml:space="preserve" xmlns:serif="http://www.serif.com/" style="fill-rule:evenodd;clip-rule:evenodd;stroke-linecap:round;stroke-linejoin:round;stroke-miterlimit:1.585;">
    <g transform="matrix(1,0,0,1,-64,-130)">
        <g transform="matrix(1,0,0,1,619.885186,0)">
            <g id="medvedik" transform="matrix(3.65927,0,0,2.021086,6157.344377,-9340.394077)">
                <g id="_3-4-years" transform="matrix(0.141062,0,0,0.030304,-2076.132993,4522.476086)">
                    <g transform="matrix(0.34626,0,0,9.51284,1594.048474,-82204.178456)">
                        <g transform="matrix(1.126275,0,0,1.100738,-56.61486,-927.246961)">
                            <g>
                                <g transform="matrix(0.983853,0,0,0.314436,-6809.061722,3940.418608)">
                                    <circle cx="7334.306" cy="16788.206" r="21.317" style="fill:rgb(228,174,122);stroke:rgb(10,42,87);stroke-width:3.34px;"></circle>
                                </g>
                                <g transform="matrix(0.556156,0,0,0.177746,-3672.201146,6235.207926)">
                                    <circle cx="7334.306" cy="16788.206" r="21.317" style="fill:rgb(254,247,235);"></circle>
                                </g>
                            </g>
                            <g transform="matrix(-1,0,0,1,890.765441,0)">
                                <g transform="matrix(0.983853,0,0,0.314436,-6809.061722,3940.418608)">
                                    <circle cx="7334.306" cy="16788.206" r="21.317" style="fill:rgb(228,174,122);stroke:rgb(10,42,87);stroke-width:3.34px;"></circle>
                                </g>
                                <g transform="matrix(0.556156,0,0,0.177746,-3672.201146,6235.207926)">
                                    <circle cx="7334.306" cy="16788.206" r="21.317" style="fill:rgb(254,247,235);"></circle>
                                </g>
                            </g>
                        </g>
                        <g transform="matrix(0.94856,-0,0,0.273705,-6588.040096,4648.962931)">
                            <path d="M7368.768,16839.398C7368.768,16839.398 7363.297,16824.619 7363.297,16809.65C7363.297,16781.388 7397.18,16758.443 7414.504,16758.443C7431.828,16758.443 7465.711,16781.388 7465.711,16809.65C7465.711,16837.912 7442.766,16860.857 7414.504,16860.857C7405.525,16860.857 7397.082,16858.541 7389.742,16854.474L7370.013,16863.754L7368.768,16839.398Z" style="fill:rgb(228,174,122);stroke:rgb(10,42,87);stroke-width:4.05px;"></path>
                        </g>
                        <g transform="matrix(0.548188,0.103203,-0.573674,0.286761,6094.580707,3642.63991)">
                            <path d="M7322.541,16915.327C7321.815,16918.902 7323.014,16922.209 7322.858,16923.146C7320.745,16935.888 7314.736,16939.453 7304.676,16939.612C7287.789,16939.879 7281.374,16930.757 7282.692,16914.892C7283.997,16899.185 7299.265,16882.546 7304.676,16882.546C7310.612,16882.546 7315.98,16885.863 7319.818,16891.199" style="fill:rgb(228,174,122);stroke:rgb(10,42,87);stroke-width:4.15px;"></path>
                        </g>
                        <g transform="matrix(-0.548188,0.103203,0.573674,0.286761,-5204.454517,3642.63991)">
                            <path d="M7322.541,16915.327C7321.815,16918.902 7323.014,16922.209 7322.858,16923.146C7320.745,16935.888 7314.736,16939.453 7304.676,16939.612C7287.789,16939.879 7281.374,16930.757 7282.692,16914.892C7283.997,16899.185 7299.265,16882.546 7304.676,16882.546C7310.612,16882.546 7315.98,16885.863 7319.818,16891.199" style="fill:rgb(228,174,122);stroke:rgb(10,42,87);stroke-width:4.15px;"></path>
                        </g>
                        <g transform="matrix(1.004893,-0,0,0.288184,-7005.721447,4385.355078)">
                            <circle cx="7414.504" cy="16809.65" r="51.207" style="fill:rgb(228,174,122);stroke:rgb(10,42,87);stroke-width:3.75px;"></circle>
                        </g>
                        <g transform="matrix(0.810093,-0,0,0.207587,-5554.986477,5729.332389)">
                            <circle cx="7406.621" cy="16887.986" r="29.111" style="fill:rgb(254,247,235);"></circle>
                        </g>
                        <g transform="matrix(1.016014,0,0,0.992977,0.897147,67.604264)">
                            <g transform="matrix(0.277664,0,0,0.06779,-1619.383815,8085.492394)">
                                <path d="M7406.621,16863.223C7422.688,16863.223 7435.733,16865.516 7435.733,16881.583C7435.733,16897.65 7416.967,16917.097 7406.621,16917.097C7396.276,16917.097 7377.51,16897.65 7377.51,16881.583C7377.51,16865.516 7390.555,16863.223 7406.621,16863.223Z" style="fill:rgb(10,42,87);"></path>
                            </g>
                            <g transform="matrix(0.836366,0,0,0.256569,-5755.490511,4919.156582)">
                                <path d="M7390.742,16817.72C7394.292,16820.758 7397.871,16823.423 7404.243,16818.281" style="fill:none;stroke:rgb(10,42,87);stroke-width:3.4px;"></path>
                            </g>
                            <g transform="matrix(-0.836366,0,0,0.256569,6629.820972,4919.156582)">
                                <path d="M7390.742,16817.72C7394.292,16820.758 7397.871,16823.423 7404.243,16818.281L7404.243,16808.103" style="fill:none;stroke:rgb(10,42,87);stroke-width:3.4px;"></path>
                            </g>
                        </g>
                        <g transform="matrix(1.126275,0,0,1.100738,-56.929456,-928.05907)">
                            <g transform="matrix(1.117589,-0,0,0.41093,-7822.243793,2329.769312)">
                                <circle cx="7382.562" cy="16783.65" r="4.122" style="fill:rgb(10,42,87);"></circle>
                            </g>
                            <g transform="matrix(1.117589,-0,0,0.41093,-7787.671953,2329.769312)">
                                <circle cx="7382.562" cy="16783.65" r="4.122" style="fill:rgb(10,42,87);"></circle>
                            </g>
                        </g>
                        <g transform="matrix(1,0,0,1,-0.203531,0)">
                            <g transform="matrix(1,0,0,1,1.25902,0)">
                                <g transform="matrix(0.908915,-0.083629,0.24676,0.25238,-10419.856047,5600.85625)">
                                    <ellipse cx="7304.676" cy="16911.079" rx="21.117" ry="28.533" style="fill:rgb(228,174,122);stroke:rgb(10,42,87);stroke-width:4.12px;"></ellipse>
                                </g>
                                <g transform="matrix(0.5487,-0.050486,0.148966,0.152359,-6135.064254,7050.23075)">
                                    <ellipse cx="7304.676" cy="16911.079" rx="21.117" ry="28.533" style="fill:rgb(254,247,235);"></ellipse>
                                </g>
                            </g>
                            <g transform="matrix(-1,0,0,1,889.274233,0)">
                                <g transform="matrix(0.908915,-0.083629,0.24676,0.25238,-10419.856047,5600.85625)">
                                    <ellipse cx="7304.676" cy="16911.079" rx="21.117" ry="28.533" style="fill:rgb(228,174,122);stroke:rgb(10,42,87);stroke-width:4.12px;"></ellipse>
                                </g>
                                <g transform="matrix(0.5487,-0.050486,0.148966,0.152359,-6135.064254,7050.23075)">
                                    <ellipse cx="7304.676" cy="16911.079" rx="21.117" ry="28.533" style="fill:rgb(254,247,235);"></ellipse>
                                </g>
                            </g>
                        </g>
                    </g>
                    <g transform="matrix(2.084763,0,0,17.570044,-8803.376906,-222292.94314)">
                        <rect x="5044.791" y="12958.902" width="32.945" height="32.945" style="fill:none;"></rect>
                    </g>
                </g>
                <g transform="matrix(1.131374,0,0,1.131374,231.144313,-616.905463)">
                    <g transform="matrix(1,0,0,1,0.00568,0)">
                        <g transform="matrix(0.40499,0,0,0.667137,-1912.295111,4311.766766)">
                            <path d="M223.634,576.04C223.802,576.224 223.802,577.422 223.634,577.607C223.438,577.824 223.132,578.029 222.917,578.183C222.598,578.413 222.182,578.547 221.839,578.579C221,578.659 221.08,577.798 221.08,576.882L221.08,576.823L221.08,576.764C221.08,575.848 221,574.987 221.839,575.067C222.182,575.099 222.598,575.233 222.917,575.463C223.132,575.618 223.438,575.822 223.634,576.04Z" style="fill:rgb(80,204,214);stroke:rgb(10,42,87);stroke-width:0.42px;stroke-miterlimit:1.414;"></path>
                        </g>
                        <g transform="matrix(0.316003,0,0,0.494784,-1891.331644,4411.428549)">
                            <path d="M220.432,576.329L218.982,576.329" style="fill:none;stroke:rgb(0,92,117);stroke-width:0.33px;stroke-miterlimit:1.414;"></path>
                        </g>
                    </g>
                    <g transform="matrix(-1,0,0,1,-3642.796995,0)">
                        <g transform="matrix(0.40499,0,0,0.667137,-1912.295111,4311.766766)">
                            <path d="M223.634,576.04C223.802,576.224 223.802,577.422 223.634,577.607C223.438,577.824 223.132,578.029 222.917,578.183C222.598,578.413 222.182,578.547 221.839,578.579C221,578.659 221.08,577.798 221.08,576.882L221.08,576.823L221.08,576.764C221.08,575.848 221,574.987 221.839,575.067C222.182,575.099 222.598,575.233 222.917,575.463C223.132,575.618 223.438,575.822 223.634,576.04Z" style="fill:rgb(80,204,214);stroke:rgb(10,42,87);stroke-width:0.42px;stroke-miterlimit:1.414;"></path>
                        </g>
                        <g transform="matrix(0.316003,0,0,0.494784,-1891.331644,4411.428549)">
                            <path d="M220.432,576.329L218.982,576.329" style="fill:none;stroke:rgb(0,92,117);stroke-width:0.33px;stroke-miterlimit:1.414;"></path>
                        </g>
                    </g>
                    <g transform="matrix(0.273279,0,0,0.494784,-1882.118541,4411.154919)">
                        <ellipse cx="222.201" cy="576.882" rx="1.547" ry="1.66" style="fill:rgb(80,204,214);stroke:rgb(10,42,87);stroke-width:0.59px;stroke-miterlimit:1.414;"></ellipse>
                    </g>
                </g>
            </g>
        </g>
    </g>
</svg>