<?xml version="1.0"?>

<svg width="100%" height="100%" viewBox="0 0 35 35" version="1.1" xmlns="http://www.w3.org/2000/svg" xmlns:xlink="http://www.w3.org/1999/xlink" xml:space="preserve" xmlns:serif="http://www.serif.com/" style="fill-rule:evenodd;clip-rule:evenodd;stroke-linecap:round;stroke-linejoin:round;stroke-miterlimit:1.58537;">
    <g transform="matrix(1,0,0,1,-2109,-14794)">
        <g transform="matrix(0.96578,0,0,0.140572,439.011,14026.1)">
            <g id="_4-5-years" transform="matrix(0.516678,0,0,0.421196,800.746,3194.18)">
                <g transform="matrix(0.336393,2.5725e-46,0,9.24177,1820.6,-79705.4)">
                    <g transform="matrix(1,0,0,1,-661.887,1.16727)">
                        <g transform="matrix(0.990525,0,0,0.268912,-6919.89,4709.79)">
                            <path d="M7658.02,16782.6L7658.02,16938.1C7658.02,16940.6 7656.32,16942.5 7654.24,16942.5L7624.07,16942.5C7621.98,16942.5 7620.29,16940.6 7620.29,16938.1L7620.29,16782.6L7658.02,16782.6Z" style="fill:rgb(247,79,48);stroke:black;stroke-width:5.93px;"></path>
                        </g>
                        <g transform="matrix(0.836366,0,0,0.222987,-5743.44,5480.7)">
                            <path d="M7618.23,16781.8L7640.57,16728.9L7662.91,16781.8L7618.23,16781.8Z" style="fill:rgb(247,79,48);stroke:black;stroke-width:7.08px;"></path>
                        </g>
                        <g transform="matrix(0.836366,0,0,0.256569,-5743.44,4918.91)">
                            <path d="M7662.91,16802.3L7618.23,16802.3" style="fill:none;stroke:black;stroke-width:6.63px;"></path>
                        </g>
                        <g transform="matrix(0.836366,0,0,0.256569,-5743.44,4944.76)">
                            <path d="M7662.91,16802.3L7618.23,16802.3" style="fill:none;stroke:black;stroke-width:6.63px;"></path>
                        </g>
                        <g transform="matrix(0.836366,0,0,0.256569,-5743.95,4949.89)">
                            <path d="M7662.91,16802.3L7618.23,16802.3" style="fill:none;stroke:black;stroke-width:6.63px;"></path>
                        </g>
                    </g>
                    <g transform="matrix(1,0,0,1,-614.288,1.16727)">
                        <g transform="matrix(0.990525,0,0,0.268912,-6919.89,4709.79)">
                            <path d="M7658.02,16782.6L7658.02,16938.1C7658.02,16940.6 7656.32,16942.5 7654.24,16942.5L7624.07,16942.5C7621.98,16942.5 7620.29,16940.6 7620.29,16938.1L7620.29,16782.6L7658.02,16782.6Z" style="fill:rgb(0,170,237);stroke:black;stroke-width:5.93px;"></path>
                        </g>
                        <g transform="matrix(0.836366,0,0,0.222987,-5743.44,5480.7)">
                            <path d="M7618.23,16781.8L7640.57,16728.9L7662.91,16781.8L7618.23,16781.8Z" style="fill:rgb(0,170,237);stroke:black;stroke-width:7.08px;"></path>
                        </g>
                        <g transform="matrix(0.836366,0,0,0.256569,-5743.44,4918.91)">
                            <path d="M7662.91,16802.3L7618.23,16802.3" style="fill:none;stroke:black;stroke-width:6.63px;"></path>
                        </g>
                        <g transform="matrix(0.836366,0,0,0.256569,-5743.44,4944.76)">
                            <path d="M7662.91,16802.3L7618.23,16802.3" style="fill:none;stroke:black;stroke-width:6.63px;"></path>
                        </g>
                        <g transform="matrix(0.836366,0,0,0.256569,-5743.95,4949.89)">
                            <path d="M7662.91,16802.3L7618.23,16802.3" style="fill:none;stroke:black;stroke-width:6.63px;"></path>
                        </g>
                    </g>
                    <g transform="matrix(1,0,0,1,-566.689,1.16727)">
                        <g transform="matrix(0.990525,0,0,0.268912,-6919.89,4709.79)">
                            <path d="M7658.02,16782.6L7658.02,16938.1C7658.02,16940.6 7656.32,16942.5 7654.24,16942.5L7624.07,16942.5C7621.98,16942.5 7620.29,16940.6 7620.29,16938.1L7620.29,16782.6L7658.02,16782.6Z" style="fill:rgb(255,174,13);stroke:black;stroke-width:5.93px;"></path>
                        </g>
                        <g transform="matrix(0.836366,0,0,0.222987,-5743.44,5480.7)">
                            <path d="M7618.23,16781.8L7640.57,16728.9L7662.91,16781.8L7618.23,16781.8Z" style="fill:rgb(255,174,13);stroke:black;stroke-width:7.08px;"></path>
                        </g>
                        <g transform="matrix(0.836366,0,0,0.256569,-5743.44,4918.91)">
                            <path d="M7662.91,16802.3L7618.23,16802.3" style="fill:none;stroke:black;stroke-width:6.63px;"></path>
                        </g>
                        <g transform="matrix(0.836366,0,0,0.256569,-5743.44,4944.76)">
                            <path d="M7662.91,16802.3L7618.23,16802.3" style="fill:none;stroke:black;stroke-width:6.63px;"></path>
                        </g>
                        <g transform="matrix(0.836366,0,0,0.256569,-5743.95,4949.89)">
                            <path d="M7662.91,16802.3L7618.23,16802.3" style="fill:none;stroke:black;stroke-width:6.63px;"></path>
                        </g>
                    </g>
                </g>
                <g transform="matrix(2.08476,0,0,17.57,-8720.06,-222293)">
                    <rect x="5044.79" y="12958.9" width="32.945" height="32.945" style="fill:none;"></rect>
                </g>
            </g>
        </g>
    </g>
</svg>