<?xml version="1.0"?>

<svg width="100%" height="100%" viewBox="0 0 36 31" version="1.1" xmlns="http://www.w3.org/2000/svg" xmlns:xlink="http://www.w3.org/1999/xlink" xml:space="preserve" xmlns:serif="http://www.serif.com/" style="fill-rule:evenodd;clip-rule:evenodd;stroke-linecap:round;stroke-linejoin:round;stroke-miterlimit:1.585;">
    <g transform="matrix(1,0,0,1,-147,-132)">
        <g transform="matrix(1,0,0,1,619.885186,0)">
            <g id="kniha" transform="matrix(3.65927,0,0,2.021086,6095.332495,-9340.518879)">
                <g transform="matrix(0.045129,0,0,0.081709,-2150.947293,3317.734288)">
                    <path d="M7995.602,16936.043C7981.597,16936.035 7977.388,16926.104 7974.487,16924.067C7970.175,16921.039 7956.991,16917.118 7939.819,16916.703C7922.716,16916.289 7908.217,16916.548 7898.716,16916.548C7895.637,16916.548 7894.334,16915.935 7893.215,16914.816C7891.452,16913.052 7891.854,16909.607 7891.854,16909.607L7891.854,16791.99C7891.854,16791.99 7891.583,16787.845 7893.933,16785.494C7896.056,16783.372 7899.585,16783.415 7899.585,16783.415L7974.964,16783.415L7995.602,16796.793L8016.239,16783.415L8091.619,16783.415C8091.619,16783.415 8095.148,16783.372 8097.27,16785.494C8099.621,16787.845 8099.349,16791.99 8099.349,16791.99L8099.349,16909.607C8099.349,16909.607 8099.752,16913.052 8097.988,16914.816C8096.869,16915.935 8095.566,16916.548 8092.488,16916.548C8082.986,16916.548 8068.487,16916.289 8051.384,16916.703C8034.213,16917.118 8020.658,16920.126 8016.716,16924.067C8014.36,16926.424 8009.606,16936.035 7995.602,16936.043Z" style="fill:rgb(153,194,85);stroke:rgb(10,42,87);stroke-width:6.45px;"></path>
                </g>
                <g transform="matrix(1,0,0,1,4.341674,1.137523)">
                    <g>
                        <g transform="matrix(0.045484,0,0,0.087302,-2158.059364,3222.576529)">
                            <path d="M7995.621,16790.772L7995.621,16911.659C7970.129,16894.852 7943.897,16888.958 7916.963,16893.415C7914.112,16893.887 7911.931,16893.157 7910.307,16892.064C7908.334,16890.736 7908.387,16888.306 7908.387,16888.306L7908.387,16778.727C7908.387,16778.727 7908.102,16775.262 7909.632,16772.972C7910.999,16770.928 7913.572,16769.612 7916.143,16769.151C7944.469,16764.073 7970.999,16771.033 7995.621,16790.772Z" style="fill:white;stroke:rgb(10,42,87);stroke-width:6.45px;"></path>
                        </g>
                        <g>
                            <g transform="matrix(0.273279,0,0,0.494784,-1886.27496,4411.296591)">
                                <path d="M332.642,574.545C330.482,573.298 328.065,572.821 325.346,573.25" style="fill:none;stroke:rgb(117,140,168);stroke-width:0.67px;stroke-miterlimit:1.414;"></path>
                            </g>
                            <g transform="matrix(0.273279,0,0,0.494784,-1886.27496,4408.902496)">
                                <path d="M332.642,574.545C330.482,573.298 328.065,572.821 325.346,573.25" style="fill:none;stroke:rgb(117,140,168);stroke-width:0.67px;stroke-miterlimit:1.414;"></path>
                            </g>
                            <g transform="matrix(0.273279,0,0,0.494784,-1886.27496,4406.508401)">
                                <path d="M332.642,574.545C330.482,573.298 328.065,572.821 325.346,573.25" style="fill:none;stroke:rgb(117,140,168);stroke-width:0.67px;stroke-miterlimit:1.414;"></path>
                            </g>
                        </g>
                    </g>
                    <g transform="matrix(-1,0,0,1,-3588.767016,0)">
                        <g transform="matrix(0.045484,0,0,0.087302,-2158.059364,3222.576529)">
                            <path d="M7995.621,16790.772L7995.621,16911.659C7970.129,16894.852 7943.897,16888.958 7916.963,16893.415C7914.112,16893.887 7911.931,16893.157 7910.307,16892.064C7908.334,16890.736 7908.387,16888.306 7908.387,16888.306L7908.387,16778.727C7908.387,16778.727 7908.102,16775.262 7909.632,16772.972C7910.999,16770.928 7913.572,16769.612 7916.143,16769.151C7944.469,16764.073 7970.999,16771.033 7995.621,16790.772Z" style="fill:white;stroke:rgb(10,42,87);stroke-width:6.45px;"></path>
                        </g>
                        <g>
                            <g transform="matrix(0.273279,0,0,0.494784,-1886.27496,4411.296591)">
                                <path d="M332.642,574.545C330.482,573.298 328.065,572.821 325.346,573.25" style="fill:none;stroke:rgb(117,140,168);stroke-width:0.67px;stroke-miterlimit:1.414;"></path>
                            </g>
                            <g transform="matrix(0.273279,0,0,0.494784,-1886.27496,4408.902496)">
                                <path d="M332.642,574.545C330.482,573.298 328.065,572.821 325.346,573.25" style="fill:none;stroke:rgb(117,140,168);stroke-width:0.67px;stroke-miterlimit:1.414;"></path>
                            </g>
                            <g transform="matrix(0.273279,0,0,0.494784,-1886.27496,4406.508401)">
                                <path d="M332.642,574.545C330.482,573.298 328.065,572.821 325.346,573.25" style="fill:none;stroke:rgb(117,140,168);stroke-width:0.67px;stroke-miterlimit:1.414;"></path>
                            </g>
                        </g>
                    </g>
                </g>
            </g>
        </g>
    </g>
</svg>