<?xml version="1.0"?>

<svg width="100%" height="100%" viewBox="0 0 27 34" version="1.1" xmlns="http://www.w3.org/2000/svg" xmlns:xlink="http://www.w3.org/1999/xlink" xml:space="preserve" xmlns:serif="http://www.serif.com/" style="fill-rule:evenodd;clip-rule:evenodd;stroke-linecap:round;stroke-linejoin:round;stroke-miterlimit:1.414;">
    <g transform="matrix(1,0,0,1,-105,-131)">
        <g transform="matrix(1,0,0,1,619.885186,0)">
            <g id="pastelky" transform="matrix(3.65927,0,0,2.021086,6107.006252,-9338.570324)">
                <g>
                    <g transform="matrix(0.279875,0,0,0.491312,-1883.712988,4413.301956)">
                        <path d="M271.685,560.954L271.685,586.03C271.685,586.766 271.105,587.364 270.392,587.364L266.513,587.364C265.799,587.364 265.22,586.766 265.22,586.03L265.22,560.954L271.685,560.954Z" style="fill:rgb(251,120,110);stroke:rgb(10,42,87);stroke-width:0.66px;"></path>
                    </g>
                    <g transform="matrix(0.253407,0,0,0.42671,-1868.961993,4449.939453)">
                        <ellipse cx="238.282" cy="574.306" rx="2.096" ry="5.677" style="fill:rgb(251,120,110);stroke:rgb(10,42,87);stroke-width:0.74px;"></ellipse>
                    </g>
                    <g transform="matrix(0.273279,0,0,0.494784,-1881.913884,4411.428549)">
                        <path d="M271.611,563.875L265.088,563.875" style="fill:none;stroke:rgb(10,42,87);stroke-width:0.67px;"></path>
                    </g>
                    <g transform="matrix(0.273279,0,0,0.494784,-1881.913884,4420.363998)">
                        <path d="M271.611,563.875L265.088,563.875" style="fill:none;stroke:rgb(10,42,87);stroke-width:0.67px;"></path>
                    </g>
                    <g transform="matrix(0.273279,0,0,0.494784,-1881.913884,4421.711856)">
                        <path d="M271.611,563.875L265.088,563.875" style="fill:none;stroke:rgb(10,42,87);stroke-width:0.67px;"></path>
                    </g>
                    <g transform="matrix(0.317145,0,0,0.580646,-1893.747437,4364.161259)">
                        <path d="M268.544,553.972C268.931,553.972 269.141,554.433 269.141,554.433C269.141,554.433 270.397,557.674 270.766,558.482C270.903,558.783 271.355,559.28 271.355,559.28L265.734,559.28C265.734,559.28 266.186,558.783 266.323,558.482C266.692,557.674 267.948,554.433 267.948,554.433C267.948,554.433 268.158,553.972 268.544,553.972Z" style="fill:rgb(251,120,110);stroke:rgb(10,42,87);stroke-width:0.57px;"></path>
                    </g>
                </g>
                <g transform="matrix(1,0,0,1,2.619233,0)">
                    <g transform="matrix(0.279875,0,0,0.491312,-1883.712988,4413.301956)">
                        <path d="M271.685,560.954L271.685,586.03C271.685,586.766 271.105,587.364 270.392,587.364L266.513,587.364C265.799,587.364 265.22,586.766 265.22,586.03L265.22,560.954L271.685,560.954Z" style="fill:rgb(71,194,207);stroke:rgb(10,42,87);stroke-width:0.66px;"></path>
                    </g>
                    <g transform="matrix(0.253407,0,0,0.42671,-1868.961993,4449.939453)">
                        <ellipse cx="238.282" cy="574.306" rx="2.096" ry="5.677" style="fill:rgb(71,194,207);stroke:rgb(10,42,87);stroke-width:0.74px;"></ellipse>
                    </g>
                    <g transform="matrix(0.273279,0,0,0.494784,-1881.913884,4411.428549)">
                        <path d="M271.611,563.875L265.088,563.875" style="fill:none;stroke:rgb(10,42,87);stroke-width:0.67px;"></path>
                    </g>
                    <g transform="matrix(0.273279,0,0,0.494784,-1881.913884,4420.363998)">
                        <path d="M271.611,563.875L265.088,563.875" style="fill:none;stroke:rgb(10,42,87);stroke-width:0.67px;"></path>
                    </g>
                    <g transform="matrix(0.273279,0,0,0.494784,-1881.913884,4421.711856)">
                        <path d="M271.611,563.875L265.088,563.875" style="fill:none;stroke:rgb(10,42,87);stroke-width:0.67px;"></path>
                    </g>
                    <g transform="matrix(0.317145,0,0,0.580646,-1893.747437,4364.161259)">
                        <path d="M268.544,553.972C268.931,553.972 269.141,554.433 269.141,554.433C269.141,554.433 270.397,557.674 270.766,558.482C270.903,558.783 271.355,559.28 271.355,559.28L265.734,559.28C265.734,559.28 266.186,558.783 266.323,558.482C266.692,557.674 267.948,554.433 267.948,554.433C267.948,554.433 268.158,553.972 268.544,553.972Z" style="fill:rgb(71,194,207);stroke:rgb(10,42,87);stroke-width:0.57px;"></path>
                    </g>
                </g>
                <g transform="matrix(1,0,0,1,5.238466,0)">
                    <g transform="matrix(0.279875,0,0,0.491312,-1883.712988,4413.301956)">
                        <path d="M271.685,560.954L271.685,586.03C271.685,586.766 271.105,587.364 270.392,587.364L266.513,587.364C265.799,587.364 265.22,586.766 265.22,586.03L265.22,560.954L271.685,560.954Z" style="fill:rgb(253,211,94);stroke:rgb(10,42,87);stroke-width:0.66px;"></path>
                    </g>
                    <g transform="matrix(0.253407,0,0,0.42671,-1868.961993,4449.939453)">
                        <ellipse cx="238.282" cy="574.306" rx="2.096" ry="5.677" style="fill:rgb(253,211,94);stroke:rgb(10,42,87);stroke-width:0.74px;"></ellipse>
                    </g>
                    <g transform="matrix(0.273279,0,0,0.494784,-1881.913884,4411.428549)">
                        <path d="M271.611,563.875L265.088,563.875" style="fill:none;stroke:rgb(10,42,87);stroke-width:0.67px;"></path>
                    </g>
                    <g transform="matrix(0.273279,0,0,0.494784,-1881.913884,4420.363998)">
                        <path d="M271.611,563.875L265.088,563.875" style="fill:none;stroke:rgb(10,42,87);stroke-width:0.67px;"></path>
                    </g>
                    <g transform="matrix(0.273279,0,0,0.494784,-1881.913884,4421.711856)">
                        <path d="M271.611,563.875L265.088,563.875" style="fill:none;stroke:rgb(10,42,87);stroke-width:0.67px;"></path>
                    </g>
                    <g transform="matrix(0.317145,0,0,0.580646,-1893.747437,4364.161259)">
                        <path d="M268.544,553.972C268.931,553.972 269.141,554.433 269.141,554.433C269.141,554.433 270.397,557.674 270.766,558.482C270.903,558.783 271.355,559.28 271.355,559.28L265.734,559.28C265.734,559.28 266.186,558.783 266.323,558.482C266.692,557.674 267.948,554.433 267.948,554.433C267.948,554.433 268.158,553.972 268.544,553.972Z" style="fill:rgb(253,211,94);stroke:rgb(10,42,87);stroke-width:0.57px;"></path>
                    </g>
                </g>
            </g>
        </g>
    </g>
</svg>