<?xml version="1.0"?>

<svg width="100%" height="100%" viewBox="0 0 235 102" version="1.1" xmlns="http://www.w3.org/2000/svg" xmlns:xlink="http://www.w3.org/1999/xlink" xml:space="preserve" xmlns:serif="http://www.serif.com/" style="fill-rule:evenodd;clip-rule:evenodd;stroke-linejoin:round;stroke-miterlimit:2;">
    <g transform="matrix(1,0,0,1,-8,-37)">
        <g>
            <path d="M41.149,55.423C40.579,56.888 40.009,58.354 39.376,59.756C37.224,65.108 37.224,65.108 35.071,69.632L30.64,79.063C27.791,79.891 24.182,81.166 23.359,81.612C23.486,83.523 23.866,84.415 24.626,85.052C25.765,86.008 26.145,86.645 26.145,87.601C26.145,88.939 24.752,91.998 22.22,96.267C19.751,100.282 18.358,102.703 17.978,103.34L24.626,103.085C26.968,100.154 33.235,89.704 35.768,84.734C39.376,83.906 49.252,82.376 54.76,81.803C56.786,86.327 61.787,95.184 63.75,97.669C66.472,97.287 74.069,94.738 77.741,93.017L77.488,91.998L75.842,91.998C74.196,91.998 73.119,91.934 70.84,91.552C67.675,86.709 67.232,85.945 64.193,80.656C65.206,80.528 68.814,80.082 75.019,79.445L77.614,77.342L77.551,76.514L75.968,76.514C74.639,76.514 63.433,76.705 62.23,76.769C59.508,71.671 55.267,62.559 52.165,55.295L41.149,55.423ZM46.593,63.324L52.734,77.279C49.949,77.406 42.352,77.98 39.376,78.298L46.593,63.324Z" style="fill:rgb(46,61,107);fill-rule:nonzero;"></path>
            <path d="M89.901,90.701C88.747,91.239 88.129,91.405 87.347,91.405C86.729,91.405 86.317,91.239 86.152,90.908C85.823,90.286 85.576,87.052 85.576,82.907L85.823,77.103C85.905,76.108 86.029,75.403 86.194,75.072C86.4,74.616 86.729,74.367 87.718,73.911C87.182,72.501 86.976,71.589 86.976,70.346C86.976,68.107 87.635,66.034 88.665,64.873L88.335,64.21L82.816,65.827C81.375,70.055 80.716,75.237 80.716,82.575C80.716,87.26 81.004,90.742 81.828,95.675C82.281,95.965 82.363,95.965 82.899,96.09C85.082,95.012 88.294,93.146 89.901,92.069L89.901,90.701Z" style="fill:rgb(46,61,107);fill-rule:nonzero;"></path>
            <path d="M100.445,100.401C98.344,97.997 98.056,96.297 98.056,86.057L98.056,80.461C98.262,80.502 98.385,80.502 98.385,80.502C102.257,80.295 102.257,80.295 102.669,80.046C103.534,79.466 104.646,77.974 105.223,76.605C103.122,76.813 101.886,76.896 101.227,76.896L98.056,76.937C98.262,71.548 98.632,69.06 99.374,67.319C100.609,67.61 102.504,68.397 103.163,68.895L105.058,64.832C103.369,63.671 102.133,63.257 100.445,63.257C99.744,63.257 99.25,63.34 98.756,63.547C97.685,64.003 96.367,65.495 95.502,67.153C94.019,70.055 93.36,72.792 93.031,77.144C92.125,77.144 91.177,77.144 90.23,77.103L90.024,80.585C90.683,80.502 91.013,80.502 91.342,80.502C92.495,80.502 93.072,81.041 93.072,82.119C93.154,92.649 93.36,96.587 93.896,99.448C94.102,100.111 94.678,101.23 95.337,102.142L100.445,100.401Z" style="fill:rgb(46,61,107);fill-rule:nonzero;"></path>
            <path d="M112.916,81.484L107.155,84.861C108.675,86.837 109.498,87.538 113.043,90.214L112.283,104.232C115.702,102.894 116.208,102.703 119.31,101.301C120.133,97.86 120.26,97.35 120.767,93.91C124.628,95.184 126.781,95.566 129.883,95.566C139.822,95.566 146.406,91.17 146.406,84.543C146.406,79.891 143.937,77.024 138.873,75.941C141.975,74.73 143.747,73.71 145.203,72.436C147.546,70.269 148.875,67.402 148.875,64.407C148.875,61.476 147.609,58.927 145.077,56.888C141.595,54.148 135.644,52.747 126.971,52.747C125.705,52.747 124.755,52.747 121.843,52.874L121.843,48.605C121.21,48.796 120.767,48.923 120.64,48.987L115.765,50.58L112.916,51.408L112.916,53.384C107.725,54.594 106.965,54.786 101.648,56.251L99.368,63.643C104.876,60.966 108.611,59.756 112.916,59.246L112.916,81.484ZM121.653,58.418C123.046,58.29 123.615,58.29 124.818,58.29C129.06,58.29 132.035,58.736 133.998,59.628C137.416,61.221 139.252,63.77 139.252,66.765C139.252,70.716 135.707,73.774 131.149,73.774C130.009,73.774 129.376,73.647 127.034,72.946L125.768,76.578L126.464,79.764C128.553,79.127 129.883,78.872 131.402,78.872C134.758,78.872 136.847,80.974 136.847,84.352C136.847,88.047 133.555,90.787 129.186,90.787C126.338,90.787 124.122,90.086 121.653,88.366L121.653,58.418Z" style="fill:rgb(46,61,107);fill-rule:nonzero;"></path>
            <path d="M163.373,75.24C162.613,75.192 162.281,75.144 161.758,75.144C156.488,75.144 152.452,79.636 152.452,85.514C152.452,91.393 156.725,95.311 163.135,95.311C170.068,95.311 175.101,91.44 175.101,86.088L175.101,85.228C176.24,85.61 176.383,85.658 177.522,85.945C178.899,85.228 179.089,85.084 180.323,84.081C178.662,83.507 176.43,82.36 174.816,81.213C174.056,78.633 172.442,76.1 170.542,74.571C169.498,73.663 167.741,73.089 166.032,73.089C165.889,73.089 165.557,73.089 165.177,73.137C164.702,73.663 164.56,73.997 164.085,75.24C163.99,77.772 166.364,81.022 169.07,82.169C169.688,83.268 169.925,84.272 169.925,85.419C169.925,88.621 167.266,91.154 163.943,91.154C160.334,91.154 157.912,88.764 157.912,85.18C157.912,82.408 159.574,80.305 161.758,80.305C161.948,80.305 162.186,80.305 162.471,80.353L163.373,75.24Z" style="fill:rgb(46,61,107);fill-rule:nonzero;"></path>
            <path d="M191.719,75.24C190.959,75.192 190.627,75.144 190.104,75.144C184.834,75.144 180.798,79.636 180.798,85.514C180.798,91.393 185.072,95.311 191.481,95.311C198.414,95.311 203.447,91.44 203.447,86.088L203.447,85.228C204.586,85.61 204.729,85.658 205.868,85.945C207.245,85.228 207.435,85.084 208.67,84.081C207.008,83.507 204.776,82.36 203.162,81.213C202.402,78.633 200.788,76.1 198.888,74.571C197.844,73.663 196.087,73.089 194.378,73.089C194.235,73.089 193.903,73.089 193.523,73.137C193.048,73.663 192.906,73.997 192.431,75.24C192.336,77.772 194.71,81.022 197.417,82.169C198.034,83.268 198.271,84.272 198.271,85.419C198.271,88.621 195.612,91.154 192.289,91.154C188.68,91.154 186.259,88.764 186.259,85.18C186.259,82.408 187.92,80.305 190.104,80.305C190.294,80.305 190.532,80.305 190.817,80.353L191.719,75.24Z" style="fill:rgb(46,61,107);fill-rule:nonzero;"></path>
            <path d="M210.949,96.411C213.94,95.455 215.174,95.12 216.361,94.834L216.456,88.573C218.023,87.139 218.118,87.044 219.685,85.658C224.481,91.01 230.131,95.694 231.84,95.694C233.027,95.694 235.971,94.642 237.775,93.591C232.837,90.485 230.273,88.191 224.528,81.596L225.098,81.261C228.279,78.872 229.324,78.059 230.511,77.199C231.555,76.434 231.983,76.148 233.265,75.24L233.265,74.666L233.217,73.519C233.17,72.898 233.17,72.229 233.17,71.56L233.17,69.17C232.078,69.887 231.793,70.078 226.902,73.854C223.436,76.482 221.11,78.346 219.828,79.397C218.641,80.353 217.501,81.309 216.361,82.265L216.504,71.894C216.979,71.273 217.169,71.177 218.166,70.7C217.216,68.023 216.741,65.443 216.741,63.101C216.741,62.241 216.789,61.476 216.979,60.377L216.504,59.851L210.806,62.48L210.949,96.411Z" style="fill:rgb(46,61,107);fill-rule:nonzero;"></path>
            <path d="M126.49,106.804L130.123,106.696L193.366,106.911L240.892,107.106L241.504,107.108L242.73,108.244L241.574,109.45L240.962,109.488L193.462,112.488L130.133,116.438L126.492,116.546L120.245,116.364L68.852,113.17L10.572,109.488L9.966,109.45L8.829,108.245L10.034,107.108L10.642,107.105L68.942,106.822L120.259,106.622L126.49,106.804Z" style="fill:rgb(201,0,0);"></path>
            <path d="M130.128,37.084L193.419,39.384L240.931,41.146L241.543,41.169L242.731,42.344L241.535,43.512L240.923,43.53L193.408,44.962L130.127,46.822L126.491,46.809L120.252,46.831L68.902,45.312L10.611,43.53L10.004,43.512L8.829,42.344L9.996,41.169L10.603,41.146L68.891,38.964L120.251,37.093L126.491,37.071L130.128,37.084Z" style="fill:rgb(201,0,0);"></path>
            <path d="M111.307,115.16L111.245,115.17L107.673,115.828L104.966,116.475L103.624,116.869L102.379,117.308L100.674,118.008L98.71,118.863L96.579,119.832L94.371,120.871L92.175,121.937L90.083,122.986L88.184,123.976L86.568,124.863L85.417,125.579L84.199,126.434L81.832,128.273L79.286,130.438L76.017,123.587L79.302,122.97L82.22,122.288L83.652,121.879L84.933,121.435L86.638,120.737L88.602,119.883L90.734,118.917L92.944,117.881L95.141,116.818L97.235,115.771L99.135,114.783L100.751,113.897L101.876,113.206L103.027,112.411L105.232,110.713L107.991,108.351L108.038,108.309L111.307,115.16Z" style="fill:rgb(199,0,0);"></path>
            <path d="M80.548,120.278C80.548,118.797 79.346,117.594 77.865,117.594L72.498,117.594C71.017,117.594 69.814,118.797 69.814,120.278L69.814,135.806C69.814,137.287 71.017,138.489 72.498,138.489L77.865,138.489C79.346,138.489 80.548,137.287 80.548,135.806L80.548,120.278Z" style="fill:rgb(199,0,0);"></path>
            <path d="M143.548,108.351L146.307,110.713L148.512,112.411L149.663,113.206L150.788,113.897L152.404,114.783L154.304,115.771L156.398,116.818L158.595,117.881L160.805,118.917L162.937,119.883L164.901,120.737L166.606,121.435L167.887,121.879L169.319,122.288L172.237,122.97L175.522,123.587L172.253,130.438L169.707,128.273L167.34,126.434L166.122,125.579L164.971,124.863L163.355,123.976L161.456,122.986L159.364,121.937L157.168,120.871L154.96,119.832L152.829,118.863L150.865,118.008L149.16,117.308L147.915,116.869L146.573,116.475L143.866,115.828L140.294,115.17L140.232,115.16L143.501,108.309L143.548,108.351Z" style="fill:rgb(199,0,0);"></path>
            <path d="M170.991,120.278C170.991,118.797 172.193,117.594 173.674,117.594L179.041,117.594C180.522,117.594 181.725,118.797 181.725,120.278L181.725,135.806C181.725,137.287 180.522,138.489 179.041,138.489L173.674,138.489C172.193,138.489 170.991,137.287 170.991,135.806L170.991,120.278Z" style="fill:rgb(199,0,0);"></path>
        </g>
    </g>
</svg>