<?xml version="1.0"?>

<svg width="100%" height="100%" viewBox="0 0 294 169" version="1.1" xmlns="http://www.w3.org/2000/svg" xmlns:xlink="http://www.w3.org/1999/xlink" xml:space="preserve" xmlns:serif="http://www.serif.com/" style="fill-rule:evenodd;clip-rule:evenodd;stroke-linejoin:round;stroke-miterlimit:2;">
    <g transform="matrix(1,0,0,1,-2235.89,-619.872)">
        <g transform="matrix(1,0,0,7.295,1663.58,0)">
            <g id="svgid_alffamily" transform="matrix(3.05333,-1.94311e-17,6.37874e-16,0.235435,-9856.29,54.9078)">
                <g transform="matrix(0.0451253,-1.46012e-33,1.64264e-33,0.0802228,3353.33,59.17)">
                    <g transform="matrix(19.7429,3.59336e-31,-7.18672e-31,19.7429,-121048,-4072.49)">
                        <path d="M6206.05,287.475L6204.57,291.379C6204.52,291.525 6204.38,291.621 6204.22,291.621L6201.39,291.621C6201.27,291.621 6201.15,291.561 6201.08,291.46C6201.01,291.358 6200.99,291.229 6201.04,291.114L6209.38,269.041C6209.43,268.894 6209.57,268.797 6209.73,268.798C6209.89,268.799 6210.03,268.897 6210.08,269.045L6218.14,291.118C6218.18,291.233 6218.16,291.361 6218.09,291.461C6218.02,291.562 6217.91,291.621 6217.79,291.621L6214.91,291.621C6214.76,291.621 6214.61,291.525 6214.56,291.379L6213.08,287.475L6206.05,287.475ZM6209.69,277.716L6209.62,277.69C6209.61,277.699 6209.6,277.711 6209.59,277.724C6209.55,277.782 6209.51,277.86 6209.48,277.957L6207.97,282.081C6207.62,283.022 6207.44,283.609 6207.44,283.85C6207.44,283.904 6207.44,283.95 6207.47,283.983C6207.54,284.062 6207.66,284.068 6207.84,284.068L6210.79,284.068L6211.09,284.038C6211.41,284.038 6211.62,284.036 6211.7,284.004C6211.7,284.002 6211.71,284.001 6211.71,284C6211.78,283.976 6211.8,283.915 6211.8,283.834C6211.73,283.562 6211.52,282.911 6211.2,281.88C6211.07,281.483 6210.86,280.806 6210.57,279.858C6210.32,279.069 6210.1,278.479 6209.91,278.088C6209.82,277.919 6209.76,277.792 6209.69,277.716Z" style="fill:rgb(51,51,51);"></path>
                    </g>
                    <g transform="matrix(19.7429,3.59336e-31,-7.18672e-31,19.7429,-121048,-4072.49)">
                        <path d="M6221.51,271.809C6221.51,271.708 6221.47,271.612 6221.4,271.541C6221.33,271.471 6221.23,271.432 6221.13,271.434L6218.55,271.474C6218.35,271.477 6218.18,271.644 6218.18,271.849L6218.18,291.246C6218.18,291.453 6218.35,291.621 6218.56,291.621L6221.14,291.621C6221.35,291.621 6221.51,291.453 6221.51,291.246L6221.51,271.809Z" style="fill:rgb(51,51,51);"></path>
                    </g>
                    <g transform="matrix(15.4953,2.82027e-31,-5.64054e-31,15.4953,-94855.3,-1418.3)">
                        <path d="M6232.68,172.948C6232.64,171.718 6232.67,170.544 6232.93,170.041C6233.74,168.5 6239.28,166.923 6241.14,166.62C6245.37,165.927 6249.98,165.684 6254.16,166.838C6258.34,167.993 6262.21,170.58 6263.61,174.872C6264.41,177.299 6264.35,179.67 6263.91,182.189C6262.65,189.6 6257.06,195.122 6252.28,200.671C6250.28,202.989 6247.64,205.712 6247.38,208.805C6247.14,211.555 6249.87,214.394 6251.11,215.528C6251.2,215.609 6251.23,215.735 6251.19,215.846C6251.14,215.956 6251.03,216.029 6250.91,216.027C6250.01,216.022 6248.57,216.006 6248.01,215.999C6247.85,215.998 6247.7,215.95 6247.57,215.862C6246.75,215.294 6243.59,213.092 6242.65,212.218C6240.93,210.612 6240,208.606 6240.81,206.289C6241.61,204.004 6243.56,202.086 6245.05,200.163C6249.68,194.165 6254.46,187.413 6254.17,179.626C6254.07,177.002 6253.3,174.098 6251.38,172.169C6249.64,170.416 6246.98,169.574 6244.5,169.727C6241.57,169.907 6238.51,171.068 6236.82,172.948L6232.68,172.948Z" style="fill:rgb(104,173,0);"></path>
                    </g>
                    <g transform="matrix(19.7429,3.59336e-31,-7.18672e-31,19.7429,-121048,-4072.49)">
                        <path d="M6221.68,280.142L6221.68,277.963C6221.68,277.756 6221.85,277.588 6222.05,277.588C6222.05,277.588 6223.48,277.588 6223.48,277.588C6223.82,277.588 6224.05,277.436 6224.16,277.125C6224.23,276.908 6224.26,276.491 6224.26,275.877C6224.26,274.04 6225.14,272.435 6226.92,271.083C6227.68,270.513 6228.26,270.117 6228.67,269.889C6229.35,269.529 6230.05,269.308 6230.78,269.223C6230.89,269.21 6231,269.245 6231.08,269.317C6231.16,269.389 6231.2,269.493 6231.2,269.601L6231.17,271.773C6231.17,271.944 6231.05,272.092 6230.88,272.132C6229.82,272.389 6228.98,272.951 6228.35,273.821C6227.71,274.699 6227.39,275.683 6227.39,276.771C6227.39,276.981 6227.44,277.153 6227.55,277.279C6227.76,277.506 6228.14,277.588 6228.67,277.588L6230.91,277.588C6231.12,277.588 6231.29,277.756 6231.29,277.963L6231.29,280.098C6231.29,280.305 6231.12,280.473 6230.91,280.473L6228.87,280.473C6228.29,280.473 6227.88,280.509 6227.64,280.599C6227.36,280.701 6227.23,280.928 6227.23,281.26L6227.23,291.241C6227.23,291.447 6227.07,291.614 6226.86,291.616L6224.41,291.646C6224.31,291.647 6224.21,291.609 6224.14,291.538C6224.07,291.468 6224.03,291.372 6224.03,291.271C6224.03,291.271 6224.03,281.317 6224.03,281.317C6224.03,280.933 6223.88,280.673 6223.56,280.548C6223.33,280.498 6223.1,280.473 6222.85,280.473L6222.05,280.473C6222.05,280.473 6221.68,280.512 6221.68,280.142Z" style="fill:rgb(51,51,51);"></path>
                    </g>
                    <g transform="matrix(8.29213,4.33326,-4.33326,8.29213,-45262.6,-24046)">
                        <circle cx="5763.87" cy="130.437" r="5.036" style="fill:rgb(104,173,0);"></circle>
                    </g>
                </g>
                <g transform="matrix(0.3735,0,0,0.664001,1375.68,99.5483)">
                    <g transform="matrix(2.38528,0,0,2.38528,-9329.83,-551.898)">
                        <path d="M6237.54,293.394C6237.54,293.25 6237.53,291.477 6237.53,291.477C6237.53,291.293 6237.68,291.144 6237.86,291.144C6237.86,291.144 6239.11,291.144 6239.11,291.144C6239.4,291.144 6239.59,291.002 6239.69,290.721C6239.75,290.522 6239.78,290.141 6239.78,289.578C6239.78,287.907 6240.55,286.45 6242.11,285.219C6242.77,284.7 6243.28,284.34 6243.64,284.132C6244.24,283.803 6244.86,283.601 6245.5,283.524C6245.59,283.512 6245.69,283.542 6245.76,283.607C6245.83,283.671 6245.87,283.763 6245.87,283.859L6245.84,285.84C6245.84,285.991 6245.74,286.122 6245.59,286.159C6244.66,286.392 6243.91,286.904 6243.36,287.696C6242.79,288.497 6242.51,289.396 6242.51,290.392C6242.51,290.587 6242.55,290.746 6242.66,290.864C6242.84,291.07 6243.18,291.144 6243.64,291.144L6245.62,291.144C6245.8,291.144 6245.95,291.293 6245.95,291.477L6245.95,293.43C6245.95,293.615 6245.8,293.764 6245.62,293.764C6245.62,293.764 6243.83,293.764 6243.83,293.764C6243.32,293.764 6242.97,293.796 6242.75,293.878C6242.51,293.972 6242.4,294.182 6242.4,294.488L6242.4,303.576C6242.4,303.758 6242.25,303.907 6242.07,303.909L6239.93,303.936C6239.84,303.937 6239.75,303.903 6239.69,303.84C6239.62,303.777 6239.59,303.691 6239.59,303.602C6239.59,303.602 6239.62,294.514 6239.62,294.515C6239.62,294.162 6239.49,293.92 6239.2,293.805C6239,293.759 6238.78,293.737 6238.57,293.737C6238.31,293.737 6237.89,293.736 6237.89,293.736C6237.68,293.736 6237.54,293.603 6237.54,293.394Z" style="fill:rgb(51,51,51);"></path>
                    </g>
                    <g transform="matrix(2.38528,0,0,2.38528,-9329.83,-551.898)">
                        <path d="M6256.12,302.406C6255.47,302.944 6254.91,303.333 6254.42,303.576C6253.62,303.978 6252.73,304.18 6251.75,304.18C6249.92,304.18 6248.38,303.521 6247.14,302.204C6245.9,300.893 6245.29,299.316 6245.29,297.472C6245.29,295.626 6245.91,294.062 6247.16,292.778C6248.41,291.49 6249.95,290.845 6251.8,290.845C6253.23,290.845 6254.53,291.264 6255.69,292.101C6256.96,293.008 6257.7,294.151 6257.91,295.522L6259.13,303.525C6259.15,303.621 6259.12,303.719 6259.06,303.793C6258.99,303.867 6258.9,303.909 6258.8,303.909L6256.63,303.909C6256.47,303.909 6256.33,303.788 6256.3,303.625L6256.12,302.406ZM6247.96,297.499C6247.96,296.396 6248.33,295.455 6249.07,294.678C6249.82,293.905 6250.73,293.52 6251.83,293.52C6252.94,293.52 6253.86,293.907 6254.57,294.686C6255.29,295.474 6255.65,296.43 6255.65,297.554C6255.65,298.639 6255.28,299.566 6254.55,300.334C6253.82,301.097 6252.92,301.479 6251.86,301.479C6250.74,301.479 6249.81,301.103 6249.07,300.345C6248.33,299.585 6247.96,298.635 6247.96,297.499Z" style="fill:rgb(51,51,51);"></path>
                    </g>
                    <g transform="matrix(2.38528,0,0,2.38528,-9329.83,-551.898)">
                        <path d="M6269.32,292.372C6270.33,291.354 6271.58,290.845 6273.07,290.845C6274.51,290.845 6275.74,291.26 6276.78,292.084C6277.91,292.983 6278.48,294.146 6278.48,295.573L6278.48,303.576C6278.48,303.76 6278.33,303.909 6278.14,303.909L6276,303.909C6275.82,303.909 6275.67,303.76 6275.67,303.576C6275.67,303.576 6275.67,296.55 6275.67,296.55C6275.67,295.747 6275.42,295.054 6274.93,294.473C6274.45,293.909 6273.83,293.628 6273.07,293.628C6272.46,293.628 6271.9,293.854 6271.37,294.295C6270.87,294.722 6270.61,295.227 6270.61,295.817L6270.61,303.576C6270.61,303.76 6270.46,303.909 6270.28,303.909L6268.13,303.909C6267.95,303.909 6267.8,303.76 6267.8,303.576L6267.8,295.899C6267.8,295.218 6267.61,294.665 6267.2,294.245C6266.8,293.828 6266.26,293.628 6265.58,293.628C6264.79,293.628 6264.13,293.875 6263.6,294.377C6263.08,294.875 6262.82,295.519 6262.82,296.306L6262.82,303.576C6262.82,303.76 6262.68,303.909 6262.49,303.909L6260.35,303.909C6260.16,303.909 6260.02,303.76 6260.02,303.576L6260.02,295.573C6260.02,294.162 6260.6,293.015 6261.78,292.134C6262.81,291.349 6264.04,290.954 6265.48,290.954C6267.35,290.954 6268.62,291.446 6269.32,292.372Z" style="fill:rgb(51,51,51);"></path>
                    </g>
                    <g transform="matrix(2.38528,0,0,2.38528,-9329.83,-551.898)">
                        <path d="M6282.67,303.909C6282.86,303.909 6283.01,303.76 6283.01,303.576L6283.01,291.477C6283.01,291.293 6282.86,291.144 6282.67,291.144L6280.53,291.144C6280.35,291.144 6280.2,291.293 6280.2,291.477L6280.2,303.576C6280.2,303.76 6280.35,303.909 6280.53,303.909L6282.67,303.909ZM6281.59,289.912C6282.08,289.912 6282.49,289.748 6282.82,289.425C6283.16,289.099 6283.33,288.69 6283.33,288.195C6283.33,287.703 6283.16,287.291 6282.83,286.955C6282.49,286.62 6282.08,286.451 6281.59,286.451C6281.1,286.451 6280.68,286.62 6280.35,286.955C6280.01,287.291 6279.85,287.703 6279.85,288.195C6279.85,288.765 6280.01,289.186 6280.3,289.471C6280.59,289.753 6281.01,289.912 6281.59,289.912Z" style="fill:rgb(51,51,51);"></path>
                    </g>
                    <g transform="matrix(2.38528,0,0,2.38528,-9329.83,-551.898)">
                        <path d="M6287.2,303.909C6287.39,303.909 6287.54,303.76 6287.54,303.576L6287.54,284.045C6287.54,283.86 6287.39,283.711 6287.2,283.711L6285.06,283.711C6284.88,283.711 6284.73,283.86 6284.73,284.045L6284.73,303.576C6284.73,303.76 6284.88,303.909 6285.06,303.909L6287.2,303.909Z" style="fill:rgb(51,51,51);"></path>
                    </g>
                    <g transform="matrix(2.38528,0,0,2.38528,-9329.83,-551.898)">
                        <path d="M6293.81,299.379C6293.85,299.298 6293.9,299.193 6293.95,299.087L6297.04,291.353C6297.09,291.227 6297.21,291.144 6297.35,291.144L6299.68,291.144C6299.79,291.144 6299.9,291.199 6299.96,291.291C6300.02,291.382 6300.03,291.499 6299.99,291.602L6292.21,310.916C6292.15,311.042 6292.03,311.125 6291.9,311.125L6289.59,311.125C6289.48,311.125 6289.38,311.069 6289.31,310.977C6289.25,310.885 6289.24,310.768 6289.28,310.665C6289.28,310.665 6291.94,304.181 6291.94,304.184C6292.07,303.869 6292.13,303.595 6292.13,303.359C6292.13,303.115 6292.04,302.768 6291.86,302.314L6287.68,291.598C6287.64,291.496 6287.65,291.38 6287.72,291.289C6287.78,291.198 6287.88,291.144 6287.99,291.144L6290.3,291.144C6290.43,291.144 6290.56,291.227 6290.61,291.355C6290.61,291.355 6293.7,299.167 6293.7,299.166C6293.73,299.242 6293.77,299.318 6293.81,299.379Z" style="fill:rgb(51,51,51);"></path>
                    </g>
                </g>
                <g transform="matrix(1.125,1.04515,-0.330691,1.125,-117.633,-3400.15)">
                    <g transform="matrix(0.641246,0,0,1.13999,-454.292,-18.0237)">
                        <circle cx="5763.87" cy="130.437" r="5.036" style="fill:rgb(0,170,237);"></circle>
                    </g>
                    <g transform="matrix(0.78251,0,4.60137e-17,1.39113,-1266.03,-23.8871)">
                        <circle cx="5763.87" cy="130.437" r="5.036" style="fill:rgb(0,170,237);"></circle>
                    </g>
                    <g transform="matrix(0.99041,-2.0856e-16,1.95375e-16,1.76073,-2451.55,-104.652)">
                        <circle cx="5763.87" cy="130.437" r="5.036" style="fill:rgb(0,170,237);"></circle>
                    </g>
                    <g transform="matrix(0.415303,8.4277e-18,2.04924e-17,0.738317,865.55,52.7944)">
                        <circle cx="5763.87" cy="130.437" r="5.036" style="fill:rgb(0,170,237);"></circle>
                    </g>
                    <g transform="matrix(0.5625,0,0,1,0,0)">
                        <path d="M5767.78,133.619C5774.04,138.451 5773.99,145.715 5771.15,151.551C5777.58,145.797 5782.23,144.864 5791.16,147.14C5785.46,143.011 5783.58,137.252 5785.61,132.528C5783,136.844 5776.79,138.433 5767.78,133.619Z" style="fill:rgb(51,51,51);"></path>
                    </g>
                </g>
            </g>
        </g>
    </g>
</svg>