<?xml version="1.0"?>

<svg width="100%" height="100%" viewBox="0 0 781 480" version="1.1" xmlns="http://www.w3.org/2000/svg" xmlns:xlink="http://www.w3.org/1999/xlink" xml:space="preserve" xmlns:serif="http://www.serif.com/" style="fill-rule:evenodd;clip-rule:evenodd;stroke-linejoin:round;stroke-miterlimit:2;">
    <g transform="matrix(1,0,0,1,-234.477,-1325.07)">
        <g transform="matrix(1,0,0,1,-837.167,-16.0601)">
            <g transform="matrix(1.03047,-1.6559,2.59015,1.49812,360.395,2373.95)">
                <path d="M528.929,174.836C525.312,174.578 522.602,174.23 522.459,174.208C503.191,171.309 489.324,156.814 495.264,147.52C491.533,146.888 485.344,145.175 479.711,140.508C466.459,129.529 469.756,113.972 484.441,109.112C482.429,106.444 480.751,102.64 481.799,97.902C484.743,84.589 506.151,77.265 522.849,82.393C524.16,80.123 526.658,77.52 531.395,75.415C543.637,69.974 560.754,72.145 571.481,78.025C571.493,77.917 571.504,77.809 571.516,77.701C576.024,60.914 612.687,59.138 622.33,74.886C639.012,69.287 657.768,76.06 662.812,86.686C665.003,91.302 664.367,95.733 662.077,99.395C665.552,100.811 670.183,103.045 673.687,106.804C676.177,109.476 676.001,112.524 675.358,112.984C674.621,113.511 673.789,114.072 672.87,114.658C679.049,117.864 684.468,121.94 688.406,126.76C694.359,125.665 702.92,125.232 713.566,127.773C740.558,134.216 759.602,155.21 750.789,170.365C756.355,171.686 766.105,174.846 774.84,181.995C794.811,198.34 788.92,218.441 766.537,220.964C765.396,221.093 765.485,220.939 768.888,223.77C769.515,224.292 773.574,227.891 775.803,230.607C790.588,248.628 773.623,265.531 745.327,261.788C742.583,261.425 740.143,260.903 738.2,260.408C739.161,264.161 739.46,270.591 733.051,276.235C718.364,289.168 685.449,284.383 668.081,270.622C649.667,283.45 609.063,274.821 594.203,253.747C591.348,249.697 590.268,246.287 589.913,243.75C583.792,243.503 574.515,242.155 564.202,237.234C540.467,225.909 531.093,202.946 549.448,192.83C545.094,190.82 537.236,185.954 530.935,178.209C530.043,177.112 529.381,175.986 528.929,174.836Z" style="fill:white;"></path>
            </g>
            <g transform="matrix(7.27423,0,0,7.27423,-1415.49,-5963.49)">
                <g>
                    <g transform="matrix(0.141661,-0.22764,0.356072,0.205949,244.133,1146.16)">
                        <path d="M644.166,96.459C644.629,95.728 646.908,93.357 645.643,89.958C643.662,84.637 634.446,80.873 626.487,83.992L623.798,84.788L620.826,85.139L617.887,84.978L615.28,84.368L613.144,83.436L611.481,82.279L610.256,80.932L609.487,79.378C609.478,79.35 609.14,75.808 603.824,73.318C595.498,69.42 582.586,71.665 579.783,78.897C578.652,81.817 574.208,83.706 569.723,83.172C568.484,83.025 567.363,82.707 566.408,82.261L566.121,82.133L566.13,82.125C563.808,80.941 562.56,78.975 563.114,76.914C568.585,56.541 609.834,52.457 626.44,68.022C645.697,64.848 665.25,72.839 670.969,84.887C672.997,89.16 673.128,93.31 671.955,97.062C675.055,98.713 678.301,100.893 681.017,103.806C683.825,106.819 684.288,110.961 684.098,112.718L683.568,114.577L682.468,116.035L680.967,117.148L678.946,118.026L676.417,118.537L673.566,118.503L671.401,118.028L669.342,117.075L668.172,116.143L667.252,114.885C665.327,111.1 659.524,109.426 654.812,109.198L650.53,108.751L646.898,107.334L645.215,106.248L643.877,104.974L642.487,102.237L642.622,99.315C643.06,97.831 644.446,96.036 644.446,96.036C644.446,96.036 644.255,96.316 644.166,96.459Z" style="fill:white;"></path>
                    </g>
                    <g transform="matrix(-0.305285,0.0818009,-0.114306,-0.377424,565.309,1041.06)">
                        <path d="M610.941,156.382C610.943,156.364 610.944,156.352 610.945,156.346C610.944,156.358 610.942,156.37 610.941,156.382ZM575.349,170.246C575.327,170.234 575.304,170.222 575.281,170.211C571.981,168.512 571.1,164.951 573.309,162.241C575.517,159.53 579.986,158.688 583.311,160.356C583.535,160.469 583.768,160.58 584.011,160.69C590.219,163.501 599.15,162.693 605.432,160.273C607.231,159.58 608.813,158.755 609.936,157.766C610.429,157.332 610.876,156.898 610.941,156.382C610.932,156.465 610.914,156.676 610.932,157.001L611.134,154.917L612.22,152.508L613.709,150.855L615.967,149.407L617.863,148.7L620.217,148.303L622.127,148.347L624.366,148.826C625.547,149.205 626.917,150.596 631.368,150.949C637.508,151.436 643.801,148.81 647.083,145.334C648.441,143.897 649.421,142.289 648.534,140.792C647.883,139.694 646.669,139.178 646.016,138.435L645.059,137.133L644.308,135.426L644.031,133.483L644.283,131.563L645.428,129.002L647.316,126.917L650.324,125.118L652.729,124.353L654.846,124.024C654.876,124.021 658.381,124.111 660.872,121.687C665.382,117.299 661.522,110.798 654.607,110.274C653.488,110.189 652.498,110.026 651.621,109.813L648.824,108.829L646.439,107.291L644.738,105.356L643.583,102.306L643.65,99.555L644.483,97.152L646.091,94.907L647.109,94.01C647.355,93.818 648.009,93.546 648.236,92.925C648.407,92.459 648.289,91.873 647.999,91.111C646.825,88.024 642.917,85.47 638.547,84.006C634.396,82.616 629.591,82.125 625.839,84.067L623.471,84.987L620.822,85.394L618.196,85.203L615.879,84.487L614,83.387L612.572,82.007L611.593,80.387L611.114,78.537C611.111,78.513 611.132,76.19 607.052,74.116C604.308,72.721 600.474,72.422 596.82,72.362C589.597,72.243 582.746,73.375 581.419,73.431L579.071,73.256L577.127,72.599L574.876,70.816L573.867,68.583L573.866,67.017L574.535,65.232L576.037,63.54L577.698,62.531C588.536,57.565 602.375,57.356 612.889,60.576C618.034,62.151 622.356,64.54 625.398,67.476C629.11,66.663 633.858,66.199 639.584,66.811C652.995,68.244 663.457,74.666 668.412,82.254C670.988,86.198 672.115,90.457 671.618,94.611C674.819,96.147 678.094,98.355 680.918,101.529C692.342,114.365 686.242,131.372 671.039,138.696C671.313,140.834 671.177,143.231 670.37,145.867C667.741,154.46 659.237,161.142 649.004,164.594C641.273,167.202 632.669,167.905 625.205,166.454C622.956,168.659 619.67,170.927 614.825,172.787C603.037,177.313 585.916,175.655 575.349,170.246Z" style="fill:white;"></path>
                    </g>
                    <g transform="matrix(0.503723,-0.134972,0.168999,0.537954,86.5603,1054.16)">
                        <path d="M656.875,129.251C656.843,129.232 656.822,129.218 656.809,129.211C656.831,129.224 656.853,129.237 656.875,129.251ZM630.446,151.58C630.444,151.572 630.442,151.566 630.441,151.561C630.442,151.567 630.444,151.574 630.446,151.58ZM529.328,93.317C529.735,93.172 530.138,93.041 530.521,92.931C531.299,92.708 531.945,92.517 532.519,92.352C531.683,89.809 531.412,86.589 532.76,82.863C534.534,77.96 538.807,73.623 544.581,70.634C551.761,66.917 561.265,65.287 570.335,67.111C572.575,64.733 575.868,62.254 580.734,60.356C590.227,56.654 601.621,57.042 610.353,60.583C615.163,62.534 619.155,65.433 621.748,69.045C625.254,68.136 630.078,67.463 635.875,68.148C647.596,69.532 655.686,75.576 658.543,82.181C659.964,85.465 660.204,88.92 659.109,92.219C660.372,92.462 661.783,92.768 662.933,93.104C672.447,95.889 677.708,101.905 678.811,108.131C679.891,114.225 677.182,120.817 669.93,125.497C671.67,127.668 673.123,130.466 673.474,133.908C674.078,139.832 671.361,145.126 666.589,149.181C661.124,153.823 652.822,156.771 644.417,156.907C642.97,161.529 639.435,165.6 634.507,168.623C625.856,173.93 612.825,175.927 601.186,171.792C598.955,170.999 597.134,170.103 595.657,169.217C592.645,170.903 588.432,172.553 582.78,173.243C572.292,174.523 561.578,171.345 555.103,165.889C551.602,162.938 549.302,159.341 548.624,155.408C545.244,155.415 540.881,154.976 536.211,153.345C529.435,150.979 524.704,146.881 522.34,142.465C521.295,140.513 522.175,138.078 524.317,136.998C526.458,135.918 529.068,136.592 530.178,138.512C531.452,140.715 533.84,142.404 536.672,143.577C541.349,145.514 547.286,146.023 552.485,144.526C552.609,144.49 553.564,144.225 554.127,144.129L555.466,144.049L556.71,144.269L557.933,144.77L558.792,145.349L559.614,146.199L560.171,147.128L560.516,148.204L560.605,149.328L560.461,150.411C559.858,153.014 561.596,155.144 564.098,156.738C569.115,159.935 577.366,161.006 584.51,158.392C587.999,157.115 589.355,155.459 590.182,154.591L591.77,153.235L593.002,152.594L594.288,152.166L596.898,151.914L599.425,152.434L600.606,152.991L601.688,153.753C601.806,153.853 605.571,159.186 615.897,159.286C620.627,159.332 624.821,158.117 627.648,156.159C629.517,154.864 630.858,153.294 630.446,151.58C630.456,151.624 630.479,151.712 630.521,151.837L630.209,150.431L630.241,148.732L630.561,147.477L631.234,146.133L632.632,144.563L634.527,143.384L636.912,142.752L638.225,142.728L639.544,142.927C639.56,142.931 645.505,145.017 652.657,142.918C657.23,141.576 660.201,139.218 660.905,136.396C661.547,133.82 660.046,131.217 656.875,129.251C656.941,129.291 657.052,129.354 657.209,129.427L655.179,128.065L653.977,126.353L653.664,125.321L653.6,124.128L653.849,122.911L654.363,121.811L655.523,120.459L656.839,119.612C657.395,119.344 658.105,119.114 659.014,118.903C659.928,118.69 661.283,118.434 663.169,117.516C667.263,115.523 669.227,112.491 668.708,109.41C668.114,105.879 664.737,102.686 659.287,100.844C654.78,99.32 651.915,100.025 651.122,99.948L649.614,99.568L648.596,98.958L647.947,98.303L647.442,97.458L647.13,95.734L647.501,94.225L648.371,92.881C650.779,89.989 650.001,86.737 647.534,84.254C644.286,80.986 638.467,78.9 631.575,79.269C624.484,79.648 620.919,82.542 620.425,82.733L619.078,83.098L617.528,83.206L616.301,83.063L614.955,82.636L613.838,81.997L612.849,81.099L612.087,80.005L611.584,78.8C610.9,76.562 608.831,75.026 606.378,73.944C603.381,72.621 599.742,72.019 596.359,72.102C592.893,72.187 589.398,72.983 586.669,74.368C584.724,75.354 583.091,76.553 582.782,78.207C582.712,78.58 582.587,78.944 582.411,79.289C582.202,79.698 582.101,80.146 581.892,80.555L580.701,82.201C580.292,82.629 579.797,83.054 579.226,83.441C578.133,84.185 576.763,84.787 575.27,85.04L573.639,85.174L571.916,84.997C570.816,84.774 569.695,84.333 568.614,83.574C563.86,80.236 556.202,79.801 550.273,81.726C546.932,82.81 544.056,84.641 543.151,87.509C542.242,90.391 544.197,92.48 544.584,93.011L545.344,94.656L545.417,95.754L545.223,96.784L544.812,97.713L544.211,98.535L543.422,99.245L542.435,99.813L541.264,100.177L539.986,100.263C538.071,100.159 535.05,99.873 531.396,101.147C529.968,101.695 528.692,102.355 528.386,102.512L528.126,102.64L526.392,103.075L524.649,102.846L523.315,102.113L522.396,101.027L521.95,99.715L521.994,98.42L522.412,97.3L523.145,96.332L524.02,95.651L524.287,95.5C526.046,94.532 527.733,93.827 529.328,93.317ZM575.002,74.519C574.216,75.262 573.173,75.711 572.09,75.79C572.794,76.171 573.469,76.585 574.107,77.033C574.112,77.037 574.118,77.04 574.123,77.041C574.15,76.974 574.176,76.906 574.201,76.837C574.376,76.042 574.645,75.267 575.002,74.519ZM574.244,76.969C574.252,76.959 574.257,76.952 574.257,76.952C574.257,76.952 574.252,76.958 574.244,76.969Z" style="fill:white;"></path>
                    </g>
                </g>
                <g>
                    <g transform="matrix(0.141661,-0.22764,0.356072,0.205949,244.133,1146.16)">
                        <path d="M571.089,77.51L571.516,77.701M571.516,77.701C576.024,60.914 612.687,59.138 622.33,74.886C639.012,69.287 657.768,76.06 662.812,86.686C665.003,91.302 664.367,95.733 662.077,99.395C665.552,100.811 670.183,103.045 673.687,106.804C676.177,109.476 675.651,113.559 675.358,112.984C672.279,106.928 663.257,104.018 655.718,103.652C653.942,103.566 653.809,103.728 652.452,102.999C649.261,101.283 651.926,98.639 652.123,98.293C652.685,97.303 655.873,93.685 653.937,88.483C650.702,79.792 635.267,74.156 622.266,79.251C620.057,80.117 618.173,79.156 617.853,78.116C617.84,78.073 617.194,72.629 608.947,68.767C595.945,62.678 575.892,66.406 571.516,77.701Z" style="fill:rgb(6,160,238);"></path>
                    </g>
                    <g transform="matrix(-0.305285,0.0818009,-0.114306,-0.377424,565.309,1041.06)">
                        <path d="M663.319,97.946C666.977,98.981 671.433,101.011 674.981,104.997C684.949,116.198 677.805,131.558 662.587,135.532C663.771,137.818 664.493,140.902 663.344,144.659C659.211,158.169 635.938,165.182 622.256,159.355C621.075,161.718 618.316,165.097 611.872,167.571C602.144,171.306 588.027,169.779 579.33,165.301C579.64,165.457 579.963,165.611 580.299,165.763C593.872,171.908 617.354,165.618 618.163,156.575C618.165,156.556 618.006,155.079 619.48,154.385C622.122,153.141 622.392,156.084 630.426,156.721C644.992,157.876 660.18,146.752 655.089,138.166C653.678,135.787 650.685,135.209 651.369,132.561C652.008,130.084 654.978,129.826 655.394,129.79C655.45,129.785 661.802,129.76 666.398,125.287C674.548,117.358 668.017,105.447 655.518,104.499C649.537,104.045 650.319,99.846 651.744,98.381C652.508,97.595 657.188,95.202 654.928,89.258C651.514,80.278 633.545,73.278 622.054,79.223C620.166,80.2 618.449,79.123 618.329,77.896C618.324,77.851 618.847,73.144 611.068,69.189C600.683,63.909 579.419,68.33 581.136,67.543C596.01,60.727 617.757,64.987 622.237,74.611C625.179,73.344 630.654,71.733 638.4,72.561C656.626,74.509 668.364,87.531 663.319,97.946Z" style="fill:rgb(6,160,238);"></path>
                    </g>
                    <g transform="matrix(0.503723,-0.134972,0.168999,0.537954,86.5703,1054.16)">
                        <path d="M552.939,151.075C550.167,151.452 544.377,151.799 537.912,149.541C532.265,147.569 528.259,144.223 526.289,140.542C530.474,147.782 543.277,151.377 553.625,148.396C553.731,148.365 554.719,148.081 554.968,148.097C555.391,148.125 556.455,148.501 556.172,149.723C553.754,160.156 571.696,167.381 585.972,162.157C591.686,160.066 593.06,157.234 594.132,156.559C595.529,155.679 597.451,155.779 598.645,156.794C598.786,156.914 603.32,163.224 615.664,163.344C627.375,163.458 636.313,156.915 634.72,150.495C634.708,150.448 634.229,149.251 634.968,148.116C635.523,147.263 636.792,146.503 638.278,146.859C638.297,146.863 645.344,149.269 653.82,146.782C666.809,142.971 669.28,131.892 659.34,125.799C659.292,125.769 657.372,124.993 658.169,123.679C658.82,122.605 660.886,123.132 665.081,121.09C677.457,115.065 675.32,101.883 660.946,97.025C653.895,94.642 650.446,96.9 651.804,95.27C659.505,86.023 648.249,74.322 631.508,75.217C623.507,75.645 619.443,78.782 618.886,78.996C618.299,79.223 616.405,79.486 615.81,77.542C613.81,71.003 604.52,67.846 596.429,68.046C588.023,68.252 579.511,72.049 578.459,77.683C578.249,78.092 578.149,78.54 577.94,78.949C577.241,80.316 574.095,82.224 571.36,80.303C561.682,73.507 542.211,76.165 538.943,86.527C537.333,91.632 540.97,95.271 541.029,95.562C541.094,95.885 540.797,96.231 540.428,96.211C537.492,96.053 532.451,95.642 526.409,98.965C525.673,99.37 528.849,97.608 531.657,96.802C534.928,95.863 535.588,95.556 539.203,95.243C537.904,93.829 534.848,89.715 536.915,84.002C540.514,74.056 557.356,67.454 571.93,71.744C573.669,69.242 576.78,66.234 582.291,64.085C596.264,58.636 614.899,63.29 619.545,73.987C622.422,72.859 627.914,71.321 635.137,72.174C651.654,74.124 660.078,86.426 652.688,95.009C652.311,95.447 651.843,95.641 651.839,95.645C651.892,95.64 652.264,95.339 655.103,95.695C655.626,95.761 659.13,96.3 661.449,96.978C676.836,101.481 679.232,115.733 666.19,123.001C664.925,123.706 663.693,124.23 662.671,124.606C665.049,126.233 668.596,129.458 669.105,134.458C670.273,145.917 654.872,154.15 640.751,152.688C640.407,165.305 619.954,174.051 602.91,167.995C599.634,166.831 597.394,165.42 595.901,164.225C593.38,166.088 589.04,168.409 582.389,169.22C567.082,171.088 551.172,162.271 552.939,151.075Z" style="fill:rgb(6,160,238);"></path>
                    </g>
                </g>
                <g id="_-ALFÍK-" transform="matrix(0.0967562,-0.0213517,0.0171522,0.0777257,271.581,1053.76)">
                    <path d="M864.119,282.985C864.119,286.389 864.909,289.67 866.489,292.831C868.069,295.991 870.196,298.726 872.87,301.035C875.544,303.345 878.522,305.229 881.804,306.687C885.086,308.146 888.429,308.875 891.832,308.875C897.909,308.875 903.136,307.052 907.512,303.405C911.887,299.759 914.075,294.654 914.075,288.09C914.075,286.875 914.015,285.72 913.893,284.626C913.771,283.532 913.589,282.378 913.346,281.162C916.506,268.278 919.667,258.068 922.827,250.532C937.413,247.858 950.783,245.488 962.938,243.421C975.093,241.355 986.275,239.592 996.485,238.134C1007.43,264.145 1013.99,278.245 1016.18,280.433C1016.42,281.891 1016.54,283.35 1016.54,284.808L1016.54,288.82C1016.78,292.952 1017.88,296.234 1019.82,298.665C1024.93,305.958 1034.41,309.604 1048.27,309.604C1062.85,309.604 1070.14,303.527 1070.14,291.372C1070.14,284.079 1066.98,278.002 1060.66,273.14C1049.97,256.852 1043.65,243.239 1041.7,232.3C1046.56,232.056 1050.33,231.874 1053.01,231.753C1055.68,231.631 1057.14,231.57 1057.38,231.57C1063.21,230.841 1066.98,228.896 1068.68,225.736C1071.36,220.874 1072.7,216.012 1072.7,211.15C1072.7,201.669 1068.44,193.647 1059.93,187.084C1057.99,185.625 1055.44,184.896 1052.28,184.896C1049.6,184.896 1045.71,185.625 1040.61,187.084C1036.47,188.299 1033.13,189.15 1030.58,189.636C1028.03,190.122 1026.39,190.487 1025.66,190.73C1017.88,163.503 1011.56,138.039 1006.7,114.337C1001.83,90.635 998.187,68.452 995.756,47.789C1000.13,41.712 1002.32,34.54 1002.32,26.275C1002.32,17.523 997.944,10.96 989.192,6.584C982.629,3.424 974.12,1.844 963.667,1.844C958.076,1.844 953.7,2.573 950.54,4.032C942.275,7.921 938.142,15.943 938.142,28.098C938.142,29.557 938.203,31.015 938.324,32.474C938.446,33.933 938.628,35.391 938.871,36.85C912.86,97.867 890.738,174.442 872.506,266.576C866.915,271.438 864.119,276.908 864.119,282.985ZM961.479,109.779C970.717,153.779 977.281,183.194 981.17,198.023L930.849,206.774C934.252,179.548 944.462,147.216 961.479,109.779Z" style="fill:rgb(204,48,0);fill-rule:nonzero;"></path>
                    <path d="M1091.66,279.703C1094.33,288.212 1099.32,295.383 1106.61,301.218C1113.17,306.566 1119.25,309.24 1124.84,309.24C1125.33,309.24 1125.87,309.179 1126.48,309.057C1127.09,308.936 1127.64,308.875 1128.12,308.875C1139.79,306.93 1147.81,303.405 1152.19,298.3C1158.02,291.737 1162.76,287.969 1166.41,286.996C1170.79,285.781 1177.47,285.173 1186.46,285.173C1196.19,285.173 1203.24,284.322 1207.62,282.621C1212.72,280.676 1217.16,276.908 1220.92,271.317C1224.69,265.725 1226.58,259.891 1226.58,253.814C1226.58,250.167 1225.85,246.885 1224.39,243.968C1216.37,228.41 1207.98,220.631 1199.23,220.631C1196.07,220.631 1192.12,221.664 1187.38,223.73C1182.64,225.797 1177.96,227.924 1173.34,230.112L1151.46,238.863L1138.33,37.579L1138.33,37.214C1138.33,35.27 1139.37,33.264 1141.43,31.198C1143.5,29.131 1144.53,27.004 1144.53,24.816C1144.53,23.115 1143.92,20.805 1142.71,17.888C1141.74,15.7 1139.97,13.573 1137.42,11.507C1134.87,9.44 1131.89,7.617 1128.49,6.037C1125.08,4.457 1121.38,3.181 1117.37,2.208C1113.35,1.236 1109.4,0.75 1105.51,0.75C1095.79,0.75 1088.5,3.059 1083.63,7.678C1079.99,11.081 1078.17,14.363 1078.17,17.523C1078.17,18.739 1078.59,20.137 1079.44,21.717C1080.29,23.297 1081.14,24.877 1082,26.457C1082.85,28.037 1083.7,29.435 1084.55,30.651C1085.4,31.866 1085.82,32.717 1085.82,33.203L1101.14,254.178L1101.14,254.908C1101.14,257.339 1099.44,260.499 1096.03,264.388C1092.63,268.521 1090.93,272.046 1090.93,274.963C1090.93,275.692 1090.99,276.422 1091.11,277.151C1091.23,277.88 1091.41,278.731 1091.66,279.703Z" style="fill:rgb(235,168,0);fill-rule:nonzero;"></path>
                    <path d="M1231.68,283.35C1233.14,290.886 1237.52,297.206 1244.81,302.311C1251.13,306.93 1258.3,309.24 1266.32,309.24C1270.7,309.24 1274.47,308.389 1277.63,306.687C1286.13,301.825 1290.39,295.626 1290.39,288.09C1290.39,285.659 1289.78,282.621 1288.57,278.974C1288.08,271.681 1287.71,264.753 1287.47,258.189C1287.23,251.626 1287.11,245.548 1287.11,239.957C1287.11,234.366 1287.23,229.079 1287.47,224.095C1287.71,219.112 1288.08,214.553 1288.57,210.421C1291.24,207.504 1294.1,204.526 1297.13,201.487C1300.17,198.448 1303.39,196.321 1306.8,195.106C1311.17,191.459 1319.32,189.515 1331.23,189.271C1342.17,188.785 1348.85,185.868 1351.29,180.52C1352.74,178.089 1353.47,175.172 1353.47,171.768C1353.47,163.746 1349.34,156.089 1341.08,148.796C1333.05,141.26 1325.03,137.249 1317.01,136.762L1316.28,136.762C1312.39,136.762 1307.77,140.044 1302.42,146.608C1299.02,148.796 1296.16,150.68 1293.85,152.26C1291.54,153.84 1289.54,155.238 1287.84,156.453C1287.35,148.431 1286.99,140.774 1286.74,133.481C1286.5,126.188 1286.38,119.26 1286.38,112.696C1286.38,96.165 1287.11,81.823 1288.57,69.668C1291.97,68.452 1296.41,66.568 1301.88,64.016C1307.35,61.463 1313.85,58.485 1321.38,55.082C1321.63,54.839 1322.6,54.717 1324.3,54.717C1342.05,53.745 1351.16,53.016 1351.65,52.529C1361.13,50.098 1365.87,43.778 1365.87,33.568L1365.87,32.474C1365.38,25.424 1361.13,18.86 1353.11,12.783C1344.84,6.706 1337.18,3.667 1330.14,3.667C1324.06,3.667 1319.62,4.579 1316.83,6.402C1314.03,8.225 1311.42,9.866 1308.99,11.324C1303.64,13.269 1299.02,14.849 1295.13,16.065C1291.24,17.28 1288.08,18.374 1285.65,19.347C1284.19,17.645 1283.04,16.43 1282.18,15.7C1281.33,14.971 1280.79,14.485 1280.54,14.242C1278.36,13.026 1274.71,12.054 1269.61,11.324C1267.9,11.081 1266.32,10.899 1264.86,10.778C1263.41,10.656 1262.07,10.595 1260.85,10.595C1245.54,10.595 1237.88,16.916 1237.88,29.557L1237.88,32.839C1237.88,33.811 1238,34.905 1238.25,36.12C1237.52,61.646 1237.15,93.856 1237.15,132.751C1237.15,172.133 1237.52,218.2 1238.25,270.952C1236.79,272.167 1235.33,273.504 1233.87,274.963C1232.41,276.422 1231.68,278.488 1231.68,281.162L1231.68,283.35Z" style="fill:rgb(63,189,0);fill-rule:nonzero;"></path>
                    <path d="M1372.43,287.726C1375.6,296.477 1387.26,302.555 1407.44,305.958C1409.14,306.201 1410.78,306.383 1412.36,306.505C1413.94,306.626 1415.46,306.687 1416.92,306.687C1427.37,306.687 1433.69,303.527 1435.88,297.206C1436.13,296.234 1436.31,295.383 1436.43,294.654C1436.55,293.925 1436.61,293.074 1436.61,292.101C1436.61,290.643 1436.25,289.002 1435.52,287.179C1434.79,285.355 1434.06,283.411 1433.33,281.344C1432.6,279.278 1431.87,277.272 1431.14,275.328C1430.41,273.383 1430.05,271.681 1430.05,270.223L1426.4,49.248C1431.51,38.065 1434.06,31.502 1434.06,29.557C1434.06,22.264 1428.71,16.065 1418.02,10.96C1408.53,6.827 1400.03,4.761 1392.49,4.761C1385.68,4.761 1380.21,6.463 1376.08,9.866C1370.49,14.728 1367.69,19.347 1367.69,23.722C1367.69,25.667 1368.61,28.645 1370.43,32.656C1372.25,36.667 1373.16,40.253 1373.16,43.413L1373.16,44.143C1376.32,156.453 1378.51,230.841 1379.73,267.306C1374.14,272.411 1371.34,277.516 1371.34,282.621C1371.34,284.322 1371.7,286.024 1372.43,287.726ZM1411.82,-24.046C1417.65,-17.239 1424.46,-13.836 1432.24,-13.836C1433.94,-13.836 1436,-14.079 1438.43,-14.565C1444.03,-15.538 1449.25,-19.67 1454.12,-26.963C1456.79,-31.825 1459.52,-36.809 1462.32,-41.914C1465.12,-47.019 1467.85,-52.002 1470.52,-56.864C1471.01,-57.35 1472.95,-59.781 1476.36,-64.157C1478.79,-66.588 1480.01,-69.019 1480.01,-71.45C1480.01,-73.638 1479.03,-76.433 1477.09,-79.837C1475.39,-82.997 1471.01,-86.036 1463.96,-88.953C1458.37,-91.384 1453.87,-92.599 1450.47,-92.599L1449.01,-92.599C1444.63,-91.87 1441.72,-89.743 1440.26,-86.218C1438.8,-82.693 1437.34,-79.229 1435.88,-75.826L1420.93,-51.394C1419.72,-49.693 1418.44,-48.113 1417.1,-46.654C1415.77,-45.196 1414.49,-43.615 1413.28,-41.914C1410.12,-38.024 1408.53,-34.499 1408.53,-31.339C1408.53,-28.908 1409.63,-26.477 1411.82,-24.046Z" style="fill:rgb(204,0,136);fill-rule:nonzero;"></path>
                    <path d="M1452.66,276.057C1452.66,283.107 1457.28,289.792 1466.51,296.112C1474.78,301.947 1482.8,304.864 1490.58,304.864C1497.39,304.864 1503.16,302.615 1507.9,298.118C1512.64,293.621 1515.01,288.82 1515.01,283.715C1515.01,280.797 1513.92,276.422 1511.73,270.587C1509.78,264.996 1508.57,260.256 1508.08,256.366L1503.71,212.609L1569.34,263.659C1573.72,267.062 1577.61,275.206 1581.01,288.09C1583.93,299.03 1589.76,306.201 1598.52,309.604C1600.7,310.577 1603.5,311.063 1606.9,311.063C1616.14,311.063 1624.77,306.687 1632.79,297.936C1640.81,288.941 1644.83,279.339 1644.83,269.129C1644.83,266.212 1644.46,263.416 1643.73,260.742C1642.27,256.123 1638.81,252.112 1633.34,248.709C1627.87,245.305 1622.58,242.023 1617.48,238.863L1532.88,174.686L1606.54,46.33C1607.75,44.386 1610.55,42.198 1614.92,39.767C1618.33,38.065 1620.64,34.419 1621.85,28.827C1621.85,28.341 1621.91,27.916 1622.03,27.551C1622.16,27.187 1622.22,26.761 1622.22,26.275C1622.22,19.954 1618.2,13.999 1610.18,8.407C1601.92,2.816 1594.02,0.02 1586.48,0.02C1578.46,0.02 1572.87,3.302 1569.71,9.866C1568.49,13.026 1567.34,16.186 1566.24,19.347C1565.15,22.507 1564,25.667 1562.78,28.827L1501.52,137.492L1501.52,48.518C1501.52,47.06 1501.88,45.358 1502.61,43.413C1503.34,41.469 1504.07,39.524 1504.8,37.579C1505.53,35.634 1506.26,33.811 1506.99,32.109C1507.72,30.408 1508.08,28.949 1508.08,27.734C1508.08,25.303 1507.35,22.75 1505.89,20.076C1500.3,10.109 1486.69,5.126 1465.05,5.126C1458.98,5.126 1455.09,5.733 1453.39,6.949C1447.07,12.54 1443.9,17.645 1443.9,22.264C1443.9,23.479 1444.27,24.938 1445,26.64C1445.73,28.341 1446.52,30.165 1447.37,32.109C1448.22,34.054 1449.07,36.06 1449.92,38.126C1450.77,40.192 1451.2,41.955 1451.2,43.413L1460.68,258.554C1460.68,261.228 1459.34,264.145 1456.67,267.306C1453.99,270.466 1452.66,273.383 1452.66,276.057Z" style="fill:rgb(152,12,223);fill-rule:nonzero;"></path>
                </g>
            </g>
        </g>
    </g>
</svg>