<?xml version="1.0"?>

<svg width="100%" height="100%" viewBox="0 0 106 87" version="1.1" xmlns="http://www.w3.org/2000/svg" xmlns:xlink="http://www.w3.org/1999/xlink" xml:space="preserve" xmlns:serif="http://www.serif.com/" style="fill-rule:evenodd;clip-rule:evenodd;stroke-linejoin:round;stroke-miterlimit:2;">
    <g transform="matrix(1,0,0,1,0,-1)">
        <g transform="matrix(1,0,0,1,-47.3445,-375.422)">
            <g transform="matrix(0.266516,0,0,0.266516,-37.0051,300.445)">
                <g transform="matrix(1.40989,0,0,1.40989,-111.847,-99.5481)">
                    <path d="M345.782,402.611L332.368,402.611C332.368,402.611 357.604,335.801 367.737,308.976C368.38,307.275 370.012,306.154 371.83,306.164C373.648,306.174 375.267,307.313 375.891,309.021C385.695,335.876 410.06,402.611 410.06,402.611L396.438,402.611L389.009,382.964L353.199,382.964L345.782,402.611ZM359.244,367.564C359.244,369.434 360.469,370.376 362.916,370.376L377.016,370.376L378.337,370.234C380.198,370.234 381.372,370.14 381.862,369.952C382.939,369.576 383.478,368.681 383.478,367.27C383.183,366.14 382.192,362.952 380.528,357.693C379.928,355.811 378.949,352.611 377.566,348.105C375.51,341.705 373.882,337.999 372.695,336.964L371.52,336.54C370.43,336.54 369.598,337.375 369.012,339.058L361.9,358.564C360.125,363.34 359.244,366.34 359.244,367.564Z"></path>
                </g>
                <g transform="matrix(1.16427,0,0,1.17296,92.7943,-37.1649)">
                    <path d="M470.85,462.949C471.068,462.94 471.277,462.915 471.477,462.871C473.054,461.636 473.159,459.939 472.252,458.087C468.557,450.541 463.748,442.912 466.83,434.503C470.803,423.664 478.732,414.497 486.168,405.876C503.966,385.242 524.729,364.707 529.451,337.145C531.056,327.778 531.289,318.96 528.33,309.935C523.096,293.972 508.718,284.352 493.165,280.056C477.636,275.767 462.067,274.953 444.699,278.435C435.022,280.375 418.476,286.565 415.473,292.295C413.452,296.151 414.294,304.721 414.294,304.721L425.648,304.721C425.648,304.721 431.776,291.732 456.81,290.486C466.03,290.027 476.375,293.362 482.849,299.882C489.971,307.055 492.849,317.857 493.214,327.613C494.297,356.573 476.521,381.683 459.276,403.99C453.748,411.14 446.506,418.273 443.538,426.772C440.53,435.386 443.964,442.848 450.376,448.821C454.397,452.567 465.467,463.139 470.85,462.949Z" style="fill:rgb(114,182,0);"></path>
                </g>
                <g transform="matrix(1.40989,0,0,1.40989,-111.847,-99.5481)">
                    <rect x="414.319" y="302.245" width="11.627" height="100.366"></rect>
                </g>
                <g transform="matrix(1.40989,0,0,1.40989,-111.847,-99.5481)">
                    <path d="M430.279,349.787L430.279,339.67L437.06,339.67C439.519,339.67 441.147,338.54 441.931,336.281C442.323,335.152 442.518,332.987 442.518,329.787C442.518,321.611 446.524,313.18 454.443,307.168C460.134,302.847 468.611,300.399 471.842,300.022L471.695,310.317C466.261,311.634 461.917,314.528 458.66,318.999C455.405,323.47 453.777,328.481 453.777,334.023C453.777,337.787 456.397,339.67 461.635,339.67L472.258,339.67L472.258,349.787L462.577,349.787C459.543,349.787 457.401,350.023 456.127,350.493C454.072,351.246 453.043,352.846 453.043,355.293L453.043,402.587L441.417,402.729L441.417,355.564C441.417,352.834 440.254,351.058 437.941,350.211C436.693,349.928 435.395,349.787 434.037,349.787L430.573,349.787C429.888,349.787 429.789,349.787 430.279,349.787Z"></path>
                </g>
                <g transform="matrix(0.728283,-1.28681,1.28681,0.728283,-247.283,561.528)">
                    <path d="M413.715,422.731C424.435,422.731 433.126,431.421 433.126,442.141C433.126,452.861 424.436,461.551 413.716,461.551C402.996,461.55 394.304,452.86 394.304,442.14C394.304,431.42 402.995,422.73 413.715,422.731Z" style="fill:rgb(255,174,13);"></path>
                </g>
                <g transform="matrix(0.728283,-1.28681,1.28681,0.728283,-249.108,564.755)">
                    <path d="M372.494,428.378C380.096,428.378 386.259,434.54 386.259,442.141C386.26,449.742 380.097,455.902 372.495,455.902C364.893,455.902 358.73,449.741 358.729,442.14C358.729,434.539 364.892,428.378 372.494,428.378Z" style="fill:rgb(114,182,0);"></path>
                </g>
                <g transform="matrix(0.728283,-1.28681,1.28681,0.728283,-250.937,567.984)">
                    <path d="M341.427,432.883C346.541,432.883 350.686,437.028 350.686,442.141C350.686,447.254 346.541,451.399 341.427,451.399C336.313,451.399 332.168,447.254 332.168,442.141C332.168,437.028 336.313,432.883 341.427,432.883Z" style="fill:rgb(0,170,237);"></path>
                </g>
                <g transform="matrix(0.960747,0,0,0.96652,20.5415,126.775)">
                    <path d="M328.275,460.306C332.979,463.413 338.716,465.005 345.51,465.005C354.949,465.005 362.776,461.634 369.004,454.92C375.172,448.269 378.269,440.274 378.269,430.924C378.269,421.718 375.108,413.921 368.809,407.525C362.498,401.117 354.735,397.901 345.51,397.901C336.033,397.901 328.062,401.111 321.582,407.493C315.091,413.888 311.826,421.826 311.826,431.321L311.826,496.657C311.826,498.314 313.169,499.657 314.826,499.657L325.275,499.657C326.932,499.657 328.275,498.314 328.275,496.657L328.275,460.306ZM404.063,439.623C404.24,439.543 404.606,439.384 404.9,439.317C405.625,439.152 406.505,439.082 407.54,439.082C407.54,439.082 449.995,439.082 449.995,439.082C451.602,439.082 452.923,437.817 452.993,436.213L453.125,433.164C453.513,423.769 450.355,415.579 443.623,408.605C436.896,401.636 428.832,398.166 419.443,398.166C409.912,398.166 402.042,401.541 395.818,408.252C389.652,414.899 386.553,422.938 386.553,432.379C386.553,441.767 389.783,449.699 396.219,456.183C402.661,462.674 410.576,465.931 419.972,465.931C428.913,465.931 436.542,462.772 442.859,456.456C443.965,455.35 444.035,453.579 443.021,452.389L436.937,445.247C435.9,444.029 434.089,443.839 432.822,444.816C428.09,448.462 423.797,450.408 419.84,450.408C415.635,450.408 412.085,449.068 409.208,446.338C409.203,446.333 409.197,446.328 409.192,446.323C407.363,444.614 405.98,443.094 405.065,441.742C404.506,440.915 404.104,440.238 404.063,439.623ZM633.307,464.476C634.182,464.476 635.013,464.095 635.583,463.431C636.153,462.768 636.405,461.888 636.273,461.024L630.32,422C629.229,414.96 625.462,409.076 618.919,404.415C613.018,400.16 606.439,398.034 599.184,398.034C589.772,398.034 581.894,401.322 575.539,407.872C569.208,414.397 566.029,422.342 566.029,431.718C566.029,441.073 569.173,449.075 575.442,455.73C581.762,462.439 589.586,465.799 598.92,465.799C603.908,465.799 608.453,464.759 612.561,462.705C614.519,461.726 616.743,460.276 619.225,458.345C619.226,458.345 619.759,461.919 619.759,461.919C619.978,463.389 621.24,464.476 622.726,464.476L633.307,464.476ZM510.48,402.931C508.664,401.796 506.33,400.803 503.456,400C499.805,398.944 496.488,398.43 493.509,398.43C483.992,398.43 476.111,401.73 469.848,408.285C463.623,414.8 460.486,422.825 460.486,432.379C460.486,441.576 463.619,449.39 469.863,455.828C476.132,462.291 483.879,465.534 493.112,465.534C502.592,465.534 510.592,462.258 517.122,455.728C523.652,449.198 526.928,441.198 526.928,431.718C526.928,431.718 526.928,366.249 526.928,366.249C526.928,364.593 525.585,363.249 523.928,363.249L513.48,363.249C511.823,363.249 510.48,364.593 510.48,366.249L510.48,402.931ZM552.629,464.476C554.286,464.476 555.629,463.133 555.629,461.476L555.629,402.489C555.629,400.832 554.286,399.489 552.629,399.489L542.18,399.489C540.523,399.489 539.18,400.832 539.18,402.489L539.18,461.476C539.18,463.133 540.523,464.476 542.18,464.476L552.629,464.476ZM581.816,431.85C581.816,426.844 583.493,422.572 586.869,419.045C590.21,415.555 594.362,413.821 599.316,413.821C604.321,413.821 608.44,415.551 611.651,419.062C614.932,422.648 616.552,427.003 616.552,432.115C616.552,437.035 614.895,441.24 611.565,444.722C608.274,448.162 604.235,449.879 599.449,449.879C594.404,449.879 590.197,448.19 586.846,444.764C583.474,441.316 581.816,437.004 581.816,431.85ZM475.744,432.115C475.744,427.099 477.382,422.819 480.688,419.285C483.942,415.807 488.044,414.085 492.98,414.085C497.938,414.085 502.078,415.754 505.383,419.134C508.711,422.538 510.348,426.783 510.348,431.85C510.348,436.921 508.686,441.188 505.317,444.632C501.971,448.053 497.81,449.747 492.847,449.747C488.061,449.747 484.022,448.03 480.731,444.59C477.405,441.112 475.744,436.953 475.744,432.115ZM328.275,431.453C328.275,426.373 329.898,422.097 333.196,418.647C336.46,415.234 340.616,413.556 345.643,413.556C350.434,413.556 354.494,415.3 357.825,418.781C361.192,422.299 362.878,426.479 362.878,431.321C362.878,436.416 361.313,440.705 358.119,444.165C354.991,447.555 350.955,449.218 346.039,449.218C341.059,449.218 336.847,447.512 333.414,444.079C329.98,440.645 328.275,436.434 328.275,431.453ZM435.244,423.601C434.952,423.647 434.582,423.692 434.257,423.692L406.941,423.692L405.203,423.62C405.466,422.474 406.333,421.073 407.595,419.318C408.914,417.487 410.782,416.007 413.164,414.835C415.579,413.646 417.933,413.027 420.237,413.027C425.202,413.027 429.298,415.137 432.559,419.287C432.56,419.288 432.561,419.289 432.561,419.29C433.563,420.562 434.323,421.683 434.824,422.665C435.001,423.011 435.15,423.32 435.244,423.601ZM547.338,383.23C550.108,383.23 552.429,382.295 554.317,380.47C556.233,378.617 557.216,376.296 557.216,373.485C557.216,370.702 556.251,368.368 554.353,366.47C552.456,364.573 550.122,363.608 547.338,363.608C544.555,363.608 542.221,364.573 540.323,366.47C538.426,368.368 537.461,370.702 537.461,373.485C537.461,376.709 538.436,379.074 540.08,380.686C541.704,382.279 544.089,383.23 547.338,383.23Z" style="fill-rule:nonzero;"></path>
                </g>
            </g>
        </g>
    </g>
</svg>