<?xml version="1.0"?>

<svg width="15px" height="14px" version="1.1" xmlns="http://www.w3.org/2000/svg" xmlns:xlink="http://www.w3.org/1999/xlink" xml:space="preserve" xmlns:serif="http://www.serif.com/" style="fill-rule:evenodd;clip-rule:evenodd;stroke-linejoin:round;stroke-miterlimit:2;">
    <path id="diamond" d="M10.504,5.449l-2.316,7.928l6.301,-7.928l-3.985,0Zm-6.019,0l-3.985,0l6.301,7.928l-2.316,-7.928Zm0.877,0l2.133,7.299l2.132,-7.299l-4.265,0Zm2.133,-4.038l-1.829,3.111l3.657,0l-1.828,-3.111Zm4.315,-0.431l-1.035,3.542l3.72,0l-2.685,-3.542Zm-8.63,0l-2.685,3.542l3.72,0l-1.035,-3.542Zm0.755,-0.417l1.017,3.481l2.045,-3.481l-3.062,-0Zm4.058,-0l2.045,3.481l1.017,-3.481l-3.062,-0Z" style="fill:#fff;fill-rule:nonzero;"></path>
</svg>