<svg xmlns="http://www.w3.org/2000/svg" width="300" height="348" viewBox="0 0 75 87" fill="none">
  <g clip-path="url(#clip0_6_644)"><path fill-rule="evenodd" clip-rule="evenodd" d="M12.41 35.23C12.19 35.85 12.34 36.46 13.19 36.46H20.34C20.88 36.45 21.2 35.97 20.99 35.38C19.92 32.22 18.3 27.48 17.57 25.51C17.15 24.38 16.35 24.43 15.95 25.56C15.95 25.56 12.68 34.44 12.4 35.23H12.41ZM7.88001 47.67H3.21001C3.21001 47.67 12.39 23.38 15.74 14.53C15.93 14.04 16.4 13.71 16.93 13.72C17.46 13.72 17.93 14.05 18.11 14.55C21.35 23.41 30.24 47.67 30.24 47.67H25.5L22.92 40.84H10.46L7.88001 47.67Z" fill="black"></path><path fill-rule="evenodd" clip-rule="evenodd" d="M52.37 68.66C52.45 68.66 52.53 68.66 52.6 68.64C53.18 68.18 53.21 67.56 52.88 66.88C51.53 64.1 49.78 61.3 50.9 58.2C52.35 54.22 55.24 50.84 57.96 47.67C64.46 40.08 72.04 32.53 73.76 22.39C74.35 18.95 74.43 15.71 73.35 12.39C71.44 6.52 66.19 2.98 60.51 1.4C54.84 -0.180002 49.16 -0.480002 42.82 0.799998C39.29 1.52 33.25 3.79 32.15 5.9C31.41 7.32 31.72 10.47 31.72 10.47H35.87C35.87 10.47 38.11 5.69 47.25 5.23C50.62 5.07 54.39 6.29 56.76 8.69C59.36 11.33 60.41 15.3 60.54 18.89C60.93 29.54 54.45 38.78 48.15 46.98C46.13 49.61 43.49 52.23 42.4 55.36C41.3 58.53 42.56 61.27 44.9 63.47C46.37 64.85 50.41 68.73 52.37 68.66Z" fill="#72B600"></path><path d="M35.77 12.75H31.72V47.67H35.77V12.75Z" fill="black"></path><path fill-rule="evenodd" clip-rule="evenodd" d="M37.27 29.29V25.77H39.63C40.49 25.77 41.05 25.38 41.32 24.6C41.46 24.2 41.52 23.45 41.52 22.34C41.52 19.49 42.91 16.56 45.67 14.47C47.65 12.96 50.6 12.11 51.72 11.98L51.67 15.56C49.78 16.02 48.27 17.03 47.13 18.58C46 20.14 45.43 21.88 45.43 23.81C45.43 25.12 46.34 25.77 48.16 25.77H51.86V29.29H48.49C47.43 29.29 46.69 29.38 46.25 29.54C45.54 29.8 45.18 30.36 45.18 31.21V47.66L41.14 47.71V31.3C41.14 30.35 40.74 29.74 39.93 29.44C39.5 29.34 39.04 29.29 38.57 29.29H37.36C37.12 29.29 37.09 29.29 37.26 29.29H37.27Z" fill="black"></path><path fill-rule="evenodd" clip-rule="evenodd" d="M32.22 62.88C33.22 62.88 34.09 62.61 34.85 62.06C35.75 61.43 36.19 60.6 36.19 59.58V54.19C36.19 53.94 35.99 53.74 35.74 53.74H34.32C34.07 53.74 33.87 53.94 33.87 54.19V58.93C33.87 59.41 33.71 59.81 33.38 60.13C33.05 60.46 32.65 60.62 32.18 60.62C31.71 60.62 31.33 60.47 30.99 60.16C30.66 59.87 30.49 59.51 30.49 59.08V54.19C30.49 53.94 30.29 53.74 30.04 53.74H28.62C28.37 53.74 28.17 53.94 28.17 54.19V59.58C28.17 60.62 28.62 61.45 29.53 62.08C30.29 62.61 31.18 62.88 32.21 62.88H32.22ZM32.18 50.77C36.34 50.77 39.72 54.15 39.72 58.31C39.72 62.47 36.34 65.85 32.18 65.85C28.02 65.85 24.64 62.48 24.64 58.31C24.64 54.14 28.02 50.77 32.18 50.77Z" fill="#FFAE0D"></path><path fill-rule="evenodd" clip-rule="evenodd" d="M17.47 58.38C17.47 57.71 17.69 57.14 18.13 56.66C18.56 56.2 19.11 55.97 19.77 55.97C20.43 55.97 20.98 56.19 21.42 56.65C21.86 57.1 22.08 57.67 22.08 58.34C22.08 59.01 21.86 59.59 21.41 60.05C20.96 60.51 20.41 60.73 19.75 60.73C19.09 60.73 18.57 60.5 18.13 60.04C17.69 59.58 17.46 59.02 17.46 58.38H17.47ZM24.42 52.31C26.23 53.68 27.41 55.86 27.41 58.32C27.41 62.48 24.03 65.85 19.87 65.85C15.71 65.85 12.33 62.48 12.33 58.32C12.33 54.15 15.71 50.78 19.87 50.78C20.65 50.78 21.4 50.9 22.11 51.11V54.34C21.87 54.2 21.57 54.08 21.21 53.98C20.71 53.83 20.26 53.76 19.85 53.76C18.55 53.76 17.47 54.22 16.61 55.11C15.76 56.01 15.33 57.11 15.33 58.41C15.33 59.71 15.76 60.75 16.62 61.63C17.48 62.51 18.54 62.96 19.81 62.96C21.08 62.96 22.21 62.51 23.1 61.61C23.99 60.72 24.44 59.62 24.44 58.32V52.31H24.42Z" fill="#72B600"></path><path fill-rule="evenodd" clip-rule="evenodd" d="M9.57 57.13C9.57 57.13 9.52 57.13 9.49 57.13H5.6C5.65 56.98 5.76 56.81 5.91 56.6C6.09 56.36 6.33 56.16 6.65 56C6.97 55.85 7.29 55.76 7.59 55.76C8.25 55.76 8.8 56.04 9.23 56.6C9.36 56.77 9.47 56.92 9.53 57.05C9.54 57.08 9.56 57.1 9.57 57.12V57.13ZM5.44 59.37C5.44 59.37 5.49 59.35 5.52 59.34C5.62 59.32 5.73 59.31 5.87 59.31H11.64C11.88 59.31 12.08 59.12 12.09 58.88L12.11 58.47C12.16 57.18 11.73 56.06 10.81 55.1C9.89 54.15 8.78 53.67 7.5 53.67C6.22 53.67 5.11 54.13 4.26 55.05C3.42 55.97 2.99 57.07 2.99 58.36C2.99 59.65 3.43 60.73 4.31 61.62C5.19 62.51 6.28 62.96 7.57 62.96C8.86 62.96 9.84 62.52 10.71 61.66C10.88 61.49 10.89 61.23 10.73 61.05L9.9 60.08C9.74 59.9 9.47 59.87 9.28 60.02C8.65 60.5 8.07 60.77 7.54 60.77C6.98 60.77 6.51 60.59 6.12 60.22C5.87 59.99 5.69 59.79 5.57 59.61C5.51 59.51 5.46 59.44 5.44 59.37ZM7.54 50.78C11.7 50.78 15.08 54.15 15.08 58.31C15.08 62.47 11.7 65.85 7.54 65.85C3.38 65.85 0 62.48 0 58.31C0 54.14 3.38 50.78 7.54 50.78Z" fill="#00AAED"></path></g><defs><clipPath id="clip0_6_644"><rect width="74.19" height="68.66" fill="white"></rect></clipPath></defs>
  <text x="37.5" y="81" text-anchor="middle" font-family="-apple-system, BlinkMacSystemFont, &#39;Segoe UI&#39;, sans-serif" font-size="6.2" font-weight="700" letter-spacing="0.1" fill="#3A7A9C">Učím sa hrou</text>
</svg>