<?xml version="1.0"?>

<svg width="100%" height="100%" viewBox="0 0 33 41" version="1.1" xmlns="http://www.w3.org/2000/svg" xmlns:xlink="http://www.w3.org/1999/xlink" xml:space="preserve" xmlns:serif="http://www.serif.com/" style="fill-rule:evenodd;clip-rule:evenodd;stroke-linecap:round;stroke-linejoin:round;stroke-miterlimit:1.414;">
    <g transform="matrix(1,0,0,1,-26,-22)">
        <g transform="matrix(1,0,0,1,619.885186,0)">
            <g id="dokument-audio" transform="matrix(3.65927,0,0,2.021086,6152.427671,-9303.409046)">
                <g transform="matrix(0.286857,0,0,0.49253,-1898.273267,4412.062201)">
                    <path d="M208.167,410.925C208.167,410.925 210.26,410.69 211.265,411.749C212.608,413.165 217.425,418.163 219.353,420.183C220.877,421.78 220.713,423.435 220.713,423.435L220.713,445.29C220.713,447.781 218.784,449.803 216.407,449.803L195.732,449.803C193.355,449.803 191.426,447.781 191.426,445.29L191.426,415.439C191.426,412.948 193.355,410.925 195.732,410.925L208.167,410.925Z" style="fill:rgb(250,244,239);"></path>
                </g>
                <g transform="matrix(0.100835,0,0,0.139316,-1857.247865,4557.195814)">
                    <path d="M220.713,457.711C220.454,453.489 216.969,449.803 214.65,449.803L200.385,449.803C195.393,449.803 191.426,444.602 191.426,438.407L191.426,417.586C191.426,414.431 189.537,410.925 186.621,410.925L193.08,412.47L220.384,448.974L220.713,457.711Z" style="fill:rgb(63,189,201);stroke:rgb(0,103,129);stroke-width:1.92px;"></path>
                </g>
                <g transform="matrix(0.286857,0,0,0.49253,-1898.273267,4412.062201)">
                    <path d="M208.167,410.925C208.167,410.925 210.26,410.69 211.265,411.749C212.608,413.165 217.425,418.163 219.353,420.183C220.877,421.78 220.713,423.435 220.713,423.435L220.713,445.29C220.713,447.781 218.784,449.803 216.407,449.803L195.732,449.803C193.355,449.803 191.426,447.781 191.426,445.29L191.426,415.439C191.426,412.948 193.355,410.925 195.732,410.925L208.167,410.925Z" style="fill:none;stroke:rgb(10,42,87);stroke-width:1.06px;"></path>
                </g>
                <g transform="matrix(0.151715,0,0,0.26243,-2342.853446,783.63104)">
                    <path d="M3314.212,14637.476C3314.212,14637.476 3314.212,14652.036 3314.212,14652.122C3314.212,14655.158 3311.746,14657.624 3308.71,14657.624C3305.673,14657.624 3303.208,14655.158 3303.208,14652.122C3303.208,14649.085 3305.673,14646.62 3308.71,14646.62C3309.702,14646.62 3310.634,14646.883 3311.438,14647.343L3311.438,14628.81L3311.439,14628.738C3311.439,14628.098 3311.839,14627.533 3312.424,14627.348L3329.947,14621.812L3329.951,14621.811C3330.371,14621.678 3330.826,14621.761 3331.178,14622.034C3331.531,14622.308 3331.739,14622.741 3331.739,14623.201L3331.739,14649.413C3331.739,14652.45 3329.274,14654.915 3326.237,14654.915C3323.2,14654.915 3320.735,14652.45 3320.735,14649.413C3320.735,14646.377 3323.2,14643.911 3326.237,14643.911C3327.229,14643.911 3328.161,14644.175 3328.965,14644.635L3328.965,14632.723L3314.212,14637.476Z" style="fill:rgb(63,189,201);stroke:rgb(0,103,129);stroke-width:1.23px;stroke-linecap:butt;stroke-miterlimit:1.585;"></path>
                </g>
            </g>
        </g>
    </g>
</svg>