<?xml version="1.0"?>

<svg width="100%" height="100%" viewBox="0 0 33 41" version="1.1" xmlns="http://www.w3.org/2000/svg" xmlns:xlink="http://www.w3.org/1999/xlink" xml:space="preserve" xmlns:serif="http://www.serif.com/" style="fill-rule:evenodd;clip-rule:evenodd;stroke-linecap:round;stroke-linejoin:round;stroke-miterlimit:1.414;">
    <g transform="matrix(1,0,0,1,-63,-22)">
        <g transform="matrix(1,0,0,1,619.885186,0)">
            <g id="dokument-zoznam" transform="matrix(3.65927,0,0,2.021086,6189.646982,-9303.409046)">
                <g transform="matrix(0.286857,0,0,0.49253,-1898.273267,4412.062201)">
                    <path d="M208.167,410.925C208.167,410.925 210.26,410.69 211.265,411.749C212.608,413.165 217.425,418.163 219.353,420.183C220.877,421.78 220.713,423.435 220.713,423.435L220.713,445.29C220.713,447.781 218.784,449.803 216.407,449.803L195.732,449.803C193.355,449.803 191.426,447.781 191.426,445.29L191.426,415.439C191.426,412.948 193.355,410.925 195.732,410.925L208.167,410.925Z" style="fill:rgb(250,244,239);"></path>
                </g>
                <g transform="matrix(0.100835,0,0,0.139316,-1857.247865,4557.195814)">
                    <path d="M220.713,457.711C220.454,453.489 216.969,449.803 214.65,449.803L200.385,449.803C195.393,449.803 191.426,444.602 191.426,438.407L191.426,417.586C191.426,414.431 189.537,410.925 186.621,410.925L193.08,412.47L220.384,448.974L220.713,457.711Z" style="fill:rgb(252,111,97);stroke:rgb(152,42,44);stroke-width:1.92px;"></path>
                </g>
                <g transform="matrix(0.240943,0,0,0.144157,-2205.653826,3661.468301)">
                    <g transform="matrix(0.948251,0,0,2.627038,-3112.829491,-30652.492542)">
                        <path d="M4899.507,14209.316L4899.507,14219.974C4899.507,14220.709 4898.96,14221.306 4898.287,14221.306L4875.304,14221.306C4874.631,14221.306 4874.085,14220.709 4874.085,14219.974L4874.085,14209.316C4874.085,14208.581 4874.631,14207.984 4875.304,14207.984L4898.287,14207.984C4898.96,14207.984 4899.507,14208.581 4899.507,14209.316Z" style="fill:rgb(252,111,97);stroke:rgb(152,42,44);stroke-width:0.5px;stroke-miterlimit:1.585;"></path>
                    </g>
                    <g transform="matrix(0.801206,0,0,2.424556,-2396.380087,-27775.274249)">
                        <g transform="matrix(0.991633,0,0,1,40.801085,0)">
                            <g transform="matrix(12.846728,0,0,12.846728,4902.172351,14219.571537)">
                            </g>
                            <text x="4876.335px" y="14219.572px" style="font-family:&#39;ArialRoundedMTBold&#39;, &#39;Arial Rounded MT Bold&#39;, sans-serif;font-size:12.847px;fill:white;">PDF</text>
                        </g>
                    </g>
                </g>
                <g transform="matrix(0.286857,0,0,0.49253,-1898.273267,4412.062201)">
                    <path d="M208.167,410.925C208.167,410.925 210.26,410.69 211.265,411.749C212.608,413.165 217.425,418.163 219.353,420.183C220.877,421.78 220.713,423.435 220.713,423.435L220.713,445.29C220.713,447.781 218.784,449.803 216.407,449.803L195.732,449.803C193.355,449.803 191.426,447.781 191.426,445.29L191.426,415.439C191.426,412.948 193.355,410.925 195.732,410.925L208.167,410.925Z" style="fill:none;stroke:rgb(10,42,87);stroke-width:1.06px;"></path>
                </g>
            </g>
        </g>
    </g>
</svg>