<?xml version="1.0"?>

<svg width="100%" height="100%" viewBox="0 0 33 41" version="1.1" xmlns="http://www.w3.org/2000/svg" xmlns:xlink="http://www.w3.org/1999/xlink" xml:space="preserve" xmlns:serif="http://www.serif.com/" style="fill-rule:evenodd;clip-rule:evenodd;stroke-linecap:round;stroke-linejoin:round;stroke-miterlimit:1.414;">
    <g transform="matrix(1,0,0,1,-100,-22)">
        <g transform="matrix(1,0,0,1,619.885186,0)">
            <g id="dokument-interaktivny" transform="matrix(3.65927,0,0,2.021086,6226.328703,-9303.409046)">
                <g transform="matrix(0.286857,0,0,0.49253,-1898.273267,4412.062201)">
                    <path d="M208.167,410.925C208.167,410.925 210.26,410.69 211.265,411.749C212.608,413.165 217.425,418.163 219.353,420.183C220.877,421.78 220.713,423.435 220.713,423.435L220.713,445.29C220.713,447.781 218.784,449.803 216.407,449.803L195.732,449.803C193.355,449.803 191.426,447.781 191.426,445.29L191.426,415.439C191.426,412.948 193.355,410.925 195.732,410.925L208.167,410.925Z" style="fill:rgb(250,244,239);"></path>
                </g>
                <g transform="matrix(0.100835,0,0,0.139316,-1857.247865,4557.195814)">
                    <path d="M220.713,457.711C220.454,453.489 216.969,449.803 214.65,449.803L200.385,449.803C195.393,449.803 191.426,444.602 191.426,438.407L191.426,417.586C191.426,414.431 189.537,410.925 186.621,410.925L193.08,412.47L220.384,448.974L220.713,457.711Z" style="fill:rgb(118,168,0);stroke:rgb(43,75,12);stroke-width:1.92px;"></path>
                </g>
                <g transform="matrix(1,0,0,1,-46.895256,-0.177943)">
                    <g>
                        <g transform="matrix(0.249113,-0.012424,0.007525,0.494596,-1872.856265,4414.876219)">
                            <path d="M307.525,442.247C305.86,440.948 302.204,436.526 302.204,436.526C301.442,435.737 301.27,434.57 302.135,433.876C303,433.181 303.869,433.388 304.631,434.176L306.822,436.322C306.789,436.196 306.755,427.705 306.755,427.705C306.755,426.768 307.552,426.004 308.473,426.004C309.394,426.004 310.06,426.758 310.06,427.694L310.06,431.788C310.241,431.108 310.913,430.603 311.713,430.603C312.532,430.603 313.217,431.131 313.378,431.834C313.679,431.394 314.214,431.101 314.824,431.101C315.662,431.101 316.36,431.655 316.5,432.383C316.808,432.1 317.235,431.924 317.707,431.924C318.646,431.924 319.408,432.619 319.408,433.476L319.418,440.232C319.418,440.533 319.315,441.102 319.149,441.402C318.034,443.308 316.321,444.528 313.847,444.528L312.186,444.528C310.242,444.528 308.889,443.312 307.525,442.247Z" style="fill:rgb(118,168,0);stroke:rgb(43,75,12);stroke-width:0.7px;"></path>
                        </g>
                        <g transform="matrix(0.273279,0,0,0.494784,-1881.918006,4411.318815)">
                            <path d="M327.672,430.796L327.672,433.215" style="fill:none;stroke:rgb(43,75,12);stroke-width:0.67px;"></path>
                        </g>
                        <g transform="matrix(0.273279,0,0,0.494784,-1881.085742,4411.351617)">
                            <path d="M327.672,430.796L327.672,433.215" style="fill:none;stroke:rgb(43,75,12);stroke-width:0.67px;"></path>
                        </g>
                        <g transform="matrix(0.273279,0,0,0.494784,-1880.299404,4411.582422)">
                            <path d="M327.672,430.796L327.672,433.215" style="fill:none;stroke:rgb(43,75,12);stroke-width:0.67px;"></path>
                        </g>
                    </g>
                    <g transform="matrix(0.269023,-0.018916,0.003452,0.160958,-2223.386184,3581.033905)">
                        <g transform="matrix(0.862945,-0,-0,3.432252,1252.994674,5974.977956)">
                            <path d="M298.678,196.384L296.306,196.384" style="fill:none;stroke:rgb(43,75,12);stroke-width:1.01px;"></path>
                        </g>
                        <g transform="matrix(-0.862945,0,-0,3.432252,1776.886702,5974.977956)">
                            <path d="M298.678,196.384L296.306,196.384" style="fill:none;stroke:rgb(43,75,12);stroke-width:1.01px;"></path>
                        </g>
                        <g transform="matrix(0.610194,1.846529,-0.802003,2.426969,1487.306773,5612.258647)">
                            <path d="M298.678,196.384L296.306,196.384" style="fill:none;stroke:rgb(43,75,12);stroke-width:1.01px;"></path>
                        </g>
                        <g transform="matrix(-0.610194,1.846529,0.802003,2.426969,1542.574603,5612.258647)">
                            <path d="M298.678,196.384L296.306,196.384" style="fill:none;stroke:rgb(43,75,12);stroke-width:1.01px;"></path>
                        </g>
                        <g transform="matrix(-0,2.611386,-1.134204,-0,1737.749513,5856.475064)">
                            <path d="M298.678,196.384L296.306,196.384" style="fill:none;stroke:rgb(43,75,12);stroke-width:1.01px;"></path>
                        </g>
                    </g>
                </g>
                <g transform="matrix(0.286857,0,0,0.49253,-1898.273267,4412.062201)">
                    <path d="M208.167,410.925C208.167,410.925 210.26,410.69 211.265,411.749C212.608,413.165 217.425,418.163 219.353,420.183C220.877,421.78 220.713,423.435 220.713,423.435L220.713,445.29C220.713,447.781 218.784,449.803 216.407,449.803L195.732,449.803C193.355,449.803 191.426,447.781 191.426,445.29L191.426,415.439C191.426,412.948 193.355,410.925 195.732,410.925L208.167,410.925Z" style="fill:none;stroke:rgb(10,42,87);stroke-width:1.06px;"></path>
                </g>
            </g>
        </g>
    </g>
</svg>