<?xml version="1.0"?>

<svg width="100%" height="100%" viewBox="0 0 33 41" version="1.1" xmlns="http://www.w3.org/2000/svg" xmlns:xlink="http://www.w3.org/1999/xlink" xml:space="preserve" xmlns:serif="http://www.serif.com/" style="fill-rule:evenodd;clip-rule:evenodd;stroke-linecap:round;stroke-linejoin:round;stroke-miterlimit:1.414;">
    <g transform="matrix(1,0,0,1,-170,-22)">
        <g transform="matrix(1,0,0,1,619.885186,0)">
            <g id="dokument-video" transform="matrix(3.65927,0,0,2.021086,6296.799862,-9303.409046)">
                <g transform="matrix(0.286857,0,0,0.49253,-1898.273267,4412.062201)">
                    <path d="M208.167,410.925C208.167,410.925 210.26,410.69 211.265,411.749C212.608,413.165 217.425,418.163 219.353,420.183C220.877,421.78 220.713,423.435 220.713,423.435L220.713,445.29C220.713,447.781 218.784,449.803 216.407,449.803L195.732,449.803C193.355,449.803 191.426,447.781 191.426,445.29L191.426,415.439C191.426,412.948 193.355,410.925 195.732,410.925L208.167,410.925Z" style="fill:rgb(250,244,239);"></path>
                </g>
                <g transform="matrix(0.100835,0,0,0.139316,-1857.247865,4557.195814)">
                    <path d="M220.713,457.711C220.454,453.489 216.969,449.803 214.65,449.803L200.385,449.803C195.393,449.803 191.426,444.602 191.426,438.407L191.426,417.586C191.426,414.431 189.537,410.925 186.621,410.925L193.08,412.47L220.384,448.974L220.713,457.711Z" style="fill:rgb(132,109,191);stroke:rgb(101,76,169);stroke-width:1.92px;"></path>
                </g>
                <g transform="matrix(0.069758,0,0,0.030206,-1992.678228,4436.324591)">
                    <g transform="matrix(2.08874,0,0,8.455807,-4450.49694,-118270.296533)">
                        <path d="M3166.029,14722.279L3166.029,14717.033C3166.029,14715.231 3167.254,14713.723 3168.889,14713.347C3168.945,14713.423 3169.006,14713.497 3169.073,14713.566L3177.509,14722.279L3166.029,14722.279ZM3173.139,14713.257L3179.368,14713.257C3179.438,14713.366 3179.52,14713.47 3179.614,14713.566L3188.049,14722.279L3181.874,14722.279L3173.139,14713.257ZM3183.787,14713.257L3198.955,14713.257C3200.973,14713.257 3202.611,14714.949 3202.611,14717.033L3202.611,14722.279L3192.521,14722.279L3183.787,14713.257ZM3202.611,14726.365L3202.611,14744.316C3202.611,14746.4 3200.973,14748.092 3198.955,14748.092L3169.685,14748.092C3167.667,14748.092 3166.029,14746.4 3166.029,14744.316L3166.029,14726.365L3202.611,14726.365Z" style="fill:rgb(132,109,191);stroke:rgb(10,30,77);stroke-width:1px;stroke-miterlimit:1.585;"></path>
                    </g>
                    <g transform="matrix(0,3.591644,-0.997214,0,4939.65593,-30361.231402)">
                        <path d="M10219.635,2736.583L10233.531,2755.139C10233.84,2755.552 10233.863,2756.077 10233.59,2756.509C10233.317,2756.94 10232.792,2757.208 10232.222,2757.208L10204.43,2757.208C10203.859,2757.208 10203.335,2756.94 10203.062,2756.509C10202.789,2756.077 10202.811,2755.552 10203.121,2755.139L10217.017,2736.583C10217.304,2736.2 10217.797,2735.969 10218.326,2735.969C10218.855,2735.969 10219.348,2736.2 10219.635,2736.583Z" style="fill:white;stroke:rgb(101,76,169);stroke-width:1px;stroke-miterlimit:1.585;"></path>
                    </g>
                </g>
                <g transform="matrix(0.286857,0,0,0.49253,-1898.273267,4412.062201)">
                    <path d="M208.167,410.925C208.167,410.925 210.26,410.69 211.265,411.749C212.608,413.165 217.425,418.163 219.353,420.183C220.877,421.78 220.713,423.435 220.713,423.435L220.713,445.29C220.713,447.781 218.784,449.803 216.407,449.803L195.732,449.803C193.355,449.803 191.426,447.781 191.426,445.29L191.426,415.439C191.426,412.948 193.355,410.925 195.732,410.925L208.167,410.925Z" style="fill:none;stroke:rgb(10,42,87);stroke-width:1.06px;"></path>
                </g>
            </g>
        </g>
    </g>
</svg>