<?xml version="1.0"?>

<svg width="100%" height="100%" viewBox="0 0 35 36" version="1.1" xmlns="http://www.w3.org/2000/svg" xmlns:xlink="http://www.w3.org/1999/xlink" xml:space="preserve" xmlns:serif="http://www.serif.com/" style="fill-rule:evenodd;clip-rule:evenodd;stroke-linecap:round;stroke-linejoin:round;stroke-miterlimit:1.58537;">
    <g transform="matrix(1,0,0,1,-5403,-13103)">
        <g transform="matrix(0.498997,0,0,0.0592082,4329.3,12787.5)">
            <g id="great" transform="matrix(1,0,0,1,0.511621,-25.868)">
                <g transform="matrix(2.08476,0,0,17.57,-8364.62,-222319)">
                    <rect x="5044.79" y="12958.9" width="32.945" height="32.945" style="fill:none;"></rect>
                </g>
                <g transform="matrix(1.03255,2.16334e-30,-1.27271e-32,8.77556,-389.954,-193.133)">
                    <g transform="matrix(0.973274,-2.39931e-31,1.82705e-32,1.48228,1887.81,-12870.6)">
                        <g transform="matrix(1.79244,0,0,0.444259,-3550.43,6472.26)">
                            <g transform="matrix(1,0,0,2.62704,1203.38,-20238)">
                                <circle cx="1125.82" cy="9983.45" r="16.867" style="fill:rgb(255,225,51);stroke:black;stroke-width:1.27px;"></circle>
                            </g>
                        </g>
                        <g transform="matrix(0.581411,0,0,0.581411,202.387,3876.62)">
                            <g transform="matrix(0.799111,0,0,0.481501,-2343.16,4703.74)">
                                <path d="M3879.54,9018.1C3879.54,9039.26 3862.36,9056.44 3841.2,9056.44C3820.03,9056.44 3802.85,9039.26 3802.85,9018.1C3802.85,9018.1 3815.28,9029.77 3841.2,9029.77C3862.86,9029.77 3879.54,9018.1 3879.54,9018.1Z" style="fill:rgb(34,30,32);stroke:rgb(34,30,32);stroke-width:6.47px;"></path>
                            </g>
                            <g transform="matrix(0.723202,0,0,0.450659,-2085.09,4987.47)">
                                <path d="M3929.9,9004.41L3929.9,9007.97C3921.04,9017.89 3902.04,9025.97 3888.77,9026.17C3874.59,9026.39 3856.67,9019.83 3846.8,9009.89L3845.16,9004.41C3845.16,9004.41 3868.5,9016.49 3887.53,9016.49C3908.81,9016.49 3929.9,9004.41 3929.9,9004.41Z" style="fill:white;"></path>
                            </g>
                            <g transform="matrix(0.663834,0,0,0.544569,-1854.7,4137.55)">
                                <ellipse cx="3888.14" cy="9042.32" rx="22.255" ry="6.078" style="fill:rgb(235,16,36);"></ellipse>
                            </g>
                            <g transform="matrix(0.799111,0,0,0.481501,-2343.16,4703.74)">
                                <path d="M3879.54,9018.1C3879.54,9039.26 3862.36,9056.44 3841.2,9056.44C3820.03,9056.44 3802.85,9039.26 3802.85,9018.1C3802.85,9018.1 3822.77,9029.02 3841.2,9029.02C3859.62,9029.02 3879.54,9018.1 3879.54,9018.1Z" style="fill:none;stroke:rgb(34,30,32);stroke-width:3.08px;"></path>
                            </g>
                        </g>
                    </g>
                    <g transform="matrix(2.45836,0.338996,-0.401165,2.86072,-2776.48,-35772.3)">
                        <path d="M4147.57,12241.8C4148.43,12240 4150.13,12240 4150.98,12240.6C4151.83,12241.2 4151.83,12242.4 4150.98,12243.6C4150.38,12244.5 4148.85,12245.4 4147.57,12246.1C4146.3,12245.4 4144.77,12244.5 4144.17,12243.6C4143.32,12242.4 4143.32,12241.2 4144.17,12240.6C4145.02,12240 4146.73,12240 4147.57,12241.8Z" style="fill:rgb(255,8,8);stroke:black;stroke-width:0.82px;stroke-linecap:butt;"></path>
                    </g>
                    <g transform="matrix(-2.45836,0.338996,0.401165,2.86072,7768.13,-35772.3)">
                        <path d="M4147.57,12241.8C4148.43,12240 4150.13,12240 4150.98,12240.6C4151.83,12241.2 4151.83,12242.4 4150.98,12243.6C4150.38,12244.5 4148.85,12245.4 4147.57,12246.1C4146.3,12245.4 4144.77,12244.5 4144.17,12243.6C4143.32,12242.4 4143.32,12241.2 4144.17,12240.6C4145.02,12240 4146.73,12240 4147.57,12241.8Z" style="fill:rgb(255,8,8);stroke:black;stroke-width:0.82px;stroke-linecap:butt;"></path>
                    </g>
                </g>
            </g>
        </g>
    </g>
</svg>