<?xml version="1.0"?>

<svg width="100%" height="100%" viewBox="0 0 44 44" version="1.1" xmlns="http://www.w3.org/2000/svg" xmlns:xlink="http://www.w3.org/1999/xlink" xml:space="preserve" xmlns:serif="http://www.serif.com/" style="fill-rule:evenodd;clip-rule:evenodd;stroke-linecap:round;stroke-linejoin:round;stroke-miterlimit:1.585;">
    <g transform="matrix(1,0,0,1,-149,-80)">
        <g transform="matrix(1,0,0,1,619.885186,0)">
            <g id="smajlik-zamilovany" transform="matrix(0.626642,0,0,0.074354,-1726.572886,-319.082897)">
                <g transform="matrix(1.00495,-0,0,13.007794,1565.541599,-113139.519998)">
                    <g transform="matrix(1.792443,0,0,0.444259,-3703.791486,6472.256359)">
                        <g transform="matrix(1,0,0,2.627038,1203.382962,-20238.034462)">
                            <circle cx="1125.815" cy="9983.455" r="16.867" style="fill:rgb(253,160,142);stroke:rgb(10,42,87);stroke-width:1.26px;"></circle>
                        </g>
                        <g transform="matrix(-0,-2.494973,1.132631,-0,-8978.083856,8797.36082)">
                            <circle cx="1122.835" cy="9973.979" r="2.185" style="fill:rgb(254,188,161);"></circle>
                        </g>
                        <g transform="matrix(-0,-2.494973,1.132631,-0,-8957.194839,8797.36082)">
                            <circle cx="1122.835" cy="9973.979" r="2.185" style="fill:rgb(254,188,161);"></circle>
                        </g>
                        <g transform="matrix(-1.057357,0.027977,0.012352,3.221652,6556.409717,-33579.675832)">
                            <path d="M4147.575,12241.808C4148.425,12239.994 4150.126,12239.994 4150.976,12240.6C4151.826,12241.205 4151.826,12242.417 4150.976,12243.628C4150.381,12244.537 4148.851,12245.446 4147.575,12246.051C4146.3,12245.446 4144.77,12244.537 4144.174,12243.628C4143.324,12242.417 4143.324,12241.205 4144.174,12240.6C4145.025,12239.994 4146.725,12239.994 4147.575,12241.808Z" style="fill:rgb(252,111,97);stroke:rgb(10,42,87);stroke-width:0.45px;stroke-linecap:butt;"></path>
                        </g>
                        <g transform="matrix(1.057357,0.027977,-0.012352,3.221652,-1899.026773,-33579.675832)">
                            <path d="M4147.575,12241.808C4148.425,12239.994 4150.126,12239.994 4150.976,12240.6C4151.826,12241.205 4151.826,12242.417 4150.976,12243.628C4150.381,12244.537 4148.851,12245.446 4147.575,12246.051C4146.3,12245.446 4144.77,12244.537 4144.174,12243.628C4143.324,12242.417 4143.324,12241.205 4144.174,12240.6C4145.025,12239.994 4146.725,12239.994 4147.575,12241.808Z" style="fill:rgb(252,111,97);stroke:rgb(10,42,87);stroke-width:0.45px;stroke-linecap:butt;"></path>
                        </g>
                    </g>
                    <g transform="matrix(1,0,0,0.904053,-23.157405,834.224557)">
                        <g transform="matrix(0.913269,0,0,0.581369,-2776.269961,3841.472236)">
                            <path d="M3581.191,9204.61C3577.036,9204.602 3573.353,9203.243 3570.731,9200.639C3568.441,9198.364 3566.868,9195.147 3566.589,9191.042C3566.558,9190.575 3566.522,9190.131 3566.7,9189.932C3566.925,9189.681 3567.268,9189.531 3567.577,9189.619C3571.043,9190.606 3576.517,9192.178 3581.191,9192.223C3585.866,9192.178 3591.34,9190.606 3594.806,9189.619C3595.114,9189.531 3595.458,9189.681 3595.683,9189.932C3595.861,9190.131 3595.825,9190.575 3595.794,9191.042C3595.515,9195.147 3593.942,9198.364 3591.652,9200.639C3589.03,9203.243 3585.347,9204.602 3581.191,9204.61Z" style="fill:rgb(1,31,67);stroke:rgb(2,25,65);stroke-width:0.73px;"></path>
                        </g>
                        <g transform="matrix(1.587947,0,0,1.067504,-98.127921,8801.378855)">
                            <path d="M368.628,365.573C368.615,365.508 368.608,365.442 368.608,365.376C368.608,364.228 370.617,363.297 373.091,363.297C375.565,363.297 377.573,364.228 377.573,365.376C377.573,365.442 377.567,365.508 377.554,365.573C376.271,366.263 374.746,366.619 373.091,366.621C371.435,366.619 369.91,366.263 368.628,365.573Z" style="fill:rgb(252,111,97);stroke:rgb(15,27,57);stroke-width:0.24px;stroke-miterlimit:1.414;"></path>
                        </g>
                    </g>
                </g>
                <g transform="matrix(2.084763,0,0,17.570044,-8512.495578,-222318.925862)">
                    <rect x="5044.791" y="12958.902" width="32.945" height="32.945" style="fill:none;"></rect>
                </g>
            </g>
        </g>
    </g>
</svg>