<?xml version="1.0"?>

<svg width="100%" height="100%" viewBox="0 0 44 44" version="1.1" xmlns="http://www.w3.org/2000/svg" xmlns:xlink="http://www.w3.org/1999/xlink" xml:space="preserve" xmlns:serif="http://www.serif.com/" style="fill-rule:evenodd;clip-rule:evenodd;stroke-linecap:round;stroke-linejoin:round;stroke-miterlimit:1.585;">
    <g transform="matrix(1,0,0,1,-37,-80)">
        <g transform="matrix(1,0,0,1,619.885186,0)">
            <g id="smajlik-neutralny" transform="matrix(0.626642,0,0,0.074354,-1838.682024,-319.082897)">
                <g transform="matrix(1.00495,-0,0,13.007794,1565.541599,-113139.519998)">
                    <g transform="matrix(1.792443,0,0,0.444259,-3703.791486,6472.256359)">
                        <g transform="matrix(1,0,0,2.627038,1203.382962,-20238.034462)">
                            <circle cx="1125.815" cy="9983.455" r="16.867" style="fill:rgb(115,221,227);stroke:rgb(10,42,87);stroke-width:1.26px;"></circle>
                        </g>
                        <g transform="matrix(0.949729,0,0,3.360837,1256.810825,-27541.900167)">
                            <circle cx="1122.835" cy="9973.979" r="2.185" style="fill:rgb(10,42,87);"></circle>
                        </g>
                        <g transform="matrix(-0,-2.494973,1.132631,-0,-8978.083856,8797.36082)">
                            <circle cx="1122.835" cy="9973.979" r="2.185" style="fill:rgb(71,193,202);"></circle>
                        </g>
                        <g transform="matrix(-0,-2.494973,1.132631,-0,-8957.194839,8797.36082)">
                            <circle cx="1122.835" cy="9973.979" r="2.185" style="fill:rgb(71,193,202);"></circle>
                        </g>
                        <g transform="matrix(0.949729,0,0,3.360837,1268.806717,-27541.900167)">
                            <circle cx="1122.835" cy="9973.979" r="2.185" style="fill:rgb(10,42,87);"></circle>
                        </g>
                    </g>
                    <g transform="matrix(0.756501,-0,0,0.544569,-2238.036725,4136.997515)">
                        <path d="M3566.634,9189.246L3595.82,9189.246" style="fill:none;stroke:rgb(10,42,87);stroke-width:2.66px;"></path>
                    </g>
                </g>
                <g transform="matrix(2.084763,0,0,17.570044,-8512.495578,-222318.925862)">
                    <rect x="5044.791" y="12958.902" width="32.945" height="32.945" style="fill:none;"></rect>
                </g>
            </g>
        </g>
    </g>
</svg>