<?xml version="1.0"?>

<svg width="100%" height="100%" viewBox="0 0 33 32" version="1.1" xmlns="http://www.w3.org/2000/svg" xmlns:xlink="http://www.w3.org/1999/xlink" xml:space="preserve" xmlns:serif="http://www.serif.com/" style="fill-rule:evenodd;clip-rule:evenodd;stroke-linecap:round;stroke-linejoin:round;stroke-miterlimit:1.58537;">
    <g transform="matrix(1,0,0,1,-2550,-14598)">
        <g transform="matrix(0.656041,0,0,0.119338,1728.95,13980.7)">
            <g id="rozvijanie_poznania_grey" transform="matrix(0.460695,0,0,1.04466,667.287,-1381.2)">
                <g transform="matrix(1,0,0,2.42431,-8728.47,4052.74)">
                    <circle cx="10050.8" cy="969.978" r="49.743" style="fill:none;stroke:rgb(14,122,135);stroke-width:4.43px;"></circle>
                </g>
                <g transform="matrix(0.850615,0,0,0.850615,-95.5855,889.815)">
                    <g>
                        <g transform="matrix(0.140688,0,0,0.34107,236.501,6094.45)">
                            <path d="M10083.1,1102.87C10069.4,1119.18 10048.9,1129.55 10026,1129.55C9984.78,1129.55 9951.34,1096.12 9951.34,1054.94C9951.34,1021.57 9973.29,993.292 10003.5,983.76" style="fill:none;stroke:rgb(14,122,135);stroke-width:33.32px;"></path>
                        </g>
                        <g transform="matrix(0.140688,0,0,0.34107,236.501,6094.45)">
                            <path d="M10050.8,1019.72C10023.4,1019.72 10001.1,997.432 10001.1,969.978C10001.1,942.524 10023.4,920.235 10050.8,920.235C10057.6,920.235 10070.3,923.813 10070.4,923.025C10074,899.49 10094.3,881.419 10118.8,881.419C10145.8,881.419 10167.7,903.332 10167.7,930.323" style="fill:none;stroke:rgb(14,122,135);stroke-width:33.32px;"></path>
                        </g>
                        <g transform="matrix(0.167259,0,0,0.405488,-30.1196,6139.5)">
                            <path d="M10064.2,1017.9C10059.9,1019.09 10055.5,1019.72 10050.8,1019.72C10023.4,1019.72 10001.1,997.432 10001.1,969.978C10001.1,942.524 10023.4,920.235 10050.8,920.235C10056.8,920.235 10062.5,921.286 10067.8,923.213" style="fill:none;stroke:rgb(14,122,135);stroke-width:28.03px;"></path>
                        </g>
                        <g transform="matrix(0.138315,0,0,0.335319,269.904,6228.8)">
                            <path d="M10100.6,969.978C10100.6,997.432 10078.3,1019.72 10050.8,1019.72C10023.4,1019.72 10001.1,997.432 10001.1,969.978" style="fill:none;stroke:rgb(14,122,135);stroke-width:33.89px;"></path>
                        </g>
                        <g transform="matrix(0.211031,0,0,0.511605,-477.108,5997.78)">
                            <path d="M10050.8,1019.72C10023.4,1019.72 10001.1,997.432 10001.1,969.978C10001.1,950.5 10012.3,933.622 10028.6,925.459" style="fill:none;stroke:rgb(14,122,135);stroke-width:22.21px;"></path>
                        </g>
                    </g>
                    <g transform="matrix(-1,0,0,1,3333.93,0)">
                        <g transform="matrix(0.140688,0,0,0.34107,236.501,6094.45)">
                            <path d="M10083.1,1102.87C10069.4,1119.18 10048.9,1129.55 10026,1129.55C9984.78,1129.55 9951.34,1096.12 9951.34,1054.94C9951.34,1021.57 9973.29,993.292 10003.5,983.76" style="fill:none;stroke:rgb(14,122,135);stroke-width:33.32px;"></path>
                        </g>
                        <g transform="matrix(0.140688,0,0,0.34107,236.501,6094.45)">
                            <path d="M10050.8,1019.72C10023.4,1019.72 10001.1,997.432 10001.1,969.978C10001.1,942.524 10023.4,920.235 10050.8,920.235C10057.6,920.235 10070.3,923.813 10070.4,923.025C10074,899.49 10094.3,881.419 10118.8,881.419C10145.8,881.419 10167.7,903.332 10167.7,930.323C10167.7,957.314 10167.7,1344.4 10167.7,1344.4" style="fill:none;stroke:rgb(14,122,135);stroke-width:33.32px;"></path>
                        </g>
                        <g transform="matrix(0.167259,0,0,0.405488,-30.1196,6139.5)">
                            <path d="M10064.2,1017.9C10059.9,1019.09 10055.5,1019.72 10050.8,1019.72C10023.4,1019.72 10001.1,997.432 10001.1,969.978C10001.1,942.524 10023.4,920.235 10050.8,920.235C10056.8,920.235 10062.5,921.286 10067.8,923.213" style="fill:none;stroke:rgb(14,122,135);stroke-width:28.03px;"></path>
                        </g>
                        <g transform="matrix(0.138315,0,0,0.335319,269.904,6228.8)">
                            <path d="M10100.6,969.978C10100.6,997.432 10078.3,1019.72 10050.8,1019.72C10023.4,1019.72 10001.1,997.432 10001.1,969.978" style="fill:none;stroke:rgb(14,122,135);stroke-width:33.89px;"></path>
                        </g>
                        <g transform="matrix(0.211031,0,0,0.511605,-477.108,5997.78)">
                            <path d="M10050.8,1019.72C10023.4,1019.72 10001.1,997.432 10001.1,969.978C10001.1,950.5 10012.3,933.622 10028.6,925.459" style="fill:none;stroke:rgb(14,122,135);stroke-width:22.21px;"></path>
                        </g>
                    </g>
                </g>
            </g>
        </g>
    </g>
</svg>