<?xml version="1.0"?>

<svg width="100%" height="100%" viewBox="0 0 33 32" version="1.1" xmlns="http://www.w3.org/2000/svg" xmlns:xlink="http://www.w3.org/1999/xlink" xml:space="preserve" xmlns:serif="http://www.serif.com/" style="fill-rule:evenodd;clip-rule:evenodd;stroke-linecap:round;stroke-linejoin:round;stroke-miterlimit:1.58537;">
    <g transform="matrix(1,0,0,1,-2623,-14598)">
        <g transform="matrix(0.656041,0,0,0.119338,1728.95,13980.7)">
            <g id="sluchove_rozlisovanie_grey" transform="matrix(0.460695,0,0,1.04466,713.776,-1728.1)">
                <g transform="matrix(1,0,0,2.42431,-8587.52,4384.81)">
                    <circle cx="10050.8" cy="969.978" r="49.743" style="fill:none;stroke:rgb(14,122,135);stroke-width:4.43px;"></circle>
                </g>
                <g transform="matrix(0.613018,0,0,0.613018,447.849,2553.34)">
                    <g>
                        <g transform="matrix(1,0,0,2.42431,-8617.01,4118.53)">
                            <path d="M10244.1,1099.14C10244.1,1082.35 10257.7,1068.72 10274.5,1068.72C10291.3,1068.72 10305,1082.35 10305,1099.14C10305,1106 10301,1118.25 10297.2,1123.34C10291.6,1130.71 10280.1,1136.44 10277.6,1145.14C10275.1,1153.84 10269.6,1162.9 10259.8,1162.9C10250,1162.9 10242.1,1154.95 10242.1,1145.14" style="fill:none;stroke:rgb(14,122,135);stroke-width:7.23px;"></path>
                        </g>
                        <g transform="matrix(0.469248,0.141687,-0.0584443,1.1376,-3103.69,4093.29)">
                            <path d="M10279.1,1082.38C10287.5,1083.74 10297.5,1089.41 10300.2,1103.57C10301.5,1110.32 10299.1,1121.4 10293.2,1128.51C10287.4,1135.62 10280.1,1136.44 10277.6,1145.14C10275.1,1153.84 10269.6,1162.9 10259.8,1162.9C10250,1162.9 10242.1,1154.95 10242.1,1145.14" style="fill:none;stroke:rgb(14,122,135);stroke-width:15.28px;"></path>
                        </g>
                        <g transform="matrix(0.968178,0,0,2.34717,-8281.58,4200.6)">
                            <path d="M10257.2,1110.99C10254.3,1108.2 10252.5,1104.26 10252.5,1099.88C10252.5,1091.43 10259.3,1084.56 10267.8,1084.56C10272.3,1084.56 10276.3,1086.48 10279.1,1089.55" style="fill:none;stroke:rgb(14,122,135);stroke-width:7.46px;"></path>
                        </g>
                    </g>
                </g>
            </g>
        </g>
    </g>
</svg>