<?xml version="1.0"?>

<svg width="100%" height="100%" viewBox="0 0 42 41" version="1.1" xmlns="http://www.w3.org/2000/svg" xmlns:xlink="http://www.w3.org/1999/xlink" xml:space="preserve" xmlns:serif="http://www.serif.com/" style="fill-rule:evenodd;clip-rule:evenodd;stroke-linejoin:round;stroke-miterlimit:2;">
    <g transform="matrix(1,0,0,1,-113,-3031)">
        <g transform="matrix(0.853251,0,0,0.127093,1697.07,2900.91)">
            <g transform="matrix(0.464911,0,0,3.12123,-4376.68,467.298)">
                <path d="M5525.02,199.32L5525.02,260.635C5525.02,271.915 5515.86,281.073 5504.58,281.073L5443.26,281.073C5431.98,281.073 5422.83,271.915 5422.83,260.635L5422.83,199.32C5422.83,188.04 5431.98,178.882 5443.26,178.882L5504.58,178.882C5515.86,178.882 5525.02,188.04 5525.02,199.32Z" style="fill:none;"></path>
            </g>
            <g>
                <g id="library-books" transform="matrix(2.90987,0,0,17.0938,-6420.29,-3211.68)">
                    <path d="M1573.49,260.57C1573.86,260.57 1574.15,260.906 1574.15,261.32C1574.15,261.561 1574.15,261.829 1574.15,262.07C1574.15,262.484 1573.86,262.82 1573.49,262.82C1573.2,262.82 1572.85,262.82 1572.56,262.82C1572.19,262.82 1571.9,262.484 1571.9,262.07C1571.9,261.829 1571.9,261.561 1571.9,261.32C1571.9,260.906 1572.19,260.57 1572.56,260.57C1572.85,260.57 1573.2,260.57 1573.49,260.57ZM1573.49,256.111C1573.86,256.111 1574.15,256.447 1574.15,256.861C1574.15,257.103 1574.15,257.37 1574.15,257.611C1574.15,258.026 1573.86,258.361 1573.49,258.361C1573.2,258.361 1572.85,258.361 1572.56,258.361C1572.19,258.361 1571.9,258.026 1571.9,257.611C1571.9,257.37 1571.9,257.103 1571.9,256.861C1571.9,256.447 1572.19,256.111 1572.56,256.111C1572.85,256.111 1573.2,256.111 1573.49,256.111ZM1573.49,251.611C1573.86,251.611 1574.15,251.947 1574.15,252.361C1574.15,252.603 1574.15,252.87 1574.15,253.111C1574.15,253.526 1573.86,253.861 1573.49,253.861C1573.2,253.861 1572.85,253.861 1572.56,253.861C1572.19,253.861 1571.9,253.526 1571.9,253.111C1571.9,252.87 1571.9,252.603 1571.9,252.361C1571.9,251.947 1572.19,251.611 1572.56,251.611C1572.85,251.611 1573.2,251.611 1573.49,251.611Z" style="fill:rgb(114,182,0);fill-rule:nonzero;"></path>
                </g>
                <g id="library-books1" transform="matrix(2.90987,0,0,17.0938,-6409.09,-3211.68)">
                    <path d="M1573.49,260.57C1573.86,260.57 1574.15,260.906 1574.15,261.32C1574.15,261.561 1574.15,261.829 1574.15,262.07C1574.15,262.484 1573.86,262.82 1573.49,262.82C1573.2,262.82 1572.85,262.82 1572.56,262.82C1572.19,262.82 1571.9,262.484 1571.9,262.07C1571.9,261.829 1571.9,261.561 1571.9,261.32C1571.9,260.906 1572.19,260.57 1572.56,260.57C1572.85,260.57 1573.2,260.57 1573.49,260.57ZM1573.49,256.111C1573.86,256.111 1574.15,256.447 1574.15,256.861C1574.15,257.103 1574.15,257.37 1574.15,257.611C1574.15,258.026 1573.86,258.361 1573.49,258.361C1573.2,258.361 1572.85,258.361 1572.56,258.361C1572.19,258.361 1571.9,258.026 1571.9,257.611C1571.9,257.37 1571.9,257.103 1571.9,256.861C1571.9,256.447 1572.19,256.111 1572.56,256.111C1572.85,256.111 1573.2,256.111 1573.49,256.111ZM1573.49,251.611C1573.86,251.611 1574.15,251.947 1574.15,252.361C1574.15,252.603 1574.15,252.87 1574.15,253.111C1574.15,253.526 1573.86,253.861 1573.49,253.861C1573.2,253.861 1572.85,253.861 1572.56,253.861C1572.19,253.861 1571.9,253.526 1571.9,253.111C1571.9,252.87 1571.9,252.603 1571.9,252.361C1571.9,251.947 1572.19,251.611 1572.56,251.611C1572.85,251.611 1573.2,251.611 1573.49,251.611Z" style="fill:rgb(114,182,0);fill-rule:nonzero;"></path>
                </g>
                <g id="library-books2" transform="matrix(2.90987,0,0,17.0938,-6397.9,-3211.68)">
                    <path d="M1573.49,260.57C1573.86,260.57 1574.15,260.906 1574.15,261.32C1574.15,261.561 1574.15,261.829 1574.15,262.07C1574.15,262.484 1573.86,262.82 1573.49,262.82C1573.2,262.82 1572.85,262.82 1572.56,262.82C1572.19,262.82 1571.9,262.484 1571.9,262.07C1571.9,261.829 1571.9,261.561 1571.9,261.32C1571.9,260.906 1572.19,260.57 1572.56,260.57C1572.85,260.57 1573.2,260.57 1573.49,260.57ZM1573.49,256.111C1573.86,256.111 1574.15,256.447 1574.15,256.861C1574.15,257.103 1574.15,257.37 1574.15,257.611C1574.15,258.026 1573.86,258.361 1573.49,258.361C1573.2,258.361 1572.85,258.361 1572.56,258.361C1572.19,258.361 1571.9,258.026 1571.9,257.611C1571.9,257.37 1571.9,257.103 1571.9,256.861C1571.9,256.447 1572.19,256.111 1572.56,256.111C1572.85,256.111 1573.2,256.111 1573.49,256.111ZM1573.49,251.611C1573.86,251.611 1574.15,251.947 1574.15,252.361C1574.15,252.603 1574.15,252.87 1574.15,253.111C1574.15,253.526 1573.86,253.861 1573.49,253.861C1573.2,253.861 1572.85,253.861 1572.56,253.861C1572.19,253.861 1571.9,253.526 1571.9,253.111C1571.9,252.87 1571.9,252.603 1571.9,252.361C1571.9,251.947 1572.19,251.611 1572.56,251.611C1572.85,251.611 1573.2,251.611 1573.49,251.611Z" style="fill:rgb(114,182,0);fill-rule:nonzero;"></path>
                </g>
            </g>
        </g>
    </g>
</svg>