<?xml version="1.0"?>

<svg width="100%" height="100%" viewBox="0 0 51 51" version="1.1" xmlns="http://www.w3.org/2000/svg" xmlns:xlink="http://www.w3.org/1999/xlink" xml:space="preserve" xmlns:serif="http://www.serif.com/" style="fill-rule:evenodd;clip-rule:evenodd;stroke-linejoin:round;stroke-miterlimit:2;">
    <g transform="matrix(1,0,0,1,-2780,-6684)">
        <g transform="matrix(1,0,0,1,-0.467591,-0.704199)">
            <g transform="matrix(1,0,0,1,0,17.7395)">
                <g transform="matrix(0.16548,0,0,0.16548,2344.79,5626.02)">
                    <g>
                        <g transform="matrix(1.16868,0,0,1.38997,-714.456,-2211.69)">
                            <path d="M2980.31,6293.16C2980.31,6293.62 2980.31,6293.86 2980.31,6293.86C2956.85,6290.57 2951.76,6290.54 2933.6,6291.73C2900.99,6293.85 2901.95,6298.76 2895.39,6292.23C2894.01,6290.86 2895.11,6198.92 2895.34,6189.46C2895.42,6186.18 2900.55,6185.03 2907.87,6185.19C2907.53,6214.86 2905.81,6264.87 2907.94,6267.99C2917.93,6282.66 2927.64,6277.09 2944.91,6279.77C2963.09,6282.6 2967.34,6286.1 2980.31,6293.16Z" style="fill:rgb(0,136,204);"></path>
                        </g>
                        <g transform="matrix(0.883762,0,0,1.28339,137.973,-1581.5)">
                            <path d="M2991.52,6214.83C2992.18,6216.62 2991.52,6320.89 2991.52,6320.89C2978.46,6312.03 2965.13,6305.24 2946.99,6302.2C2906.03,6295.31 2900.94,6301.62 2895.52,6296.05C2894.16,6294.66 2895.11,6198.92 2895.34,6189.46C2895.57,6179.99 2942.23,6185.8 2958.15,6192.03C2978.27,6199.9 2988.96,6207.81 2991.52,6214.83Z" style="fill:rgb(0,136,204);"></path>
                        </g>
                        <g transform="matrix(-1.16868,0,0,1.38997,6292.72,-2211.69)">
                            <path d="M2980.31,6293.16C2980.31,6293.62 2980.31,6293.86 2980.31,6293.86C2956.85,6290.57 2951.76,6290.54 2933.6,6291.73C2900.99,6293.85 2901.95,6298.76 2895.39,6292.23C2894.01,6290.86 2895.11,6198.92 2895.34,6189.46C2895.42,6186.18 2900.55,6185.03 2907.87,6185.19C2907.53,6214.86 2905.81,6264.87 2907.94,6267.99C2917.93,6282.66 2927.64,6277.09 2944.91,6279.77C2963.09,6282.6 2967.34,6286.1 2980.31,6293.16Z" style="fill:rgb(0,136,204);"></path>
                        </g>
                        <g transform="matrix(-0.883762,0,0,1.28339,5440.29,-1581.5)">
                            <path d="M2991.52,6214.83C2992.18,6216.62 2991.52,6320.89 2991.52,6320.89C2978.46,6312.03 2965.13,6305.24 2946.99,6302.2C2906.03,6295.31 2900.94,6301.62 2895.52,6296.05C2894.16,6294.66 2895.11,6198.92 2895.34,6189.46C2895.57,6179.99 2942.23,6185.8 2958.15,6192.03C2978.27,6199.9 2988.96,6207.81 2991.52,6214.83Z" style="fill:rgb(0,136,204);"></path>
                        </g>
                    </g>
                </g>
                <g transform="matrix(1.50278,0,0,1.45894,1435.41,5833.26)">
                    <rect x="895.622" y="572.098" width="33.272" height="34.272" style="fill:none;"></rect>
                </g>
            </g>
        </g>
    </g>
</svg>