<?xml version="1.0"?>

<svg width="100%" height="100%" viewBox="0 0 32 32" version="1.1" xmlns="http://www.w3.org/2000/svg" xmlns:xlink="http://www.w3.org/1999/xlink" xml:space="preserve" xmlns:serif="http://www.serif.com/" style="fill-rule:evenodd;clip-rule:evenodd;stroke-linejoin:round;stroke-miterlimit:2;">
    <g transform="matrix(1,0,0,1,-2896,-14622)">
        <g transform="matrix(0.656041,0,0,0.119338,1728.95,13980.7)">
            <g id="close" transform="matrix(1.17544,0,0,6.46174,-5261.92,-110157)">
                <path d="M6003.16,17900.4L5991.52,17888.7C5989.54,17886.8 5989.54,17883.6 5991.52,17881.6C5993.49,17879.6 5996.7,17879.6 5998.68,17881.6L6010.33,17893.2L6021.97,17881.6C6023.95,17879.6 6027.16,17879.6 6029.14,17881.6C6031.12,17883.6 6031.12,17886.8 6029.14,17888.7L6017.49,17900.4L6029.14,17912C6031.12,17914 6031.12,17917.2 6029.14,17919.2C6027.16,17921.2 6023.95,17921.2 6021.97,17919.2L6010.33,17907.6L5998.68,17919.2C5996.7,17921.2 5993.49,17921.2 5991.52,17919.2C5989.54,17917.2 5989.54,17914 5991.52,17912L6003.16,17900.4Z" style="fill:rgb(0,136,204);"></path>
            </g>
        </g>
    </g>
</svg>