<?xml version="1.0"?>

<svg width="100%" height="100%" viewBox="0 0 41 41" version="1.1" xmlns="http://www.w3.org/2000/svg" xmlns:xlink="http://www.w3.org/1999/xlink" xml:space="preserve" xmlns:serif="http://www.serif.com/" style="fill-rule:evenodd;clip-rule:evenodd;stroke-linecap:round;stroke-miterlimit:10;">
    <g transform="matrix(1,0,0,1,-2417,-6109)">
        <g transform="matrix(1,0,0,1,-0.467591,-0.704199)">
            <g id="download" transform="matrix(1,0,0,1,46.1011,-50.862)">
                <g transform="matrix(0.89677,0,0,1.0231,1520.16,5400.17)">
                    <g transform="matrix(1,0,0,1,-3400.5,-5964.76)">
                        <g transform="matrix(1.11511,-0,-0,0.977419,4349.69,6707.99)">
                            <path d="M30.565,19.703L20.439,26.454L10.313,19.703" style="fill:none;stroke:rgb(0,136,204);stroke-width:5.02px;"></path>
                            <path d="M20.439,4.41L20.439,26.454" style="fill:none;stroke:rgb(0,136,204);stroke-width:5.02px;stroke-linejoin:round;stroke-miterlimit:1.41421;"></path>
                        </g>
                    </g>
                    <g transform="matrix(1,0,0,1,-3392.38,-5966.7)">
                        <path d="M4382.02,6735.4L4382.02,6745.02L4346.71,6745.02L4346.71,6735.09" style="fill:none;stroke:rgb(0,136,204);stroke-width:5.22px;stroke-linejoin:round;stroke-miterlimit:1.41421;"></path>
                    </g>
                </g>
                <g transform="matrix(1,0,0,1.08534,0.467591,-526.685)">
                    <rect x="2371.34" y="6161.59" width="40" height="36.855" style="fill:none;"></rect>
                </g>
            </g>
        </g>
    </g>
</svg>