<?xml version="1.0"?>

<svg width="100%" height="100%" viewBox="0 0 49 33" version="1.1" xmlns="http://www.w3.org/2000/svg" xmlns:xlink="http://www.w3.org/1999/xlink" xml:space="preserve" xmlns:serif="http://www.serif.com/" style="fill-rule:evenodd;clip-rule:evenodd;stroke-linejoin:round;stroke-miterlimit:2;">
    <g transform="matrix(1,0,0,1,-5852,-3024)">
        <g transform="matrix(1,0,0,1.59013,-0.279951,3549.28)">
            <g transform="matrix(1.59701,0,0,1.06352,1836.1,-592.715)">
                <path d="M2545.28,249.602C2545.28,248.296 2544.16,247.236 2542.78,247.236L2517.78,247.236C2516.4,247.236 2515.28,248.296 2515.28,249.602L2515.28,263.758C2515.28,265.063 2516.4,266.123 2517.78,266.123L2542.78,266.123C2544.16,266.123 2545.28,265.063 2545.28,263.758L2545.28,249.602Z" style="fill:rgb(153,153,153);"></path>
                <clipPath id="_clip1">
                    <path d="M2545.28,249.602C2545.28,248.296 2544.16,247.236 2542.78,247.236L2517.78,247.236C2516.4,247.236 2515.28,248.296 2515.28,249.602L2515.28,263.758C2515.28,265.063 2516.4,266.123 2517.78,266.123L2542.78,266.123C2544.16,266.123 2545.28,265.063 2545.28,263.758L2545.28,249.602Z"></path>
                </clipPath>
                <g clip-path="url(#_clip1)">
                    <g transform="matrix(0.0694997,0,0,0.0656317,2492.75,193.669)">
                        <path d="M324.172,809.068L324.172,1111.07L755.828,1111.07L755.828,809.068L324.172,809.068" style="fill:rgb(33,65,142);fill-rule:nonzero;"></path>
                        <path d="M588.318,960.068L755.828,842.875L755.828,809.068L707.51,809.068L540,926.266L588.318,960.068" style="fill:rgb(242,242,242);fill-rule:nonzero;"></path>
                        <path d="M324.172,1111.07L372.49,1111.07L540,993.875L491.682,960.068L324.172,1077.27L324.172,1111.07" style="fill:rgb(242,242,242);fill-rule:nonzero;"></path>
                        <path d="M540,993.875L707.51,1111.07L755.828,1111.07L755.828,1077.27L588.318,960.068L540,926.266L372.49,809.068L324.172,809.068L324.172,842.875L491.682,960.068L540,993.875" style="fill:rgb(242,242,242);fill-rule:nonzero;"></path>
                        <path d="M540,960.068L755.828,1111.07L755.828,1089.73L570.333,960.068L540,960.068L324.172,809.068L324.172,831.099L508.286,960.068L540,960.068" style="fill:rgb(228,0,1);fill-rule:nonzero;"></path>
                        <path d="M324.172,1111.07L355.885,1111.07L540,982.792L540,960.068L324.172,1111.07" style="fill:rgb(228,0,1);fill-rule:nonzero;"></path>
                        <path d="M540,960.068L755.828,809.068L724.109,809.068L540,938.042L540,960.068" style="fill:rgb(228,0,1);fill-rule:nonzero;"></path>
                        <path d="M324.172,916.281L324.172,1003.17L755.828,1003.17L755.828,916.281L324.172,916.281" style="fill:rgb(242,242,242);fill-rule:nonzero;"></path>
                        <path d="M497.026,809.073L497.026,1111.07L583.505,1111.07L583.505,809.073L497.026,809.073" style="fill:rgb(242,242,242);fill-rule:nonzero;"></path>
                        <path d="M324.172,934.37L324.172,984.802L755.828,984.802L755.828,934.37L324.172,934.37" style="fill:rgb(228,0,1);fill-rule:nonzero;"></path>
                        <path d="M515.635,809.073L515.635,1111.07L565.443,1111.07L565.443,809.073L515.635,809.073" style="fill:rgb(228,0,1);fill-rule:nonzero;"></path>
                    </g>
                </g>
            </g>
        </g>
    </g>
</svg>