<?xml version="1.0"?>

<svg width="100%" height="100%" viewBox="0 0 33 32" version="1.1" xmlns="http://www.w3.org/2000/svg" xmlns:xlink="http://www.w3.org/1999/xlink" xml:space="preserve" xmlns:serif="http://www.serif.com/" style="fill-rule:evenodd;clip-rule:evenodd;stroke-linecap:round;stroke-linejoin:round;stroke-miterlimit:1.58537;">
    <g transform="matrix(1,0,0,1,-5065,-13143)">
        <g transform="matrix(0.498997,0,0,0.0592082,4329.3,12787.5)">
            <g id="enviromentalne_citenie" transform="matrix(0.363384,0,0,3.05781,625.692,-14851.9)">
                <g transform="matrix(1.66679,0,0,1.66937,-14326.8,5289.63)">
                    <circle cx="10050.8" cy="969.978" r="49.743" style="fill:none;stroke:rgb(0,136,204);stroke-width:4.43px;"></circle>
                </g>
                <g transform="matrix(1.66266,0,0,0.686887,-1824.96,2288.81)">
                    <g transform="matrix(0.166114,-2.60658,-1.07518,-0.402711,9339.65,53615.4)">
                        <path d="M16596,8872.06C16596.9,8871.34 16599.9,8867.64 16603.4,8865.48C16609.2,8861.95 16619.5,8854.4 16627.2,8854.5C16621,8855.63 16610.4,8862.82 16604.9,8870.05C16602.4,8873.27 16596.7,8875.61 16596.7,8875.61C16596.7,8875.61 16610.6,8883.3 16622.7,8872.82C16625.5,8870.47 16632.9,8862.18 16635,8859.12C16638.1,8854.68 16645.1,8850.88 16645.1,8850.88C16644.8,8850.79 16636.4,8848.06 16627.3,8847.45C16620.8,8847.01 16613.8,8848.17 16609.9,8849.79C16596.1,8855.5 16595.3,8866.42 16596,8872.06Z" style="fill:rgb(0,136,204);"></path>
                    </g>
                    <g transform="matrix(-0.322813,-1.56924,0.647294,-0.782599,2162.96,39768)">
                        <path d="M16596,8872.06C16596.9,8871.34 16599.9,8867.64 16603.4,8865.48C16609.2,8861.95 16619.5,8854.4 16627.2,8854.5C16621,8855.63 16610.4,8862.82 16604.9,8870.05C16602.4,8873.27 16596.7,8875.61 16596.7,8875.61C16596.7,8875.61 16610.6,8883.3 16622.7,8872.82C16625.5,8870.47 16632.9,8862.18 16635,8859.12C16638.1,8854.68 16645.1,8850.88 16645.1,8850.88C16644.8,8850.79 16636.4,8848.06 16627.3,8847.45C16620.8,8847.01 16613.8,8848.17 16609.9,8849.79C16596.1,8855.5 16595.3,8866.42 16596,8872.06Z" style="fill:rgb(0,136,204);"></path>
                    </g>
                </g>
            </g>
        </g>
    </g>
</svg>