<?xml version="1.0"?>

<svg width="100%" height="100%" viewBox="0 0 41 41" version="1.1" xmlns="http://www.w3.org/2000/svg" xmlns:xlink="http://www.w3.org/1999/xlink" xml:space="preserve" xmlns:serif="http://www.serif.com/" style="fill-rule:evenodd;clip-rule:evenodd;stroke-linejoin:round;stroke-miterlimit:2;">
    <g transform="matrix(1,0,0,1,-247,-2928)">
        <g transform="matrix(0.853251,0,0,0.127093,1697.07,2900.91)">
            <g transform="matrix(0.464911,0,0,3.12123,-4220.51,-343.157)">
                <path d="M5525.02,199.32L5525.02,260.635C5525.02,271.915 5515.86,281.073 5504.58,281.073L5443.26,281.073C5431.98,281.073 5422.83,271.915 5422.83,260.635L5422.83,199.32C5422.83,188.04 5431.98,178.882 5443.26,178.882L5504.58,178.882C5515.86,178.882 5525.02,188.04 5525.02,199.32Z" style="fill:none;"></path>
            </g>
            <g transform="matrix(0.622815,-0.0176208,-0.00262464,4.18134,-2548.51,27.1249)">
                <path d="M1419.05,75.915L1409,85.96C1407.89,87.068 1406.09,87.06 1404.97,85.943C1403.86,84.826 1403.85,83.02 1404.95,81.912L1415,71.867L1403.74,71.82C1402.17,71.813 1400.89,70.53 1400.88,68.957C1400.87,67.384 1402.14,66.112 1403.72,66.119L1424.71,66.208L1424.8,87.196C1424.8,88.769 1423.53,90.041 1421.96,90.034C1420.38,90.028 1419.1,88.745 1419.1,87.172L1419.05,75.915Z"></path>
            </g>
            <g transform="matrix(-0.622815,0.0176208,0.00262464,-4.18134,-802.742,722.187)">
                <path d="M1419.05,75.915L1409,85.96C1407.89,87.068 1406.09,87.06 1404.97,85.943C1403.86,84.826 1403.85,83.02 1404.95,81.912L1415,71.867L1403.74,71.82C1402.17,71.813 1400.89,70.53 1400.88,68.957C1400.87,67.384 1402.14,66.112 1403.72,66.119L1424.71,66.208L1424.8,87.196C1424.8,88.769 1423.53,90.041 1421.96,90.034C1420.38,90.028 1419.1,88.745 1419.1,87.172L1419.05,75.915Z"></path>
            </g>
        </g>
    </g>
</svg>