<?xml version="1.0"?>

<svg width="100%" height="100%" viewBox="0 0 41 41" version="1.1" xmlns="http://www.w3.org/2000/svg" xmlns:xlink="http://www.w3.org/1999/xlink" xml:space="preserve" xmlns:serif="http://www.serif.com/" style="fill-rule:evenodd;clip-rule:evenodd;stroke-linejoin:round;stroke-miterlimit:2;">
    <g id="history_black" transform="matrix(1.31132,0,0,0.195321,2516.16,-210.927)">
        <g>
            <g id="history_black1">
                <g transform="matrix(0.464911,0,0,3.12123,-4447.63,467.298)">
                    <path d="M5525.02,199.32L5525.02,260.635C5525.02,271.915 5515.86,281.073 5504.58,281.073L5443.26,281.073C5431.98,281.073 5422.83,271.915 5422.83,260.635L5422.83,199.32C5422.83,188.04 5431.98,178.882 5443.26,178.882L5504.58,178.882C5515.86,178.882 5525.02,188.04 5525.02,199.32Z" style="fill:none;"></path>
                </g>
                <g id="library-books" transform="matrix(-1.95047,0,0,13.0947,1393.53,-2181.84)">
                    <path d="M1687.86,261.35L1687.86,262.739C1687.86,263.129 1687.54,263.446 1687.15,263.446L1686.43,263.446C1686.04,263.446 1685.73,263.129 1685.73,262.739L1685.73,261.35L1687.86,261.35ZM1691.41,261.35L1691.41,262.773C1691.41,262.961 1691.34,263.14 1691.2,263.273C1691.07,263.405 1690.89,263.48 1690.7,263.48L1689.99,263.48C1689.8,263.48 1689.62,263.405 1689.49,263.273C1689.35,263.14 1689.28,262.961 1689.28,262.773L1689.28,261.35L1691.41,261.35ZM1694.96,261.35L1694.96,262.775C1694.96,263.166 1694.65,263.482 1694.26,263.482L1693.54,263.482C1693.15,263.482 1692.83,263.166 1692.83,262.775L1692.83,261.35L1694.96,261.35ZM1694.26,250.765C1694.65,250.765 1694.96,251.081 1694.96,251.471L1694.96,258.508L1697.1,258.508L1697.1,259.929L1682.88,259.929L1682.88,258.508L1685.73,258.508L1685.73,255.782C1685.73,255.391 1686.04,255.075 1686.43,255.075L1687.15,255.075C1687.54,255.075 1687.86,255.391 1687.86,255.782L1687.86,258.508L1689.28,258.508L1689.28,253.919C1689.28,253.529 1689.6,253.213 1689.99,253.213L1690.7,253.213C1691.1,253.213 1691.41,253.529 1691.41,253.919L1691.41,258.508L1692.83,258.508L1692.83,251.471C1692.83,251.081 1693.15,250.765 1693.54,250.765L1694.26,250.765Z" style="fill-rule:nonzero;"></path>
                </g>
            </g>
        </g>
    </g>
</svg>