<?xml version="1.0"?>

<svg width="100%" height="100%" viewBox="0 0 38 39" version="1.1" xmlns="http://www.w3.org/2000/svg" xmlns:xlink="http://www.w3.org/1999/xlink" xml:space="preserve" xmlns:serif="http://www.serif.com/" style="fill-rule:evenodd;clip-rule:evenodd;stroke-linecap:round;stroke-linejoin:round;stroke-miterlimit:1.58537;">
    <g transform="matrix(1,0,0,1,-1844,-14903)">
        <g transform="matrix(0.656041,0,0,0.119338,810.986,14176.8)">
            <g id="icon_video_grey" transform="matrix(0.760619,0,0,1,180.687,-24.7108)">
                <g transform="matrix(0.545697,0,0,0.545697,669.534,2837.37)">
                    <g transform="matrix(2.08874,0,0,8.45581,-4450.5,-118270)">
                        <path d="M3166.03,14722.3L3166.03,14717C3166.03,14715.2 3167.25,14713.7 3168.89,14713.3C3168.95,14713.4 3169.01,14713.5 3169.07,14713.6L3177.51,14722.3L3166.03,14722.3ZM3173.14,14713.3L3179.37,14713.3C3179.44,14713.4 3179.52,14713.5 3179.61,14713.6L3188.05,14722.3L3181.87,14722.3L3173.14,14713.3ZM3183.79,14713.3L3198.95,14713.3C3200.97,14713.3 3202.61,14714.9 3202.61,14717L3202.61,14722.3L3192.52,14722.3L3183.79,14713.3ZM3202.61,14726.4L3202.61,14744.3C3202.61,14746.4 3200.97,14748.1 3198.95,14748.1L3169.68,14748.1C3167.67,14748.1 3166.03,14746.4 3166.03,14744.3L3166.03,14726.4L3202.61,14726.4Z" style="fill:rgb(173,173,174);"></path>
                    </g>
                    <g transform="matrix(5.20812e-17,3.59164,-0.997214,2.57162e-16,4939.66,-30361.2)">
                        <path d="M10218.3,2737.31L10232.2,2755.87L10204.4,2755.87L10218.3,2737.31Z" style="fill:white;stroke:white;stroke-width:5.08px;"></path>
                    </g>
                </g>
                <g transform="matrix(2.11402,-8.22024e-46,0,8.91407,-2709.92,-6532.86)">
                    <circle cx="2166.67" cy="1436.2" r="16.483" style="fill:none;stroke:rgb(173,173,174);stroke-width:2.79px;"></circle>
                </g>
            </g>
        </g>
    </g>
</svg>