<?xml version="1.0"?>

<svg width="100%" height="100%" viewBox="0 0 33 32" version="1.1" xmlns="http://www.w3.org/2000/svg" xmlns:xlink="http://www.w3.org/1999/xlink" xml:space="preserve" xmlns:serif="http://www.serif.com/" style="fill-rule:evenodd;clip-rule:evenodd;stroke-linecap:round;stroke-linejoin:round;stroke-miterlimit:1.58537;">
    <g transform="matrix(1,0,0,1,-4991,-13143)">
        <g transform="matrix(0.498997,0,0,0.0592082,4329.3,12787.5)">
            <g id="logicke_myslenie" transform="matrix(0.605684,0,0,2.10559,472.44,-7909.87)">
                <g transform="matrix(1,0,0,2.42431,-8587.52,4384.81)">
                    <circle cx="10050.8" cy="969.978" r="49.743" style="fill:none;stroke:rgb(0,136,204);stroke-width:4.43px;"></circle>
                </g>
                <g transform="matrix(1,0,0,1,-0.754185,3.34798)">
                    <g transform="matrix(0.372612,0,-5.37764e-17,0.919223,-1621.37,-5539.46)">
                        <path d="M8221.8,13394L8196.36,13394C8192.78,13394 8189.88,13391.2 8189.88,13387.6L8189.88,13321.2C8189.88,13311.1 8198.18,13303 8208.41,13303L8276.38,13303C8279.77,13303 8282.52,13305.7 8282.52,13309L8282.52,13330.9C8278.86,13328.3 8274.36,13326.7 8269.49,13326.7C8257.27,13326.7 8247.35,13336.5 8247.35,13348.5C8247.35,13360.5 8257.27,13370.2 8269.49,13370.2C8274.36,13370.2 8278.86,13368.7 8282.52,13366.1L8282.52,13387.6C8282.52,13391.2 8279.61,13394 8276.04,13394L8250.6,13394C8255.34,13398 8258.34,13403.9 8258.34,13410.5C8258.34,13422.5 8248.42,13432.3 8236.2,13432.3C8223.98,13432.3 8214.05,13422.5 8214.05,13410.5C8214.05,13403.9 8217.06,13398 8221.8,13394Z" style="fill:rgb(0,136,204);"></path>
                    </g>
                    <g transform="matrix(3.94106e-17,0.852088,-0.357661,-4.28437e-16,6255.81,-287.306)">
                        <path d="M8221.8,13394L8196.36,13394C8192.78,13394 8189.88,13391.2 8189.88,13387.6L8189.88,13321.2C8189.88,13311.1 8198.18,13303 8208.41,13303L8276.38,13303C8279.77,13303 8282.52,13305.7 8282.52,13309L8282.52,13330.9C8278.86,13328.3 8274.36,13326.7 8269.49,13326.7C8257.27,13326.7 8247.35,13336.5 8247.35,13348.5C8247.35,13360.5 8257.27,13370.2 8269.49,13370.2C8274.36,13370.2 8278.86,13368.7 8282.52,13366.1L8282.52,13387.6C8282.52,13391.2 8279.61,13394 8276.04,13394L8250.6,13394C8255.34,13398 8258.34,13403.9 8258.34,13410.5C8258.34,13422.5 8248.42,13432.3 8236.2,13432.3C8223.98,13432.3 8214.05,13422.5 8214.05,13410.5C8214.05,13403.9 8217.06,13398 8221.8,13394Z" style="fill:none;stroke:rgb(0,136,204);stroke-width:7.13px;"></path>
                    </g>
                </g>
            </g>
        </g>
    </g>
</svg>