<?xml version="1.0"?>

<svg width="100%" height="100%" viewBox="0 0 33 33" version="1.1" xmlns="http://www.w3.org/2000/svg" xmlns:xlink="http://www.w3.org/1999/xlink" xml:space="preserve" xmlns:serif="http://www.serif.com/" style="fill-rule:evenodd;clip-rule:evenodd;stroke-linecap:round;stroke-linejoin:round;stroke-miterlimit:1.58537;">
    <g transform="matrix(1,0,0,1,-5065,-13105)">
        <g transform="matrix(0.498997,0,0,0.0592082,4329.3,12787.5)">
            <g id="pocuvanie_s_porozumenim" transform="matrix(0.605684,0,0,2.10559,620.872,-7847.12)">
                <g transform="matrix(1,0,0,2.42431,-8587.52,4052.74)">
                    <circle cx="10050.8" cy="969.978" r="49.743" style="fill:none;stroke:rgb(0,136,204);stroke-width:4.43px;"></circle>
                </g>
                <g transform="matrix(0.854858,0,0,0.854858,-104.938,553.839)">
                    <g transform="matrix(1.1263,0,0,2.57275,-9925.18,3950.24)">
                        <path d="M10420.6,1159.25C10417.2,1158.68 10414.6,1155.6 10414.6,1151.89L10414.6,1128.59C10414.6,1124.87 10417.2,1121.79 10420.6,1121.22L10420.6,1159.25ZM10422.8,1121.22C10426.1,1121.79 10428.7,1124.87 10428.7,1128.59L10428.7,1151.89C10428.7,1155.6 10426.1,1158.68 10422.8,1159.25L10422.8,1121.22Z" style="fill:rgb(0,136,204);"></path>
                    </g>
                    <g transform="matrix(-1.1263,0,0,2.57275,13594.2,3950.24)">
                        <path d="M10420.6,1159.25C10417.2,1158.68 10414.6,1155.6 10414.6,1151.89L10414.6,1128.59C10414.6,1124.87 10417.2,1121.79 10420.6,1121.22L10420.6,1159.25ZM10422.8,1121.22C10426.1,1121.79 10428.7,1124.87 10428.7,1128.59L10428.7,1151.89C10428.7,1155.6 10426.1,1158.68 10422.8,1159.25L10422.8,1121.22Z" style="fill:rgb(0,136,204);"></path>
                    </g>
                    <g transform="matrix(1,0,0,2.42431,-8608.95,4118.53)">
                        <path d="M10412.2,1130L10412.2,1150.97L10407.5,1150.97C10404.9,1150.97 10402.8,1148.86 10402.8,1146.26L10402.8,1134.71C10402.8,1132.11 10404.9,1130 10407.5,1130L10412.2,1130Z" style="fill:rgb(0,136,204);"></path>
                    </g>
                    <g transform="matrix(-1,0,0,2.42431,12278,4118.53)">
                        <path d="M10412.2,1130L10412.2,1150.97L10407.5,1150.97C10404.9,1150.97 10402.8,1148.86 10402.8,1146.26L10402.8,1134.71C10402.8,1132.11 10404.9,1130 10407.5,1130L10412.2,1130Z" style="fill:rgb(0,136,204);"></path>
                    </g>
                    <g transform="matrix(0.780941,0,0,1.89325,-6313.99,4713.61)">
                        <path d="M10434.2,1086.67C10411.1,1086.67 10392.4,1105.4 10392.4,1128.48C10392.4,1128.6 10392.4,1128.73 10392.4,1128.86L10387.8,1128.86C10386.6,1128.86 10384.8,1129.21 10383.9,1129.73C10383.9,1129.31 10383.9,1128.89 10383.9,1128.48C10383.9,1100.7 10406.4,1078.14 10434.2,1078.14C10462,1078.14 10484.5,1100.7 10484.5,1128.48C10484.5,1128.89 10484.5,1129.31 10484.5,1129.73C10483.6,1129.21 10481.8,1128.86 10480.7,1128.86L10476,1128.86C10476,1128.73 10476,1128.6 10476,1128.48C10476,1105.4 10457.3,1086.67 10434.2,1086.67Z" style="fill:rgb(0,136,204);"></path>
                    </g>
                </g>
            </g>
        </g>
    </g>
</svg>