<?xml version="1.0"?>

<svg width="100%" height="100%" viewBox="0 0 41 41" version="1.1" xmlns="http://www.w3.org/2000/svg" xmlns:xlink="http://www.w3.org/1999/xlink" xml:space="preserve" xmlns:serif="http://www.serif.com/" style="fill-rule:evenodd;clip-rule:evenodd;stroke-linecap:round;stroke-miterlimit:1.5;">
    <g transform="matrix(1,0,0,1,-53,-3031)">
        <g transform="matrix(0.853251,0,0,0.127093,1697.07,2900.91)">
            <g transform="matrix(0.464911,0,0,3.12123,-4447.63,467.298)">
                <path d="M5525.02,199.32L5525.02,260.635C5525.02,271.915 5515.86,281.073 5504.58,281.073L5443.26,281.073C5431.98,281.073 5422.83,271.915 5422.83,260.635L5422.83,199.32C5422.83,188.04 5431.98,178.882 5443.26,178.882L5504.58,178.882C5515.86,178.882 5525.02,188.04 5525.02,199.32Z" style="fill:none;"></path>
            </g>
            <g>
                <g transform="matrix(0.711364,0,0,8.35025,-3882.1,-37061.1)">
                    <path d="M2764.78,4572.42L2800.16,4572.42" style="fill:none;stroke:rgb(114,182,0);stroke-width:4.67px;"></path>
                </g>
                <g transform="matrix(0.711364,0,0,8.35025,-3882.1,-36995.7)">
                    <path d="M2764.78,4572.42L2800.16,4572.42" style="fill:none;stroke:rgb(114,182,0);stroke-width:4.67px;"></path>
                </g>
                <g transform="matrix(0.711364,0,0,8.35025,-3882.1,-36930.3)">
                    <path d="M2764.78,4572.42L2800.16,4572.42" style="fill:none;stroke:rgb(114,182,0);stroke-width:4.67px;"></path>
                </g>
            </g>
        </g>
    </g>
</svg>