<?xml version="1.0"?>

<svg width="100%" height="100%" viewBox="0 0 35 35" version="1.1" xmlns="http://www.w3.org/2000/svg" xmlns:xlink="http://www.w3.org/1999/xlink" xml:space="preserve" xmlns:serif="http://www.serif.com/" style="fill-rule:evenodd;clip-rule:evenodd;stroke-linecap:round;stroke-linejoin:round;stroke-miterlimit:1.58537;">
    <g transform="matrix(1,0,0,1,-2068,-14752)">
        <g transform="matrix(0.96578,0,0,0.140572,439.011,14026.1)">
            <g transform="matrix(0.178905,7.78795e-47,0,4.00677,1624.88,-31729.2)">
                <g transform="matrix(1,0,0,1,-0.368024,0)">
                    <g transform="matrix(0.836366,0,0,0.256569,-5728.68,4910.73)">
                        <circle cx="7334.31" cy="16788.2" r="21.317" style="fill:rgb(183,197,207);stroke:rgb(106,118,128);stroke-width:6.61px;"></circle>
                    </g>
                    <g transform="matrix(0.836366,0,0,0.256569,-5648.78,4911.08)">
                        <circle cx="7334.31" cy="16788.2" r="21.317" style="fill:rgb(183,197,207);stroke:rgb(106,118,128);stroke-width:6.61px;"></circle>
                    </g>
                </g>
                <g>
                    <g transform="matrix(-0.685842,0.201176,0.757981,0.243177,-7313.25,3662.07)">
                        <path d="M7304.68,16882.5C7316.33,16882.5 7325.79,16895.3 7325.79,16911.1C7325.79,16926.8 7316.33,16939.6 7304.68,16939.6C7293.02,16939.6 7286.25,16927.5 7287.57,16911.7C7288.88,16895.9 7299.27,16882.5 7304.68,16882.5Z" style="fill:rgb(183,197,207);stroke:rgb(106,118,128);stroke-width:5.39px;"></path>
                    </g>
                    <g transform="matrix(0.685842,0.201176,-0.757981,0.243177,8203.38,3662.07)">
                        <path d="M7304.68,16882.5C7316.33,16882.5 7325.79,16895.3 7325.79,16911.1C7325.79,16926.8 7316.33,16939.6 7304.68,16939.6C7293.02,16939.6 7286.25,16927.5 7287.57,16911.7C7288.88,16895.9 7299.27,16882.5 7304.68,16882.5Z" style="fill:rgb(183,197,207);stroke:rgb(106,118,128);stroke-width:5.39px;"></path>
                    </g>
                </g>
                <g transform="matrix(0.892227,-2.16888e-63,0,0.273705,-6170.36,4648.96)">
                    <path d="M7414.5,16758.4C7431.83,16758.4 7465.71,16781.4 7465.71,16809.7C7465.71,16837.9 7442.77,16860.9 7414.5,16860.9C7386.24,16860.9 7363.3,16837.9 7363.3,16809.7C7363.3,16781.4 7397.18,16758.4 7414.5,16758.4Z" style="fill:rgb(183,197,207);stroke:rgb(106,118,128);stroke-width:6.2px;"></path>
                </g>
                <g transform="matrix(0.892227,-2.16888e-63,0,0.273705,-6170.36,4626.56)">
                    <circle cx="7414.5" cy="16809.7" r="51.207" style="fill:rgb(183,197,207);stroke:rgb(106,118,128);stroke-width:6.2px;"></circle>
                </g>
                <g transform="matrix(0.836366,-2.03309e-63,0,0.256569,-5749.58,4918.91)">
                    <circle cx="7406.62" cy="16888" r="29.111" style="fill:white;"></circle>
                </g>
                <g transform="matrix(0.719267,-1.74844e-63,0,0.188589,-4882.28,6047.69)">
                    <circle cx="7406.62" cy="16888" r="29.111" style="fill:white;"></circle>
                </g>
                <g transform="matrix(0.902101,0,0,0.902101,50.6959,904.116)">
                    <g transform="matrix(0.309798,0,0,0.0611958,-1857.39,8196.34)">
                        <path d="M7406.62,16863.2C7422.69,16863.2 7435.73,16871.9 7435.73,16888C7435.73,16904.1 7416.97,16917.1 7406.62,16917.1C7396.28,16917.1 7377.51,16904.1 7377.51,16888C7377.51,16871.9 7390.56,16863.2 7406.62,16863.2Z" style="fill:rgb(106,118,128);"></path>
                    </g>
                    <g transform="matrix(0.836366,0,0,0.256569,-5755.49,4919.16)">
                        <path d="M7390.74,16817.7C7394.29,16820.8 7397.87,16823.4 7404.24,16818.3" style="fill:none;stroke:rgb(106,118,128);stroke-width:3.4px;"></path>
                    </g>
                    <g transform="matrix(-0.836366,0,0,0.256569,6629.82,4919.16)">
                        <path d="M7390.74,16817.7C7394.29,16820.8 7397.87,16823.4 7404.24,16818.3L7404.24,16808.1" style="fill:none;stroke:rgb(106,118,128);stroke-width:3.4px;"></path>
                    </g>
                </g>
                <g transform="matrix(1,0,0,1,-0.647349,0)">
                    <g transform="matrix(1.11759,2.71671e-63,0,0.342839,-7823.18,3471.35)">
                        <circle cx="7382.56" cy="16783.7" r="4.122" style="fill:rgb(106,118,128);"></circle>
                    </g>
                    <g transform="matrix(1.11759,2.71671e-63,0,0.342839,-7786.74,3471.35)">
                        <circle cx="7382.56" cy="16783.7" r="4.122" style="fill:rgb(106,118,128);"></circle>
                    </g>
                </g>
                <g transform="matrix(1,0,0,1,-1.02578,0)">
                    <g transform="matrix(0.908915,-0.0836292,0.24676,0.25238,-10409.7,5600.86)">
                        <ellipse cx="7304.68" cy="16911.1" rx="21.117" ry="28.533" style="fill:rgb(183,197,207);stroke:rgb(106,118,128);stroke-width:6.11px;"></ellipse>
                    </g>
                    <g transform="matrix(-0.908915,-0.0836292,-0.24676,0.25238,11301.9,5600.86)">
                        <ellipse cx="7304.68" cy="16911.1" rx="21.117" ry="28.533" style="fill:rgb(183,197,207);stroke:rgb(106,118,128);stroke-width:6.11px;"></ellipse>
                    </g>
                </g>
            </g>
            <g transform="matrix(1.07715,0,0,7.40044,-3747.24,-90734.1)">
                <rect x="5044.79" y="12958.9" width="32.945" height="32.945" style="fill:none;"></rect>
            </g>
        </g>
    </g>
</svg>