<?xml version="1.0"?>

<svg width="100%" height="100%" viewBox="0 0 29 34" version="1.1" xmlns="http://www.w3.org/2000/svg" xmlns:xlink="http://www.w3.org/1999/xlink" xml:space="preserve" xmlns:serif="http://www.serif.com/" style="fill-rule:evenodd;clip-rule:evenodd;stroke-linecap:round;stroke-linejoin:round;stroke-miterlimit:1.585;">
    <g transform="matrix(1,0,0,1,-968,-555)">
        <g transform="matrix(3.65927,0,0,2.021086,7506.430266,-8915.875646)">
            <g id="_3-4-years" transform="matrix(0.136365,0,0,0.029295,-2022.096141,4534.21347)">
                <g transform="matrix(2.40301,0,0,3.459306,-2093.983202,-13556.012078)">
                    <g>
                        <g transform="matrix(-0.98728,0,-0,-6.485573,3561.330839,101271.091686)">
                            <path d="M1987.597,14761.226C1987.645,14761.351 1987.821,14761.558 1987.821,14761.558L1996.299,14770.347L1974.558,14770.347L1982.934,14761.664C1982.934,14761.664 1983.201,14761.36 1983.266,14761.206C1983.33,14761.052 1983.323,14760.739 1983.323,14760.739L1983.323,14756.911C1983.323,14756.911 1983.332,14756.635 1983.441,14756.465C1983.585,14756.242 1983.902,14756.08 1983.902,14756.08L1986.601,14754.612C1986.601,14754.612 1987.026,14754.463 1987.332,14754.717C1987.575,14754.918 1987.534,14755.266 1987.534,14755.266L1987.534,14760.812C1987.534,14760.812 1987.549,14761.102 1987.597,14761.226Z" style="fill:rgb(83,203,213);stroke:rgb(10,42,87);stroke-width:0.53px;"></path>
                        </g>
                        <g transform="matrix(0.909,0,0,7.52735,-203.710685,-105597.079157)">
                            <path d="M1998.032,14755.018C1998.032,14755.757 1997.183,14756.357 1996.138,14756.357L1974.971,14756.357C1973.926,14756.357 1973.077,14755.757 1973.077,14755.018C1973.077,14754.279 1973.926,14753.679 1974.971,14753.679L1996.138,14753.679C1997.183,14753.679 1998.032,14754.279 1998.032,14755.018Z" style="fill:rgb(83,203,213);stroke:rgb(10,42,87);stroke-width:0.5px;"></path>
                        </g>
                    </g>
                    <g transform="matrix(0,-4.500955,0.768815,0,-9771.214265,14616.228089)">
                        <circle cx="2039.748" cy="14800.627" r="2.94" style="fill:rgb(158,131,213);stroke:rgb(10,42,87);stroke-width:0.72px;"></circle>
                    </g>
                    <g transform="matrix(0,-4.500955,0.768815,0,-9777.782323,14616.228089)">
                        <circle cx="2039.748" cy="14800.627" r="2.94" style="fill:rgb(254,215,96);stroke:rgb(10,42,87);stroke-width:0.72px;"></circle>
                    </g>
                    <g transform="matrix(0,-4.500955,0.768815,0,-9784.350381,14616.228089)">
                        <circle cx="2039.748" cy="14800.627" r="2.94" style="fill:rgb(254,120,104);stroke:rgb(10,42,87);stroke-width:0.72px;"></circle>
                    </g>
                </g>
            </g>
        </g>
    </g>
</svg>