<?xml version="1.0"?>

<svg width="100%" height="100%" viewBox="0 0 15 13" version="1.1" xmlns="http://www.w3.org/2000/svg" xmlns:xlink="http://www.w3.org/1999/xlink" xml:space="preserve" xmlns:serif="http://www.serif.com/" style="fill-rule:evenodd;clip-rule:evenodd;stroke-linejoin:round;stroke-miterlimit:2;">
    <g transform="matrix(1,0,0,1,-122,-456)">
        <g transform="matrix(1,0,0,1,619.885186,0)">
            <g id="diamond" transform="matrix(1.148262,0,0,1.138365,-948.624702,63.3983)">
                <path d="M401.447,348.342L396.507,348.342C396.507,348.342 396.341,348.353 396.295,348.27C396.258,348.202 396.341,348.063 396.341,348.063L397.406,345.74C397.406,345.74 397.447,345.627 397.513,345.587C397.581,345.545 397.726,345.547 397.726,345.547L400.227,345.547C400.227,345.547 400.372,345.545 400.44,345.587C400.506,345.627 400.547,345.74 400.547,345.74L401.612,348.063C401.612,348.063 401.695,348.202 401.658,348.27C401.612,348.353 401.447,348.342 401.447,348.342ZM398.974,356.243C398.91,356.245 398.867,356.103 398.867,356.103L396.196,349.094C396.196,349.094 396.124,348.924 396.188,348.826C396.247,348.735 396.427,348.743 396.427,348.743L401.526,348.743C401.526,348.743 401.706,348.735 401.765,348.826C401.83,348.924 401.757,349.094 401.757,349.094L399.087,356.1C399.087,356.1 399.028,356.241 398.974,356.243ZM393.034,348.295C393.007,348.254 393.013,348.24 393.141,348.077C393.678,347.398 395.071,345.637 395.148,345.591C395.223,345.546 395.349,345.543 395.411,345.545L395.449,345.547L396.988,345.547C396.988,345.547 397.044,345.548 397.062,345.57C397.087,345.6 397.06,345.659 397.06,345.659L395.892,348.188C395.892,348.188 395.852,348.277 395.811,348.303C395.77,348.328 395.753,348.338 395.644,348.339C395.065,348.344 393.283,348.341 393.283,348.341C393.283,348.341 393.069,348.348 393.034,348.295ZM393.091,348.798C393.109,348.735 393.259,348.743 393.259,348.743L395.435,348.749C395.435,348.749 395.581,348.754 395.647,348.803C395.739,348.871 395.769,348.994 395.769,348.994L398.239,355.421C398.239,355.421 398.275,355.5 398.248,355.519C398.22,355.537 398.164,355.462 398.164,355.462L393.177,349.019C393.177,349.019 393.06,348.907 393.091,348.798ZM404.919,348.295C404.884,348.348 404.67,348.341 404.67,348.341C404.67,348.341 402.888,348.344 402.309,348.339C402.2,348.338 402.183,348.328 402.142,348.303C402.101,348.277 402.061,348.188 402.061,348.188L400.894,345.659C400.894,345.659 400.866,345.6 400.891,345.57C400.909,345.548 400.965,345.547 400.965,345.547L402.504,345.547L402.542,345.545C402.604,345.543 402.73,345.546 402.805,345.591C402.882,345.637 404.275,347.398 404.812,348.077C404.94,348.24 404.946,348.254 404.919,348.295ZM404.862,348.798C404.893,348.907 404.776,349.019 404.776,349.019L399.789,355.462C399.789,355.462 399.733,355.537 399.706,355.519C399.678,355.5 399.714,355.421 399.714,355.421L402.184,348.994C402.184,348.994 402.214,348.871 402.306,348.803C402.372,348.754 402.518,348.749 402.518,348.749L404.694,348.743C404.694,348.743 404.844,348.735 404.862,348.798Z" style="fill:white;"></path>
                <path d="M393.278,348.342C393.247,348.342 393.066,348.344 393.034,348.295C393.007,348.254 393.013,348.24 393.141,348.077C393.678,347.398 395.071,345.637 395.148,345.591C395.223,345.546 395.349,345.543 395.411,345.545L395.449,345.547L395.68,345.547C395.68,345.547 395.68,345.548 395.68,345.549C395.678,345.684 395.578,345.795 395.449,345.813L395.449,345.817L395.411,345.816L395.399,345.815C395.375,345.814 395.336,345.808 395.304,345.816C395.277,345.847 395.22,345.912 395.167,345.976C394.794,346.423 393.962,347.473 393.489,348.071C393.975,348.071 395.185,348.072 395.642,348.069L395.651,348.068L396.691,345.817L395.449,345.817C395.597,345.817 395.717,345.696 395.717,345.547L396.816,345.547L396.814,345.549C396.805,345.572 396.805,345.682 396.857,345.744C396.876,345.767 396.901,345.788 396.932,345.803C396.952,345.813 396.98,345.817 396.987,345.817L396.842,345.817C396.869,345.856 396.905,345.885 396.946,345.905L395.892,348.188C395.892,348.188 395.852,348.277 395.811,348.303C395.807,348.305 395.803,348.308 395.799,348.31L395.655,348.084L395.653,348.086L395.798,348.311C395.765,348.33 395.741,348.339 395.644,348.339C395.065,348.344 393.283,348.341 393.283,348.341L393.283,348.336L393.278,348.342ZM396.499,348.342C396.48,348.343 396.431,348.343 396.385,348.33C396.426,348.323 396.464,348.307 396.497,348.283L396.499,348.342ZM400.66,345.986L401.612,348.063C401.612,348.063 401.695,348.202 401.658,348.27C401.612,348.353 401.447,348.342 401.447,348.342L396.507,348.342L396.507,348.276L396.497,348.283L396.496,348.245L396.361,348.322C396.334,348.311 396.309,348.295 396.295,348.27C396.258,348.202 396.341,348.063 396.341,348.063L397.406,345.74C397.406,345.74 397.447,345.627 397.513,345.587C397.581,345.545 397.726,345.547 397.726,345.547L397.728,345.547L397.726,345.818L397.663,345.824L397.676,345.799C397.676,345.799 397.66,345.813 397.651,345.818L397.635,345.827L397.663,345.824L397.658,345.834L397.406,346.011L397.65,345.854L396.633,348.071L396.507,348.071L396.507,348.11C396.516,348.12 396.525,348.13 396.53,348.139C396.539,348.156 396.546,348.19 396.549,348.215L396.572,348.202L396.585,348.177L396.633,348.071L401.32,348.071L400.304,345.854C400.347,345.95 400.442,346.011 400.547,346.011C400.587,346.011 400.625,346.002 400.66,345.986ZM397.995,345.547L400.227,345.547C400.227,345.547 400.372,345.545 400.44,345.587C400.506,345.627 400.547,345.74 400.547,345.74L400.622,345.903L400.547,346.011L400.296,345.834L400.29,345.824L400.227,345.818L397.726,345.818C397.875,345.818 397.995,345.697 397.995,345.547ZM404.402,348.342C403.882,348.342 402.748,348.343 402.309,348.339C402.2,348.338 402.183,348.328 402.142,348.303C402.101,348.277 402.061,348.188 402.061,348.188L400.965,345.814L400.965,345.547L402.504,345.547L402.535,345.545L402.542,345.816L402.504,345.817L401.263,345.817L402.302,348.068L402.311,348.069C402.768,348.072 403.978,348.071 404.464,348.071C403.991,347.473 403.159,346.423 402.787,345.976C402.733,345.912 402.676,345.847 402.649,345.816C402.618,345.808 402.578,345.814 402.554,345.815L402.542,345.816L402.538,345.545L402.542,345.545C402.604,345.543 402.73,345.546 402.805,345.591C402.882,345.637 404.275,347.398 404.812,348.077C404.94,348.24 404.946,348.254 404.919,348.295C404.887,348.344 404.706,348.342 404.675,348.342L404.602,348.246L404.507,348.126C404.443,348.176 404.402,348.254 404.402,348.342ZM399.894,355.327L399.789,355.462C399.789,355.462 399.733,355.537 399.706,355.519C399.678,355.5 399.714,355.421 399.714,355.421L399.776,355.259C399.807,355.267 399.834,355.28 399.854,355.293C399.868,355.302 399.881,355.314 399.894,355.327ZM402.518,348.749L404.694,348.743C404.694,348.743 404.844,348.735 404.862,348.798C404.893,348.907 404.776,349.019 404.776,349.019L400.18,354.958L400.515,354.085L399.944,354.823L402.184,348.994C402.184,348.994 402.214,348.871 402.306,348.803C402.365,348.759 402.488,348.751 402.513,348.749L402.518,349.02L402.518,348.749ZM396.941,345.547L396.988,345.547C396.988,345.547 397.044,345.548 397.062,345.57C397.087,345.6 397.06,345.659 397.06,345.659L396.988,345.814L396.992,345.671C396.976,345.624 396.959,345.581 396.941,345.547ZM404.618,348.902L404.602,348.863L404.604,348.874C404.607,348.883 404.612,348.892 404.618,348.902ZM404.44,349.014L404.508,349.014C404.509,348.957 404.528,348.9 404.565,348.853L404.44,349.014ZM393.278,348.321L393.283,348.301L393.283,348.2L393.275,348.178L393.278,348.321ZM396.492,348.097L396.491,348.072L396.455,348.069C396.455,348.069 396.473,348.081 396.492,348.097ZM401.457,348.245L401.457,348.234L401.406,348.201L401.404,348.215L401.457,348.245ZM404.675,348.321L404.678,348.178C404.666,348.207 404.663,348.235 404.664,348.264C404.664,348.276 404.67,348.3 404.675,348.321ZM396.261,349.266L396.196,349.094C396.196,349.094 396.124,348.924 396.188,348.826C396.247,348.735 396.427,348.743 396.427,348.743L401.526,348.743C401.526,348.743 401.706,348.735 401.765,348.826C401.83,348.924 401.757,349.094 401.757,349.094L399.11,356.039L398.984,356.213L398.998,356.234C398.99,356.239 398.982,356.243 398.974,356.243C398.91,356.245 398.867,356.103 398.867,356.103L396.262,349.268L396.435,349.013L396.428,349.013L396.261,349.266ZM401.501,349.014L396.453,349.013L398.977,355.636L401.501,349.014ZM393.249,349.113L393.177,349.019C393.177,349.019 393.06,348.907 393.091,348.798C393.109,348.735 393.259,348.743 393.259,348.743L393.266,348.743L393.26,348.983C393.285,348.961 393.316,348.931 393.335,348.902L393.29,349.012L393.313,349.008L393.388,348.853L393.45,348.933C393.498,348.884 393.527,348.817 393.527,348.743L395.435,348.749C395.435,348.749 395.581,348.754 395.647,348.803C395.739,348.871 395.769,348.994 395.769,348.994L395.839,349.175L395.769,349.264L395.51,349.063C395.509,349.06 395.507,349.044 395.498,349.031L395.425,349.019L393.513,349.014L397.438,354.085L395.519,349.092C395.559,349.196 395.659,349.264 395.769,349.264C395.803,349.264 395.836,349.258 395.866,349.246L398.239,355.421C398.239,355.421 398.275,355.5 398.248,355.519C398.22,355.537 398.164,355.462 398.164,355.462L393.257,349.124L393.31,349.014L393.289,349.014L393.249,349.113ZM393.335,348.902L393.351,348.863L393.349,348.874C393.346,348.883 393.341,348.892 393.335,348.902ZM393.351,348.863C393.354,348.839 393.349,348.805 393.349,348.805L393.365,348.827L393.351,348.863Z" style="fill:white;"></path>
            </g>
        </g>
    </g>
</svg>